<svg version="1.1" xmlns="http://www.w3.org/2000/svg" viewBox="0 0 621.370361328125 351.80331285925" width="621.370361328125" height="351.80331285925" filter="invert(93%) hue-rotate(180deg)">
  <!-- svg-source:excalidraw -->
  
  <defs>
    <style class="style-fonts">
      @font-face {
        font-family: "Virgil";
        src: url("https://excalidraw.com/Virgil.woff2");
      }
      @font-face {
        font-family: "Cascadia";
        src: url("https://excalidraw.com/Cascadia.woff2");
      }
    </style>
  </defs>
  <g stroke-linecap="round" transform="translate(74.83986089586278 88.23971318757549) rotate(0 57.36006316150417 14.673504529687136)"><path d="M-0.72 0.33 C44.76 -0.54, 85.33 2.06, 115.13 1.68 M-0.71 -0.23 C40.09 -0.6, 80.73 -1.65, 115.21 -0.31 M116.48 1.46 C113.02 7.14, 115.88 14.54, 115 28.68 M114.38 0.69 C114.47 5.85, 113.7 11.47, 114.88 30.03 M115.16 30.58 C72.33 29.47, 31 30.79, 0.32 30.44 M113.8 29.53 C90.65 30.43, 66.58 29.18, -0.13 28.76 M1.28 28.24 C0.99 22.51, 0.29 11.24, -1.36 0 M0.38 29.41 C-0.71 19.64, 0.02 12.48, 0.54 -0.83" stroke="#000000" stroke-width="4" fill="none"></path></g><g stroke-linecap="round"><g transform="translate(97.51709516901565 88.90669066619762) rotate(0 0.36711469385772943 13.6828457062864)"><path d="M-0.2 -1.98 C0.85 8.76, -1.15 15.67, 1.68 29.34 M-0.01 -0.09 C-0.54 7.62, -0.14 13.73, -0.95 29.34" stroke="#000000" stroke-width="4" fill="none"></path></g></g><mask></mask><g stroke-linecap="round"><g transform="translate(128.35673050602963 179.88727429476103) rotate(0 20.369612117504744 22.776926250204667)" fill-rule="evenodd"><path d="M-1.79 1.71 L-1.11 45.96 L3.72 47.09 L10.72 46.83 L21.43 47.09 L40.3 47.97 L39.58 0.2 L36.71 -3.86 L21.31 -6.06 L4.26 -4.42 L1.35 -1.63" stroke="none" stroke-width="0" fill="#228be6" fill-rule="evenodd"></path><path d="M-0.69 0.83 C-0.76 7.52, -0.61 33.22, -0.55 40.68 C-0.5 48.15, -0.86 44.56, -0.37 45.62 C0.12 46.69, 0.74 46.59, 2.39 47.06 C4.04 47.54, 6.11 48.33, 9.52 48.46 C12.92 48.59, 18.88 48.03, 22.8 47.85 C26.72 47.67, 30.14 47.76, 33.02 47.38 C35.91 47, 38.66 46.15, 40.12 45.59 C41.58 45.02, 41.46 44.63, 41.78 44.01 C42.09 43.39, 42.14 48.5, 42.03 41.88 C41.92 35.25, 41.26 11.23, 41.12 4.24 C40.99 -2.74, 41.72 0.88, 41.22 -0.03 C40.72 -0.95, 39.6 -0.85, 38.12 -1.27 C36.64 -1.7, 35.42 -2.26, 32.33 -2.6 C29.25 -2.93, 23.24 -3, 19.61 -3.29 C15.98 -3.59, 13.75 -4.66, 10.58 -4.36 C7.41 -4.05, 2.26 -2.26, 0.57 -1.46 C-1.12 -0.66, 0.43 0.32, 0.44 0.45 C0.45 0.57, 0.53 -0.79, 0.61 -0.71 M1.14 0.23 C1.48 6.5, 2.21 31.56, 1.8 38.82 C1.38 46.07, -1.5 42.14, -1.34 43.73 C-1.17 45.32, 1.21 47.48, 2.78 48.33 C4.35 49.19, 5.02 48.61, 8.06 48.87 C11.09 49.13, 16.8 49.83, 21 49.9 C25.19 49.97, 30.22 50.14, 33.24 49.31 C36.25 48.49, 37.87 45.51, 39.08 44.97 C40.28 44.42, 40.4 46.55, 40.48 46.06 C40.57 45.57, 39.42 49.35, 39.58 42.01 C39.75 34.67, 41.4 9.09, 41.46 2.03 C41.53 -5.04, 40.52 0.22, 40 -0.39 C39.47 -1.01, 39.73 -1.31, 38.31 -1.65 C36.88 -1.99, 34.56 -2.15, 31.47 -2.43 C28.38 -2.72, 23.61 -3.18, 19.76 -3.36 C15.91 -3.53, 11.28 -3.93, 8.38 -3.47 C5.48 -3, 3.85 -1.32, 2.35 -0.57 C0.85 0.19, -0.13 1.1, -0.6 1.06 C-1.07 1.02, -0.26 -0.59, -0.45 -0.82" stroke="#0a11d3" stroke-width="1" fill="none"></path></g></g><mask></mask><g stroke-linecap="round"><g transform="translate(128.67776856744626 210.3815824622834) rotate(0 20.63830689017084 2.2518454172491715)"><path d="M-0.69 0.49 C-0.46 0.8, -0.41 2.15, 0.71 2.68 C1.83 3.21, 4.15 3.4, 6.04 3.67 C7.93 3.95, 9.27 4.39, 12.03 4.32 C14.8 4.26, 19.24 3.49, 22.63 3.28 C26.02 3.07, 29.5 3.41, 32.36 3.05 C35.22 2.69, 38.19 1.71, 39.8 1.1 C41.4 0.48, 41.58 -0.61, 41.97 -0.64 M1.15 -0.3 C1.25 -0.4, -1.15 0.1, -0.44 1.01 C0.27 1.92, 3.3 4.42, 5.42 5.16 C7.54 5.9, 9.6 5.79, 12.29 5.45 C14.99 5.11, 18.1 3.12, 21.61 3.1 C25.12 3.07, 30.21 5.28, 33.34 5.29 C36.48 5.29, 39.09 4.22, 40.42 3.13 C41.75 2.05, 41.24 -0.71, 41.32 -1.21" stroke="#0a11d3" stroke-width="1" fill="none"></path></g></g><mask></mask><g stroke-linecap="round"><g transform="translate(128.16692731578428 194.93401799862522) rotate(0 20.88826196986804 2.7146144671049797)"><path d="M-0.38 0.86 C-0.04 1.13, 0.33 1.72, 1.36 2.14 C2.39 2.57, 3.88 3.22, 5.8 3.4 C7.72 3.57, 10.34 3.15, 12.86 3.19 C15.39 3.23, 17.58 3.63, 20.96 3.64 C24.34 3.65, 29.87 3.65, 33.14 3.24 C36.4 2.84, 39.06 1.59, 40.56 1.2 C42.05 0.81, 41.97 1, 42.1 0.91 M1.62 0.26 C1.89 0.12, -0.02 -0.56, 0.55 0.19 C1.12 0.93, 2.88 4.15, 5.05 4.74 C7.21 5.33, 10.61 3.91, 13.56 3.73 C16.5 3.54, 19.22 3.34, 22.72 3.65 C26.21 3.96, 31.39 5.65, 34.53 5.59 C37.67 5.52, 40.41 4.02, 41.58 3.29 C42.74 2.55, 41.84 1.75, 41.52 1.16" stroke="#0a11d3" stroke-width="1" fill="none"></path></g></g><mask></mask><g stroke-linecap="round" transform="translate(127.64343757202323 176.13927184660452) rotate(0 20.46901226542832 4.139703735980561)"><path d="M20.39 0.29 C24.3 0.23, 29.17 -0.09, 32.39 0.37 C35.62 0.82, 38.69 2.16, 39.73 3.02 C40.77 3.88, 40.45 4.81, 38.62 5.54 C36.79 6.28, 32.91 6.9, 28.75 7.43 C24.59 7.95, 18.07 8.76, 13.65 8.69 C9.23 8.61, 4.42 7.87, 2.21 7 C0 6.13, -0.34 4.48, 0.37 3.46 C1.09 2.44, 2.75 1.29, 6.52 0.87 C10.29 0.45, 19.81 1.15, 22.99 0.95 C26.17 0.75, 25.56 -0.39, 25.6 -0.31 M29.32 -0.4 C33.13 -0.32, 36.18 0.99, 37.79 2.03 C39.4 3.07, 40 5.02, 38.98 5.86 C37.97 6.7, 35.34 6.47, 31.69 7.07 C28.03 7.66, 21.18 9.23, 17.06 9.42 C12.93 9.6, 9.88 8.93, 6.93 8.17 C3.99 7.42, -0.13 5.86, -0.59 4.89 C-1.06 3.92, 1.26 3.05, 4.16 2.33 C7.06 1.61, 12.53 0.87, 16.81 0.57 C21.1 0.27, 28.01 0.39, 29.85 0.53 C31.69 0.68, 27.92 1.31, 27.87 1.43" stroke="none" stroke-width="0" fill="#fff"></path><path d="M19.78 -0.68 C23.84 -0.85, 29.78 0.17, 33.19 0.96 C36.59 1.75, 39.46 3.07, 40.22 4.07 C40.98 5.06, 39.73 6.29, 37.73 6.96 C35.72 7.63, 32.15 7.85, 28.2 8.08 C24.24 8.31, 18.23 8.64, 13.99 8.31 C9.75 7.98, 4.89 6.96, 2.74 6.1 C0.58 5.23, 0.18 4.02, 1.07 3.12 C1.95 2.21, 4.03 1.05, 8.05 0.66 C12.07 0.26, 21.98 0.97, 25.18 0.75 C28.38 0.54, 27.41 -0.65, 27.25 -0.63 M25.64 1.26 C29.43 1.73, 32.67 2.2, 35.08 2.83 C37.5 3.46, 39.81 4.33, 40.14 5.05 C40.47 5.76, 39.67 6.79, 37.07 7.12 C34.47 7.46, 29.12 7.18, 24.52 7.04 C19.92 6.91, 13.37 6.33, 9.48 6.3 C5.59 6.27, 2.74 7.37, 1.2 6.86 C-0.35 6.35, -1.43 4.44, 0.23 3.25 C1.88 2.05, 6.89 0.45, 11.1 -0.31 C15.31 -1.06, 23.38 -1.16, 25.47 -1.29 C27.56 -1.42, 23.7 -1.18, 23.63 -1.09" stroke="#0a11d3" stroke-width="1" fill="none"></path></g><g stroke-linecap="round" transform="translate(161.0426646760452 187.61760906239613) rotate(0 2.9999299598819107 3.2558423523780107)"><path d="M1.41 -0.34 C1.75 -0.68, 2.65 -0.27, 3.37 -0.02 C4.08 0.24, 5.18 0.62, 5.71 1.19 C6.23 1.75, 6.74 2.5, 6.51 3.37 C6.28 4.25, 5.08 5.79, 4.33 6.42 C3.57 7.06, 2.51 7.32, 1.98 7.17 C1.46 7.03, 1.54 6.18, 1.18 5.57 C0.82 4.96, -0.05 4.04, -0.19 3.52 C-0.33 3, -0.03 3.13, 0.34 2.46 C0.71 1.78, 1.45 -0.32, 2.02 -0.56 C2.6 -0.79, 3.51 1.02, 3.78 1.04 M2.58 -0.26 C3.01 0.16, 3.9 1.57, 4.44 2.16 C4.97 2.75, 5.9 2.48, 5.79 3.27 C5.67 4.05, 4.01 6.15, 3.75 6.88 C3.5 7.62, 4.82 7.78, 4.28 7.68 C3.73 7.57, 1.13 6.78, 0.46 6.25 C-0.21 5.72, 0.07 5.19, 0.26 4.5 C0.45 3.81, 1.28 2.81, 1.61 2.11 C1.95 1.41, 2.13 0.49, 2.29 0.32 C2.44 0.15, 2.1 1.05, 2.54 1.11 C2.98 1.17, 4.47 0.6, 4.93 0.7" stroke="none" stroke-width="0" fill="#fff"></path><path d="M3.44 0.17 C4.1 0.58, 4.81 1.52, 5.17 2.25 C5.52 2.98, 5.48 3.96, 5.59 4.55 C5.7 5.14, 6.16 5.42, 5.84 5.8 C5.53 6.17, 4.49 6.83, 3.71 6.81 C2.92 6.79, 1.65 6.2, 1.16 5.66 C0.67 5.11, 0.79 4.26, 0.76 3.54 C0.73 2.82, 0.64 1.77, 0.98 1.33 C1.32 0.88, 2.3 1.19, 2.78 0.87 C3.26 0.54, 3.5 -0.63, 3.86 -0.6 C4.23 -0.56, 4.85 0.79, 4.99 1.09 M0.79 1.42 C1.03 1.13, 2.37 0.98, 3.38 1.08 C4.4 1.18, 6.3 1.75, 6.88 2.04 C7.45 2.33, 7.25 2.4, 6.84 2.81 C6.43 3.21, 5.07 3.63, 4.42 4.48 C3.77 5.32, 3.71 7.6, 2.94 7.89 C2.17 8.19, 0.2 7.08, -0.21 6.24 C-0.62 5.4, 0.23 3.85, 0.51 2.83 C0.8 1.81, 1.36 0.77, 1.51 0.11 C1.65 -0.54, 1.12 -0.92, 1.39 -1.1 C1.67 -1.29, 2.92 -1.29, 3.16 -1.02" stroke="#0a11d3" stroke-width="1" fill="none"></path></g><g stroke-linecap="round" transform="translate(161.0426646760452 201.91074474472362) rotate(0 2.9999299598819107 3.2558423523780107)"><path d="M2.68 -0.22 C3.41 -0.17, 4.65 0.08, 5.3 0.55 C5.95 1.02, 6.66 1.72, 6.58 2.6 C6.5 3.49, 5.48 5.13, 4.83 5.88 C4.18 6.63, 3.2 7.08, 2.69 7.11 C2.18 7.13, 2.21 6.48, 1.76 6.01 C1.31 5.54, 0.28 4.74, -0.01 4.27 C-0.29 3.79, -0.08 3.88, 0.04 3.16 C0.16 2.43, 0.02 0.26, 0.73 -0.08 C1.44 -0.43, 3.55 1.14, 4.29 1.1 C5.04 1.05, 5.17 -0.25, 5.2 -0.38 M1.04 0.69 C1.83 0.46, 3.48 -0.61, 4.06 -0.23 C4.63 0.16, 3.99 2.09, 4.5 3 C5.01 3.91, 7.21 4.66, 7.14 5.22 C7.08 5.78, 4.81 6.05, 4.11 6.37 C3.42 6.69, 3.32 7.2, 2.99 7.14 C2.66 7.08, 2.57 6.61, 2.14 6.03 C1.7 5.46, 0.87 4.31, 0.36 3.69 C-0.15 3.08, -1.39 2.87, -0.93 2.35 C-0.47 1.83, 2.39 0.74, 3.15 0.58 C3.91 0.41, 4.01 1.44, 3.62 1.37" stroke="none" stroke-width="0" fill="#fff"></path><path d="M1.55 0.79 C2.16 0.65, 2.86 0.76, 3.69 0.91 C4.52 1.06, 6.05 1.15, 6.54 1.69 C7.04 2.22, 6.93 3.48, 6.68 4.15 C6.42 4.82, 5.51 5.34, 5.01 5.69 C4.52 6.04, 4.26 6.29, 3.69 6.25 C3.13 6.21, 2.1 5.75, 1.62 5.45 C1.14 5.15, 1.13 5.28, 0.83 4.47 C0.53 3.66, -0.41 1.27, -0.16 0.61 C0.09 -0.05, 1.88 0.51, 2.36 0.53 C2.83 0.54, 2.8 0.55, 2.68 0.67 M3.36 1.07 C4.36 1.11, 6.28 1.73, 6.86 2.01 C7.45 2.3, 7.25 2.37, 6.85 2.78 C6.44 3.18, 5.09 3.6, 4.44 4.46 C3.79 5.31, 3.74 7.6, 2.97 7.9 C2.2 8.2, 0.22 7.1, -0.19 6.26 C-0.6 5.42, 0.23 3.88, 0.51 2.86 C0.79 1.84, 1.35 0.8, 1.49 0.14 C1.63 -0.52, 0.75 -0.91, 1.37 -1.1 C1.98 -1.28, 4.61 -1.22, 5.16 -0.97 C5.72 -0.73, 4.91 -0.09, 4.71 0.38" stroke="#0a11d3" stroke-width="1" fill="none"></path></g><g stroke-linecap="round" transform="translate(161.0426646760452 217.4454840920797) rotate(0 2.9999299598819107 3.2558423523780107)"><path d="M2.31 -0.43 C3.12 -0.69, 4.39 -0.72, 4.87 -0.23 C5.36 0.26, 5.19 1.68, 5.2 2.52 C5.22 3.35, 5.02 4.24, 4.97 4.79 C4.92 5.34, 5.29 5.58, 4.88 5.83 C4.46 6.08, 3.18 6.2, 2.49 6.3 C1.8 6.4, 1.27 7.01, 0.74 6.45 C0.22 5.89, -0.72 3.63, -0.68 2.94 C-0.65 2.25, 0.29 2.92, 0.97 2.31 C1.65 1.7, 2.99 -0.32, 3.39 -0.72 C3.79 -1.11, 3.62 -0.06, 3.38 -0.04 M2.39 -0.48 C2.98 -0.52, 2.59 1, 3.37 1.64 C4.15 2.29, 6.79 2.85, 7.08 3.39 C7.38 3.94, 5.56 4.37, 5.15 4.93 C4.74 5.49, 4.89 6.43, 4.64 6.76 C4.38 7.08, 4.23 7.12, 3.63 6.89 C3.02 6.66, 1.84 5.85, 1 5.39 C0.15 4.92, -1.57 4.73, -1.45 4.09 C-1.33 3.45, 0.81 2.03, 1.72 1.55 C2.62 1.07, 4.08 1.51, 3.99 1.22 C3.89 0.93, 1.14 -0.29, 1.14 -0.2" stroke="none" stroke-width="0" fill="#fff"></path><path d="M2.59 0.71 C3.43 0.56, 5.14 0.39, 5.82 0.76 C6.5 1.13, 6.69 2.27, 6.67 2.94 C6.66 3.6, 6.04 4.24, 5.73 4.76 C5.41 5.28, 5.31 5.82, 4.79 6.04 C4.27 6.25, 3.18 6.12, 2.59 6.05 C1.99 5.98, 1.74 6.32, 1.22 5.61 C0.69 4.89, -0.54 2.49, -0.54 1.75 C-0.53 1.01, 0.58 1.39, 1.25 1.18 C1.93 0.98, 3.28 0.57, 3.53 0.52 C3.77 0.46, 2.66 1.06, 2.73 0.88 M5.45 0.55 C6.3 0.45, 6.62 0.31, 6.63 0.67 C6.64 1.02, 5.82 1.58, 5.52 2.69 C5.22 3.79, 5.5 6.56, 4.85 7.29 C4.19 8.03, 2.18 7.53, 1.6 7.11 C1.03 6.68, 1.48 5.58, 1.39 4.76 C1.29 3.94, 1.3 2.97, 1.03 2.2 C0.77 1.44, -0.57 0.72, -0.21 0.17 C0.16 -0.39, 2.37 -1.14, 3.21 -1.1 C4.05 -1.07, 4.68 -0.09, 4.83 0.36 C4.97 0.82, 4.39 1.42, 4.11 1.63" stroke="#0a11d3" stroke-width="1" fill="none"></path></g><g stroke-linecap="round" transform="translate(265.3555737057429 50.73859075320138) rotate(0 52.24480143493338 31.267924641297952)"><path d="M-0.9 -0.89 C41.36 0.93, 82.31 -0.49, 103.63 -0.08 M-0.99 0.85 C36.34 1.35, 72.48 -0.12, 103.79 -0.83 M103.88 0.37 C105.51 14.39, 105.57 28.1, 104.89 63.48 M105.26 0.72 C103.95 23.38, 103.55 45.72, 104.46 63.33 M104.14 62.36 C72.99 63.64, 39.06 62.55, -1.52 61.92 M103.96 62.54 C82.16 62.01, 58.13 62.82, -0.67 62.08 M-1.33 61.85 C-1.76 48.11, 0.83 35.25, 0.12 -1.6 M-0.63 62.48 C0.28 43.45, -0.62 22.93, 0.95 -0.55" stroke="#000000" stroke-width="1" fill="none"></path></g><g stroke-linecap="round"><g transform="translate(264.4767387756258 59.494712403573885) rotate(0 52.586667442827434 0.022236134167769706)"><path d="M-0.53 -0.02 C17.13 0.03, 88.14 -0.19, 105.7 -0.28 M1.39 -1.07 C18.95 -0.8, 87.91 0.85, 104.98 1.12" stroke="#000000" stroke-width="1" fill="none"></path></g></g><mask></mask><g stroke-linecap="round" transform="translate(269.0225973067493 54.22874749958419) rotate(0 2.0434642604076316 2.0434642604076316)"><path d="M4.09 2.04 C4.09 2.16, 4.08 2.28, 4.06 2.4 C4.04 2.51, 4 2.63, 3.96 2.74 C3.92 2.85, 3.87 2.96, 3.81 3.07 C3.75 3.17, 3.68 3.27, 3.61 3.36 C3.53 3.45, 3.45 3.53, 3.36 3.61 C3.27 3.68, 3.17 3.75, 3.07 3.81 C2.96 3.87, 2.85 3.92, 2.74 3.96 C2.63 4, 2.51 4.04, 2.4 4.06 C2.28 4.08, 2.16 4.09, 2.04 4.09 C1.93 4.09, 1.81 4.08, 1.69 4.06 C1.57 4.04, 1.46 4, 1.34 3.96 C1.23 3.92, 1.12 3.87, 1.02 3.81 C0.92 3.75, 0.82 3.68, 0.73 3.61 C0.64 3.53, 0.55 3.45, 0.48 3.36 C0.4 3.27, 0.33 3.17, 0.27 3.07 C0.21 2.96, 0.16 2.85, 0.12 2.74 C0.08 2.63, 0.05 2.51, 0.03 2.4 C0.01 2.28, 0 2.16, 0 2.04 C0 1.93, 0.01 1.81, 0.03 1.69 C0.05 1.57, 0.08 1.46, 0.12 1.34 C0.16 1.23, 0.21 1.12, 0.27 1.02 C0.33 0.92, 0.4 0.82, 0.48 0.73 C0.55 0.64, 0.64 0.55, 0.73 0.48 C0.82 0.4, 0.92 0.33, 1.02 0.27 C1.12 0.21, 1.23 0.16, 1.34 0.12 C1.46 0.08, 1.57 0.05, 1.69 0.03 C1.81 0.01, 1.93 0, 2.04 0 C2.16 0, 2.28 0.01, 2.4 0.03 C2.51 0.05, 2.63 0.08, 2.74 0.12 C2.85 0.16, 2.96 0.21, 3.07 0.27 C3.17 0.33, 3.27 0.4, 3.36 0.48 C3.45 0.55, 3.53 0.64, 3.61 0.73 C3.68 0.82, 3.75 0.92, 3.81 1.02 C3.87 1.12, 3.92 1.23, 3.96 1.34 C4 1.46, 4.04 1.57, 4.06 1.69 C4.08 1.81, 4.08 1.98, 4.09 2.04 C4.09 2.1, 4.09 1.98, 4.09 2.04" stroke="none" stroke-width="0" fill="#fa5252"></path><path d="M4.09 2.04 C4.09 2.16, 4.08 2.28, 4.06 2.4 C4.04 2.51, 4 2.63, 3.96 2.74 C3.92 2.85, 3.87 2.96, 3.81 3.07 C3.75 3.17, 3.68 3.27, 3.61 3.36 C3.53 3.45, 3.45 3.53, 3.36 3.61 C3.27 3.68, 3.17 3.75, 3.07 3.81 C2.96 3.87, 2.85 3.92, 2.74 3.96 C2.63 4, 2.51 4.04, 2.4 4.06 C2.28 4.08, 2.16 4.09, 2.04 4.09 C1.93 4.09, 1.81 4.08, 1.69 4.06 C1.57 4.04, 1.46 4, 1.34 3.96 C1.23 3.92, 1.12 3.87, 1.02 3.81 C0.92 3.75, 0.82 3.68, 0.73 3.61 C0.64 3.53, 0.55 3.45, 0.48 3.36 C0.4 3.27, 0.33 3.17, 0.27 3.07 C0.21 2.96, 0.16 2.85, 0.12 2.74 C0.08 2.63, 0.05 2.51, 0.03 2.4 C0.01 2.28, 0 2.16, 0 2.04 C0 1.93, 0.01 1.81, 0.03 1.69 C0.05 1.57, 0.08 1.46, 0.12 1.34 C0.16 1.23, 0.21 1.12, 0.27 1.02 C0.33 0.92, 0.4 0.82, 0.48 0.73 C0.55 0.64, 0.64 0.55, 0.73 0.48 C0.82 0.4, 0.92 0.33, 1.02 0.27 C1.12 0.21, 1.23 0.16, 1.34 0.12 C1.46 0.08, 1.57 0.05, 1.69 0.03 C1.81 0.01, 1.93 0, 2.04 0 C2.16 0, 2.28 0.01, 2.4 0.03 C2.51 0.05, 2.63 0.08, 2.74 0.12 C2.85 0.16, 2.96 0.21, 3.07 0.27 C3.17 0.33, 3.27 0.4, 3.36 0.48 C3.45 0.55, 3.53 0.64, 3.61 0.73 C3.68 0.82, 3.75 0.92, 3.81 1.02 C3.87 1.12, 3.92 1.23, 3.96 1.34 C4 1.46, 4.04 1.57, 4.06 1.69 C4.08 1.81, 4.08 1.98, 4.09 2.04 C4.09 2.1, 4.09 1.98, 4.09 2.04" stroke="#000000" stroke-width="1" fill="none"></path></g><g stroke-linecap="round" transform="translate(277.40790223163185 54.22874749958419) rotate(0 2.0434642604076316 2.0434642604076316)"><path d="M4.09 2.04 C4.09 2.16, 4.08 2.28, 4.06 2.4 C4.04 2.51, 4 2.63, 3.96 2.74 C3.92 2.85, 3.87 2.96, 3.81 3.07 C3.75 3.17, 3.68 3.27, 3.61 3.36 C3.53 3.45, 3.45 3.53, 3.36 3.61 C3.27 3.68, 3.17 3.75, 3.07 3.81 C2.96 3.87, 2.85 3.92, 2.74 3.96 C2.63 4, 2.51 4.04, 2.4 4.06 C2.28 4.08, 2.16 4.09, 2.04 4.09 C1.93 4.09, 1.81 4.08, 1.69 4.06 C1.57 4.04, 1.46 4, 1.34 3.96 C1.23 3.92, 1.12 3.87, 1.02 3.81 C0.92 3.75, 0.82 3.68, 0.73 3.61 C0.64 3.53, 0.55 3.45, 0.48 3.36 C0.4 3.27, 0.33 3.17, 0.27 3.07 C0.21 2.96, 0.16 2.85, 0.12 2.74 C0.08 2.63, 0.05 2.51, 0.03 2.4 C0.01 2.28, 0 2.16, 0 2.04 C0 1.93, 0.01 1.81, 0.03 1.69 C0.05 1.57, 0.08 1.46, 0.12 1.34 C0.16 1.23, 0.21 1.12, 0.27 1.02 C0.33 0.92, 0.4 0.82, 0.48 0.73 C0.55 0.64, 0.64 0.55, 0.73 0.48 C0.82 0.4, 0.92 0.33, 1.02 0.27 C1.12 0.21, 1.23 0.16, 1.34 0.12 C1.46 0.08, 1.57 0.05, 1.69 0.03 C1.81 0.01, 1.93 0, 2.04 0 C2.16 0, 2.28 0.01, 2.4 0.03 C2.51 0.05, 2.63 0.08, 2.74 0.12 C2.85 0.16, 2.96 0.21, 3.07 0.27 C3.17 0.33, 3.27 0.4, 3.36 0.48 C3.45 0.55, 3.53 0.64, 3.61 0.73 C3.68 0.82, 3.75 0.92, 3.81 1.02 C3.87 1.12, 3.92 1.23, 3.96 1.34 C4 1.46, 4.04 1.57, 4.06 1.69 C4.08 1.81, 4.08 1.98, 4.09 2.04 C4.09 2.1, 4.09 1.98, 4.09 2.04" stroke="none" stroke-width="0" fill="#fab005"></path><path d="M4.09 2.04 C4.09 2.16, 4.08 2.28, 4.06 2.4 C4.04 2.51, 4 2.63, 3.96 2.74 C3.92 2.85, 3.87 2.96, 3.81 3.07 C3.75 3.17, 3.68 3.27, 3.61 3.36 C3.53 3.45, 3.45 3.53, 3.36 3.61 C3.27 3.68, 3.17 3.75, 3.07 3.81 C2.96 3.87, 2.85 3.92, 2.74 3.96 C2.63 4, 2.51 4.04, 2.4 4.06 C2.28 4.08, 2.16 4.09, 2.04 4.09 C1.93 4.09, 1.81 4.08, 1.69 4.06 C1.57 4.04, 1.46 4, 1.34 3.96 C1.23 3.92, 1.12 3.87, 1.02 3.81 C0.92 3.75, 0.82 3.68, 0.73 3.61 C0.64 3.53, 0.55 3.45, 0.48 3.36 C0.4 3.27, 0.33 3.17, 0.27 3.07 C0.21 2.96, 0.16 2.85, 0.12 2.74 C0.08 2.63, 0.05 2.51, 0.03 2.4 C0.01 2.28, 0 2.16, 0 2.04 C0 1.93, 0.01 1.81, 0.03 1.69 C0.05 1.57, 0.08 1.46, 0.12 1.34 C0.16 1.23, 0.21 1.12, 0.27 1.02 C0.33 0.92, 0.4 0.82, 0.48 0.73 C0.55 0.64, 0.64 0.55, 0.73 0.48 C0.82 0.4, 0.92 0.33, 1.02 0.27 C1.12 0.21, 1.23 0.16, 1.34 0.12 C1.46 0.08, 1.57 0.05, 1.69 0.03 C1.81 0.01, 1.93 0, 2.04 0 C2.16 0, 2.28 0.01, 2.4 0.03 C2.51 0.05, 2.63 0.08, 2.74 0.12 C2.85 0.16, 2.96 0.21, 3.07 0.27 C3.17 0.33, 3.27 0.4, 3.36 0.48 C3.45 0.55, 3.53 0.64, 3.61 0.73 C3.68 0.82, 3.75 0.92, 3.81 1.02 C3.87 1.12, 3.92 1.23, 3.96 1.34 C4 1.46, 4.04 1.57, 4.06 1.69 C4.08 1.81, 4.08 1.98, 4.09 2.04 C4.09 2.1, 4.09 1.98, 4.09 2.04" stroke="#000000" stroke-width="1" fill="none"></path></g><g stroke-linecap="round" transform="translate(286.16147632908655 54.59701667215643) rotate(0 2.0434642604076316 2.0434642604076316)"><path d="M4.09 2.04 C4.09 2.16, 4.08 2.28, 4.06 2.4 C4.04 2.51, 4 2.63, 3.96 2.74 C3.92 2.85, 3.87 2.96, 3.81 3.07 C3.75 3.17, 3.68 3.27, 3.61 3.36 C3.53 3.45, 3.45 3.53, 3.36 3.61 C3.27 3.68, 3.17 3.75, 3.07 3.81 C2.96 3.87, 2.85 3.92, 2.74 3.96 C2.63 4, 2.51 4.04, 2.4 4.06 C2.28 4.08, 2.16 4.09, 2.04 4.09 C1.93 4.09, 1.81 4.08, 1.69 4.06 C1.57 4.04, 1.46 4, 1.34 3.96 C1.23 3.92, 1.12 3.87, 1.02 3.81 C0.92 3.75, 0.82 3.68, 0.73 3.61 C0.64 3.53, 0.55 3.45, 0.48 3.36 C0.4 3.27, 0.33 3.17, 0.27 3.07 C0.21 2.96, 0.16 2.85, 0.12 2.74 C0.08 2.63, 0.05 2.51, 0.03 2.4 C0.01 2.28, 0 2.16, 0 2.04 C0 1.93, 0.01 1.81, 0.03 1.69 C0.05 1.57, 0.08 1.46, 0.12 1.34 C0.16 1.23, 0.21 1.12, 0.27 1.02 C0.33 0.92, 0.4 0.82, 0.48 0.73 C0.55 0.64, 0.64 0.55, 0.73 0.48 C0.82 0.4, 0.92 0.33, 1.02 0.27 C1.12 0.21, 1.23 0.16, 1.34 0.12 C1.46 0.08, 1.57 0.05, 1.69 0.03 C1.81 0.01, 1.93 0, 2.04 0 C2.16 0, 2.28 0.01, 2.4 0.03 C2.51 0.05, 2.63 0.08, 2.74 0.12 C2.85 0.16, 2.96 0.21, 3.07 0.27 C3.17 0.33, 3.27 0.4, 3.36 0.48 C3.45 0.55, 3.53 0.64, 3.61 0.73 C3.68 0.82, 3.75 0.92, 3.81 1.02 C3.87 1.12, 3.92 1.23, 3.96 1.34 C4 1.46, 4.04 1.57, 4.06 1.69 C4.08 1.81, 4.08 1.98, 4.09 2.04 C4.09 2.1, 4.09 1.98, 4.09 2.04" stroke="none" stroke-width="0" fill="#40c057"></path><path d="M4.09 2.04 C4.09 2.16, 4.08 2.28, 4.06 2.4 C4.04 2.51, 4 2.63, 3.96 2.74 C3.92 2.85, 3.87 2.96, 3.81 3.07 C3.75 3.17, 3.68 3.27, 3.61 3.36 C3.53 3.45, 3.45 3.53, 3.36 3.61 C3.27 3.68, 3.17 3.75, 3.07 3.81 C2.96 3.87, 2.85 3.92, 2.74 3.96 C2.63 4, 2.51 4.04, 2.4 4.06 C2.28 4.08, 2.16 4.09, 2.04 4.09 C1.93 4.09, 1.81 4.08, 1.69 4.06 C1.57 4.04, 1.46 4, 1.34 3.96 C1.23 3.92, 1.12 3.87, 1.02 3.81 C0.92 3.75, 0.82 3.68, 0.73 3.61 C0.64 3.53, 0.55 3.45, 0.48 3.36 C0.4 3.27, 0.33 3.17, 0.27 3.07 C0.21 2.96, 0.16 2.85, 0.12 2.74 C0.08 2.63, 0.05 2.51, 0.03 2.4 C0.01 2.28, 0 2.16, 0 2.04 C0 1.93, 0.01 1.81, 0.03 1.69 C0.05 1.57, 0.08 1.46, 0.12 1.34 C0.16 1.23, 0.21 1.12, 0.27 1.02 C0.33 0.92, 0.4 0.82, 0.48 0.73 C0.55 0.64, 0.64 0.55, 0.73 0.48 C0.82 0.4, 0.92 0.33, 1.02 0.27 C1.12 0.21, 1.23 0.16, 1.34 0.12 C1.46 0.08, 1.57 0.05, 1.69 0.03 C1.81 0.01, 1.93 0, 2.04 0 C2.16 0, 2.28 0.01, 2.4 0.03 C2.51 0.05, 2.63 0.08, 2.74 0.12 C2.85 0.16, 2.96 0.21, 3.07 0.27 C3.17 0.33, 3.27 0.4, 3.36 0.48 C3.45 0.55, 3.53 0.64, 3.61 0.73 C3.68 0.82, 3.75 0.92, 3.81 1.02 C3.87 1.12, 3.92 1.23, 3.96 1.34 C4 1.46, 4.04 1.57, 4.06 1.69 C4.08 1.81, 4.08 1.98, 4.09 2.04 C4.09 2.1, 4.09 1.98, 4.09 2.04" stroke="#000000" stroke-width="1" fill="none"></path></g><g stroke-opacity="0.9" fill-opacity="0.9" stroke-linecap="round" transform="translate(299.2566515589331 67.71287013074141) rotate(0 17.452623986073604 17.452623986073604)"><path d="M14.8 1.08 C18.43 0.11, 23.07 -0.34, 26.27 1.56 C29.47 3.46, 32.68 8.94, 34 12.49 C35.32 16.03, 35.49 19.33, 34.17 22.83 C32.85 26.33, 29.3 31.51, 26.09 33.47 C22.88 35.44, 18.65 35.27, 14.91 34.62 C11.18 33.97, 6.26 32.36, 3.68 29.59 C1.1 26.83, -0.73 21.9, -0.55 18.02 C-0.36 14.15, 2.26 9.36, 4.78 6.36 C7.3 3.36, 12.73 1.16, 14.57 0.02 C16.41 -1.13, 15.74 -0.94, 15.83 -0.52 M11.15 2.75 C14.69 0.95, 19.42 -0.95, 22.91 -0.16 C26.4 0.62, 30.19 4.51, 32.09 7.45 C33.98 10.4, 34.59 13.82, 34.28 17.51 C33.97 21.21, 32.57 26.93, 30.24 29.63 C27.9 32.32, 24.09 33.15, 20.28 33.68 C16.47 34.21, 10.68 34.83, 7.37 32.82 C4.05 30.8, 1.48 25.58, 0.4 21.61 C-0.67 17.63, -0.72 12.22, 0.89 8.99 C2.51 5.76, 8.63 3.33, 10.08 2.21 C11.53 1.09, 9.67 2.01, 9.61 2.27" stroke="none" stroke-width="0" fill="#04aaf7"></path><path d="M10.04 2.63 C12.82 0.57, 17 -0.87, 20.38 -0.34 C23.76 0.19, 27.79 2.71, 30.32 5.81 C32.85 8.92, 35.57 14.38, 35.55 18.28 C35.53 22.19, 32.73 26.44, 30.19 29.24 C27.64 32.04, 23.88 34.51, 20.29 35.09 C16.69 35.67, 11.82 34.65, 8.62 32.7 C5.42 30.75, 2.21 27.15, 1.09 23.41 C-0.04 19.68, 0.4 13.82, 1.85 10.29 C3.3 6.76, 7.99 3.74, 9.79 2.22 C11.6 0.7, 12.33 1.11, 12.68 1.17 M21.56 0.9 C25.27 1.26, 30.37 3.75, 32.57 6.75 C34.77 9.75, 35.11 15.27, 34.75 18.9 C34.38 22.53, 33.04 26.05, 30.4 28.5 C27.76 30.96, 22.76 33.26, 18.92 33.65 C15.09 34.03, 10.48 32.81, 7.42 30.82 C4.35 28.83, 1.67 25.07, 0.54 21.69 C-0.59 18.32, -1 13.87, 0.63 10.57 C2.25 7.28, 7.02 3.38, 10.3 1.9 C13.58 0.42, 18.63 2.01, 20.3 1.71 C21.98 1.42, 20.42 0.1, 20.37 0.12" stroke="#000000" stroke-width="1" fill="none"></path></g><g stroke-linecap="round"><g transform="translate(321.38131331217664 80.96924529598857) rotate(0 -2.8303917404564345 5.294960225204704)" fill-rule="evenodd"><path d="M0 0 L-1.5 -0.34 L-6.19 -5.12 L-7.96 -4.98 L-9.28 -3.55 L-10.3 1.94 L-9.21 5.51 L-14.24 7.26 L-14.71 9.33 L-14.06 11.15 L-10.12 10.91 L-7.1 7.74 L-2.96 14.6 L-1.22 15.83 L-0.34 14.85 L-3.09 3.92 L-1.24 2.98 L2.58 4.79 L7.55 4.79 L8.83 2.63 L8.83 0.52 L3.45 0.91 L4.48 -4.71 L3.45 -5.11 L2.02 -4.37 L0 0" stroke="none" stroke-width="0" fill="#40c057" fill-rule="evenodd"></path><path d="M0 0 C-0.25 -0.06, -0.46 0.52, -1.5 -0.34 C-2.53 -1.19, -4.89 -4.59, -6.19 -5.12 C-7.48 -5.66, -8.59 -4.73, -9.28 -3.55 C-9.97 -2.38, -10.32 0.43, -10.3 1.94 C-10.29 3.45, -8.55 4.62, -9.21 5.51 C-9.86 6.39, -13.43 6.32, -14.24 7.26 C-15.05 8.2, -14.74 10.54, -14.06 11.15 C-13.37 11.76, -11.27 11.48, -10.12 10.91 C-8.96 10.34, -8.3 7.13, -7.1 7.74 C-5.91 8.36, -4.09 13.42, -2.96 14.6 C-1.83 15.78, -0.32 16.63, -0.34 14.85 C-0.36 13.07, -3.33 5.8, -3.09 3.92 C-2.84 2.04, 0.19 3.41, 1.13 3.55 C2.08 3.7, 1.52 4.59, 2.58 4.79 C3.65 5, 6.51 5.51, 7.55 4.79 C8.59 4.08, 9.51 1.17, 8.83 0.52 C8.14 -0.13, 4.17 1.78, 3.45 0.91 C2.73 0.04, 4.72 -3.83, 4.48 -4.71 C4.24 -5.59, 2.8 -5.03, 2.02 -4.37 C1.24 -3.71, 0.14 -1.48, -0.19 -0.75 C-0.53 -0.03, -0.03 -0.13, 0 0 M0 0 C-0.25 -0.06, -0.46 0.52, -1.5 -0.34 C-2.53 -1.19, -4.89 -4.59, -6.19 -5.12 C-7.48 -5.66, -8.59 -4.73, -9.28 -3.55 C-9.97 -2.38, -10.32 0.43, -10.3 1.94 C-10.29 3.45, -8.55 4.62, -9.21 5.51 C-9.86 6.39, -13.43 6.32, -14.24 7.26 C-15.05 8.2, -14.74 10.54, -14.06 11.15 C-13.37 11.76, -11.27 11.48, -10.12 10.91 C-8.96 10.34, -8.3 7.13, -7.1 7.74 C-5.91 8.36, -4.09 13.42, -2.96 14.6 C-1.83 15.78, -0.32 16.63, -0.34 14.85 C-0.36 13.07, -3.33 5.8, -3.09 3.92 C-2.84 2.04, 0.19 3.41, 1.13 3.55 C2.08 3.7, 1.52 4.59, 2.58 4.79 C3.65 5, 6.51 5.51, 7.55 4.79 C8.59 4.08, 9.51 1.17, 8.83 0.52 C8.14 -0.13, 4.17 1.78, 3.45 0.91 C2.73 0.04, 4.72 -3.83, 4.48 -4.71 C4.24 -5.59, 2.8 -5.03, 2.02 -4.37 C1.24 -3.71, 0.14 -1.48, -0.19 -0.75 C-0.53 -0.03, -0.03 -0.13, 0 0" stroke="#087f5b" stroke-width="1" fill="none"></path></g></g><mask></mask><g stroke-linecap="round"><g stroke-opacity="0.9" fill-opacity="0.9" transform="translate(300.12197606763243 84.84093265004174) rotate(0 17.12749857004144 0.1631269734352827)"><path d="M0.44 1.05 C6.48 0.76, 29.53 -0.38, 35.04 -0.72 M-0.79 0.55 C5.25 0.93, 28.3 0.56, 34.44 0.44" stroke="#000000" stroke-width="1" fill="none"></path></g></g><mask></mask><g stroke-linecap="round"><g stroke-opacity="0.9" fill-opacity="0.9" transform="translate(304.285198915652 72.229895541019) rotate(0 11.977626191752165 2.1469363403690522)"><path d="M0 0 C0.11 0.31, 0.07 1.29, 0.63 1.86 C1.19 2.43, 2.3 3, 3.35 3.42 C4.41 3.84, 5.43 4.19, 6.97 4.37 C8.52 4.54, 10.6 4.54, 12.65 4.45 C14.7 4.37, 17.52 4.32, 19.27 3.85 C21.02 3.39, 22.36 2.34, 23.14 1.66 C23.92 0.98, 23.82 0.1, 23.96 -0.21 M0 0 C0.11 0.31, 0.07 1.29, 0.63 1.86 C1.19 2.43, 2.3 3, 3.35 3.42 C4.41 3.84, 5.43 4.19, 6.97 4.37 C8.52 4.54, 10.6 4.54, 12.65 4.45 C14.7 4.37, 17.52 4.32, 19.27 3.85 C21.02 3.39, 22.36 2.34, 23.14 1.66 C23.92 0.98, 23.82 0.1, 23.96 -0.21" stroke="#000000" stroke-width="1" fill="none"></path></g></g><mask></mask><g stroke-opacity="0.9" fill-opacity="0.9" stroke-linecap="round" transform="translate(310.8821254440534 66.58325143323418) rotate(0 6.343882045211899 18.311402318586715)"><path d="M3.52 1.69 C4.62 0, 7.06 -0.02, 8.46 1.13 C9.87 2.29, 11.24 5.34, 11.98 8.63 C12.71 11.92, 12.96 17.18, 12.85 20.89 C12.74 24.6, 12.46 28.15, 11.32 30.9 C10.18 33.64, 7.37 37.02, 6.03 37.36 C4.69 37.7, 4.13 35.47, 3.28 32.92 C2.43 30.38, 1.28 25.87, 0.93 22.07 C0.57 18.26, 0.47 13.55, 1.13 10.08 C1.8 6.62, 4.3 2.6, 4.89 1.26 C5.49 -0.09, 4.83 1.74, 4.71 2 M6.73 -0.93 C7.9 -0.64, 9.69 2, 10.65 5.01 C11.61 8.02, 12.51 12.99, 12.49 17.12 C12.46 21.25, 11.2 26.59, 10.5 29.78 C9.8 32.98, 9.68 35.33, 8.29 36.3 C6.89 37.28, 3.62 37.62, 2.14 35.62 C0.67 33.61, -0.1 28.19, -0.57 24.26 C-1.04 20.34, -1.17 15.84, -0.69 12.07 C-0.22 8.31, 1.02 3.88, 2.26 1.66 C3.51 -0.55, 5.95 -1.12, 6.79 -1.22 C7.63 -1.31, 7.04 0.53, 7.32 1.09" stroke="#000000" stroke-width="1" fill="none"></path></g><g stroke-linecap="round"><g stroke-opacity="0.9" fill-opacity="0.9" transform="translate(305.52383216671114 98.16121146101455) rotate(0 11.977626191752165 -2.2164288692768537)"><path d="M0 0 C0.56 -0.59, 2.19 -2.78, 3.35 -3.53 C4.52 -4.28, 5.43 -4.33, 6.97 -4.51 C8.52 -4.68, 10.6 -4.68, 12.65 -4.6 C14.7 -4.51, 17.52 -4.46, 19.27 -3.97 C21.02 -3.49, 22.36 -2.41, 23.14 -1.72 C23.92 -1.02, 23.82 -0.1, 23.96 0.22 M0 0 C0.56 -0.59, 2.19 -2.78, 3.35 -3.53 C4.52 -4.28, 5.43 -4.33, 6.97 -4.51 C8.52 -4.68, 10.6 -4.68, 12.65 -4.6 C14.7 -4.51, 17.52 -4.46, 19.27 -3.97 C21.02 -3.49, 22.36 -2.41, 23.14 -1.72 C23.92 -1.02, 23.82 -0.1, 23.96 0.22" stroke="#000000" stroke-width="1" fill="none"></path></g></g><mask></mask><g transform="translate(254.24288721083644 229.35189233584674) rotate(0 84.11111450195312 12.5)"><text x="0" y="0" font-family="Virgil, Segoe UI Emoji" font-size="20px" fill="#000000" text-anchor="start" style="white-space: pre;" direction="ltr" dominant-baseline="text-before-edge">primary controller</text></g><g transform="translate(366.2523641482901 168.68009232805935) rotate(0 98.16666412353516 12.5)"><text x="0" y="0" font-family="Virgil, Segoe UI Emoji" font-size="20px" fill="#000000" text-anchor="start" style="white-space: pre;" direction="ltr" dominant-baseline="text-before-edge">secondary controller</text></g><g transform="translate(274.4668205467656 10) rotate(0 43.203704833984375 12.5)"><text x="0" y="0" font-family="Virgil, Segoe UI Emoji" font-size="20px" fill="#000000" text-anchor="start" style="white-space: pre;" direction="ltr" dominant-baseline="text-before-edge">UI client</text></g><g transform="translate(109.56397949995858 249.57582567177576) rotate(0 47.296295166015625 12.5)"><text x="0" y="0" font-family="Virgil, Segoe UI Emoji" font-size="20.000000000000007px" fill="#000000" text-anchor="start" style="white-space: pre;" direction="ltr" dominant-baseline="text-before-edge">database</text></g><g transform="translate(80.00592308590831 55.11492821091895) rotate(0 56.03703689575195 12.5)"><text x="0" y="0" font-family="Virgil, Segoe UI Emoji" font-size="20px" fill="#000000" text-anchor="start" style="white-space: pre;" direction="ltr" dominant-baseline="text-before-edge">data store</text></g><g transform="translate(10 306.80331285925) rotate(0 300.6851806640625 17.5)"><text x="0" y="0" font-family="Virgil, Segoe UI Emoji" font-size="28px" fill="#000000" text-anchor="start" style="white-space: pre;" direction="ltr" dominant-baseline="text-before-edge">components of distributed computing system</text></g></svg>