<svg version="1.1" xmlns="http://www.w3.org/2000/svg" viewBox="0 0 487.8188130585904 294.2906769555834" width="487.8188130585904" height="294.2906769555834" filter="invert(93%) hue-rotate(180deg)">
  <!-- svg-source:excalidraw -->
  
  <defs>
    <style class="style-fonts">
      @font-face {
        font-family: "Virgil";
        src: url("https://excalidraw.com/Virgil.woff2");
      }
      @font-face {
        font-family: "Cascadia";
        src: url("https://excalidraw.com/Cascadia.woff2");
      }
    </style>
  </defs>
  <g stroke-linecap="round" transform="translate(281.7116891474809 48.775211053891326) rotate(0 40.78094360564069 38.5)"><path d="M58.59 2.99 C65.14 5.38, 72.34 12.47, 76.33 18.32 C80.33 24.18, 82.97 31.05, 82.55 38.09 C82.13 45.14, 78.04 54.68, 73.81 60.58 C69.59 66.47, 63.89 70.74, 57.2 73.45 C50.5 76.16, 40.79 77.81, 33.62 76.84 C26.45 75.86, 19.47 72.31, 14.16 67.62 C8.86 62.92, 3.93 55.46, 1.81 48.67 C-0.31 41.88, -0.7 33.62, 1.44 26.87 C3.57 20.11, 8.9 12.58, 14.64 8.14 C20.37 3.71, 27.64 0.39, 35.83 0.26 C44.01 0.13, 58.27 5.27, 63.76 7.34 C69.25 9.42, 69.09 12.25, 68.77 12.7 M44.07 -0.51 C51.29 -0.33, 60.35 4.05, 66.28 8.61 C72.22 13.16, 77.48 20.17, 79.68 26.8 C81.87 33.44, 81.09 41.95, 79.43 48.41 C77.77 54.88, 75.09 60.9, 69.73 65.61 C64.37 70.33, 54.64 75.46, 47.26 76.7 C39.88 77.95, 32.19 75.65, 25.43 73.09 C18.66 70.53, 10.98 67.01, 6.67 61.33 C2.36 55.65, -0.39 46.33, -0.42 39.01 C-0.45 31.7, 2.9 23.17, 6.51 17.44 C10.13 11.72, 14.67 7.5, 21.26 4.67 C27.84 1.84, 41.86 0.86, 46.03 0.47 C50.21 0.08, 46.61 1.94, 46.32 2.33" stroke="#364fc7" stroke-width="4" fill="none"></path></g><g stroke-linecap="round" transform="translate(245.2438530213126 27.15716918307794) rotate(0 94.84101853979189 77.68384935671372)"><path d="M59.06 5.58 C69.75 0.39, 84.32 -0.92, 96.94 -0.56 C109.56 -0.21, 123.14 3.15, 134.78 7.73 C146.42 12.3, 158.21 18.98, 166.78 26.9 C175.35 34.82, 182.46 45.14, 186.2 55.24 C189.94 65.34, 190.84 77.07, 189.22 87.51 C187.61 97.94, 183.34 108.97, 176.48 117.87 C169.63 126.77, 158.8 134.78, 148.08 140.9 C137.35 147.02, 124.65 152.55, 112.11 154.57 C99.58 156.59, 85.45 155.61, 72.86 153.01 C60.28 150.4, 46.85 145.15, 36.59 138.93 C26.33 132.71, 17.29 124.69, 11.3 115.69 C5.31 106.69, 1.52 95.56, 0.65 84.93 C-0.22 74.29, 1.95 61.95, 6.08 51.89 C10.21 41.83, 15.56 32.45, 25.42 24.57 C35.28 16.7, 57.4 8.19, 65.26 4.64 C73.12 1.08, 72.07 2.29, 72.58 3.24 M127.78 3.77 C139.4 6.03, 150.55 14.98, 159.63 22.44 C168.71 29.9, 177.09 38.89, 182.26 48.5 C187.43 58.12, 190.85 69.46, 190.66 80.13 C190.47 90.81, 187.14 103.01, 181.13 112.54 C175.12 122.06, 164.88 130.43, 154.59 137.3 C144.31 144.17, 131.55 150.61, 119.39 153.74 C107.24 156.88, 94.16 157.66, 81.65 156.09 C69.14 154.51, 55.41 150.38, 44.32 144.29 C33.23 138.2, 22.09 128.37, 15.11 119.55 C8.14 110.73, 4.52 101.74, 2.47 91.35 C0.43 80.97, -0.29 67.41, 2.84 57.22 C5.98 47.03, 13.32 38.19, 21.29 30.21 C29.26 22.24, 39.68 14.2, 50.67 9.38 C61.66 4.56, 74.25 1.88, 87.24 1.29 C100.23 0.69, 122.16 4.76, 128.62 5.81 C135.08 6.85, 126.78 6.3, 126.02 7.55" stroke="#862e9c" stroke-width="4" fill="none"></path></g><g transform="translate(288.13677597900687 82.31853193441066) rotate(0 32.550373541000226 6.742309705984553)"><text x="0" y="0" font-family="Virgil, Segoe UI Emoji" font-size="10.787695529575274px" fill="#364fc7" text-anchor="start" style="white-space: pre;" direction="ltr" dominant-baseline="text-before-edge">architecture</text></g><g transform="translate(288.13677597900687 135.81924067590444) rotate(0 59.27221028893757 8.988203981724496)"><text x="0" y="0" font-family="Virgil, Segoe UI Emoji" font-size="14.381126370759201px" fill="#862e9c" text-anchor="start" style="white-space: pre;" direction="ltr" dominant-baseline="text-before-edge">operating system</text></g><g stroke-linecap="round" transform="translate(229.9930359696873 10) rotate(0 123.91288854445145 108.1854834599634)"><path d="M73.87 10.1 C85.3 3.88, 101.39 1.22, 115.4 0.21 C129.42 -0.81, 144.39 0.49, 157.98 4.01 C171.56 7.52, 185.51 14.16, 196.9 21.29 C208.28 28.42, 218.48 36.78, 226.27 46.76 C234.06 56.75, 240.27 69.2, 243.63 81.19 C246.99 93.19, 247.64 106.54, 246.43 118.74 C245.21 130.94, 242.52 143.27, 236.36 154.39 C230.2 165.52, 219.86 176.7, 209.49 185.48 C199.11 194.26, 186.94 202.08, 174.11 207.07 C161.27 212.06, 146.43 214.4, 132.47 215.43 C118.5 216.45, 103.66 216.35, 90.3 213.19 C76.94 210.04, 63.76 203.73, 52.29 196.51 C40.82 189.29, 29.74 180.15, 21.5 169.87 C13.27 159.59, 6.32 147.04, 2.88 134.82 C-0.56 122.59, -0.52 108.62, 0.89 96.52 C2.29 84.41, 5.24 73.03, 11.29 62.18 C17.34 51.34, 25 40.99, 37.19 31.46 C49.38 21.92, 74.67 9.43, 84.42 4.99 C94.17 0.55, 95.15 3.11, 95.69 4.81 M133.37 1.46 C146.69 0.47, 161.98 3.95, 174.86 8.92 C187.75 13.88, 200.44 22.4, 210.67 31.25 C220.89 40.1, 230.2 50.68, 236.21 62.01 C242.22 73.35, 245.26 87.25, 246.74 99.27 C248.22 111.29, 248.67 122.45, 245.09 134.13 C241.51 145.81, 233.65 159.04, 225.25 169.36 C216.86 179.68, 205.99 188.91, 194.73 196.03 C183.47 203.15, 171.32 208.62, 157.68 212.11 C144.04 215.59, 127.07 218.02, 112.89 216.93 C98.71 215.83, 85.37 211.06, 72.61 205.54 C59.85 200.02, 46.33 192.5, 36.33 183.82 C26.32 175.14, 18.33 164.48, 12.59 153.46 C6.84 142.45, 3.36 129.8, 1.87 117.75 C0.38 105.7, 0.52 93.13, 3.64 81.18 C6.76 69.24, 12.68 56.09, 20.58 46.08 C28.49 36.06, 39.36 28.29, 51.07 21.08 C62.77 13.87, 76.86 6.4, 90.81 2.8 C104.75 -0.8, 127.51 -0.48, 134.72 -0.52 C141.92 -0.56, 134.41 0.4, 134.04 2.53" stroke="#5f3dc4" stroke-width="4" fill="none"></path></g><g transform="translate(294.8090084390931 193.3613228737206) rotate(0 59.599304918910434 7.44130070857193)"><text x="0" y="0" font-family="Virgil, Segoe UI Emoji" font-size="11.906081133715066px" fill="#5f3dc4" text-anchor="start" style="white-space: pre;" direction="ltr" dominant-baseline="text-before-edge">application software</text></g><g transform="translate(77.6755006665851 35.16384813518084) rotate(0 27.407407760620117 10)"><text x="0" y="0" font-family="Virgil, Segoe UI Emoji" font-size="16px" fill="#000000" text-anchor="start" style="white-space: pre;" direction="ltr" dominant-baseline="text-before-edge">problem</text></g><g transform="translate(10 144.0165548411528) rotate(0 61.06332174497675 14.632436296234118)"><text x="0" y="0" font-family="Virgil, Segoe UI Emoji" font-size="11.70594903698732px" fill="#000000" text-anchor="start" style="white-space: pre;" direction="ltr" dominant-baseline="text-before-edge">algorithms </text><text x="0" y="14.63243629623415" font-family="Virgil, Segoe UI Emoji" font-size="11.70594903698732px" fill="#000000" text-anchor="start" style="white-space: pre;" direction="ltr" dominant-baseline="text-before-edge">and data structures</text></g><g stroke-linecap="round"><g stroke-opacity="0.9" fill-opacity="0.9" transform="translate(243.46318733636326 173.50029327391917) rotate(0 -53.8219733302293 -0.3619159599664954)"><path d="M0 0 C-37.71 -0.25, -75.41 -0.51, -107.64 -0.72 M0 0 C-30.88 -0.21, -61.77 -0.42, -107.64 -0.72" stroke="#000000" stroke-width="1" fill="none"></path></g><g stroke-opacity="0.9" fill-opacity="0.9" transform="translate(243.46318733636326 173.50029327391917) rotate(0 -53.8219733302293 -0.3619159599664954)"><path d="M-28.26 10.07 C-18.36 6.54, -8.46 3.02, 0 0 M-28.26 10.07 C-20.15 7.18, -12.04 4.29, 0 0" stroke="#000000" stroke-width="1" fill="none"></path></g><g stroke-opacity="0.9" fill-opacity="0.9" transform="translate(243.46318733636326 173.50029327391917) rotate(0 -53.8219733302293 -0.3619159599664954)"><path d="M-28.12 -10.45 C-18.27 -6.79, -8.42 -3.13, 0 0 M-28.12 -10.45 C-20.05 -7.45, -11.98 -4.45, 0 0" stroke="#000000" stroke-width="1" fill="none"></path></g><g stroke-opacity="0.9" fill-opacity="0.9" transform="translate(243.46318733636326 173.50029327391917) rotate(0 -53.8219733302293 -0.3619159599664954)"><path d="M-79.38 -10.79 C-89.28 -7.27, -99.18 -3.74, -107.64 -0.72 M-79.38 -10.79 C-87.49 -7.91, -95.6 -5.02, -107.64 -0.72" stroke="#000000" stroke-width="1" fill="none"></path></g><g stroke-opacity="0.9" fill-opacity="0.9" transform="translate(243.46318733636326 173.50029327391917) rotate(0 -53.8219733302293 -0.3619159599664954)"><path d="M-79.52 9.73 C-89.37 6.07, -99.22 2.41, -107.64 -0.72 M-79.52 9.73 C-87.59 6.73, -95.66 3.73, -107.64 -0.72" stroke="#000000" stroke-width="1" fill="none"></path></g></g><mask></mask><g transform="translate(152.02323379325617 140.20385057824637) rotate(0 27.77777862548828 10)"><text x="0" y="0" font-family="Virgil, Segoe UI Emoji" font-size="16px" fill="#000000" text-anchor="start" style="white-space: pre;" direction="ltr" dominant-baseline="text-before-edge">mapping</text></g><g stroke-opacity="0.9" fill-opacity="0.9" stroke-linecap="round" transform="translate(71.95644427222578 30.01669738025771) rotate(0 35.74410246474554 16.203993117351388)"><path d="M8.1 0 M8.1 0 C29.25 0, 50.4 0, 63.39 0 M8.1 0 C28.43 0, 48.76 0, 63.39 0 M63.39 0 C68.79 0, 71.49 2.7, 71.49 8.1 M63.39 0 C68.79 0, 71.49 2.7, 71.49 8.1 M71.49 8.1 C71.49 12.63, 71.49 17.16, 71.49 24.31 M71.49 8.1 C71.49 12.51, 71.49 16.91, 71.49 24.31 M71.49 24.31 C71.49 29.71, 68.79 32.41, 63.39 32.41 M71.49 24.31 C71.49 29.71, 68.79 32.41, 63.39 32.41 M63.39 32.41 C42.25 32.41, 21.11 32.41, 8.1 32.41 M63.39 32.41 C42.6 32.41, 21.81 32.41, 8.1 32.41 M8.1 32.41 C2.7 32.41, 0 29.71, 0 24.31 M8.1 32.41 C2.7 32.41, 0 29.71, 0 24.31 M0 24.31 C0 20.62, 0 16.92, 0 8.1 M0 24.31 C0 19.09, 0 13.88, 0 8.1 M0 8.1 C0 2.7, 2.7 0, 8.1 0 M0 8.1 C0 2.7, 2.7 0, 8.1 0" stroke="#000000" stroke-width="1" fill="none"></path></g><g stroke-opacity="0.9" fill-opacity="0.9" transform="translate(328.1701707395232 244.29067695558342) rotate(0 50.03703689575195 20)"><text x="0" y="0" font-family="Virgil, Segoe UI Emoji" font-size="16px" fill="#000000" text-anchor="start" style="white-space: pre;" direction="ltr" dominant-baseline="text-before-edge">performance </text><text x="0" y="20" font-family="Virgil, Segoe UI Emoji" font-size="16px" fill="#000000" text-anchor="start" style="white-space: pre;" direction="ltr" dominant-baseline="text-before-edge">evaluation</text></g></svg>