<svg xmlns="http://www.w3.org/2000/svg" width="254.073" height="241.689" filter="invert(93%) hue-rotate(180deg)" version="1.1" viewBox="0 0 254.073 241.689"><defs><style class="style-fonts">@font-face{font-family:&quot;Virgil&quot;;src:url(https://excalidraw.com/Virgil.woff2)}@font-face{font-family:&quot;Cascadia&quot;;src:url(https://excalidraw.com/Cascadia.woff2)}</style></defs><rect width="254.073" height="241.689" x="0" y="0" fill="#fff"/><g stroke-linecap="round"><path fill="none" stroke="#000" stroke-width="2" d="M0 0 C35.64 0, 71.28 0, 97.37 0 M0 0 C38.1 0, 76.2 0, 97.37 0 M97.37 0 C97.37 23.51, 97.37 47.03, 97.37 60 M97.37 0 C97.37 16.67, 97.37 33.33, 97.37 60 M97.37 60 C73.79 60, 50.2 60, 0 60 M97.37 60 C70.14 60, 42.9 60, 0 60 M0 60 C0 39.09, 0 18.18, 0 0 M0 60 C0 40.38, 0 20.76, 0 0" transform="translate(14.415580152889788 10.259128057676719) rotate(0 48.68709598568853 30)"/></g><g><text x="38.13" y="0" fill="#000" direction="ltr" dominant-baseline="text-before-edge" font-family="Virgil, Segoe UI Emoji" font-size="16" text-anchor="middle" style="white-space:pre" transform="translate(24.97304509609785 30.25912805767672) rotate(0 38.12963104248047 10)">Processor</text></g><g stroke-linecap="round"><path fill="none" stroke="#000" stroke-width="2" d="M0 0 C25.52 0, 51.04 0, 103 0 M0 0 C38.91 0, 77.82 0, 103 0 M103 0 C103 21.47, 103 42.94, 103 58 M103 0 C103 15.4, 103 30.81, 103 58 M103 58 C80.88 58, 58.75 58, 0 58 M103 58 C75.83 58, 48.66 58, 0 58 M0 58 C0 44.44, 0 30.88, 0 0 M0 58 C0 36.52, 0 15.05, 0 0" transform="translate(136.13332011711123 10) rotate(0 51.5 29)"/></g><g><text x="38.13" y="0" fill="#000" direction="ltr" dominant-baseline="text-before-edge" font-family="Virgil, Segoe UI Emoji" font-size="16" text-anchor="middle" style="white-space:pre" transform="translate(149.50368907463076 29) rotate(0 38.12963104248047 10)">Processor</text></g><g stroke-linecap="round"><g><path fill="none" stroke="#000" stroke-width="1" d="M0 0 C0.16 17.08, 0.32 34.15, 0.41 44.08 M0 0 C0.09 9.39, 0.17 18.77, 0.41 44.08" transform="translate(61.45231568997792 71.25912805767672) rotate(0 0.2033794805844309 22.039484977037205)"/></g><g><path fill="none" stroke="#000" stroke-width="1" d="M-7.32 23.44 C-4.33 31.43, -1.33 39.43, 0.41 44.08 M-7.32 23.44 C-5.68 27.83, -4.03 32.23, 0.41 44.08" transform="translate(61.45231568997792 71.25912805767672) rotate(0 0.2033794805844309 22.039484977037205)"/></g><g><path fill="none" stroke="#000" stroke-width="1" d="M7.75 23.3 C4.91 31.35, 2.06 39.4, 0.41 44.08 M7.75 23.3 C6.19 27.72, 4.62 32.15, 0.41 44.08" transform="translate(61.45231568997792 71.25912805767672) rotate(0 0.2033794805844309 22.039484977037205)"/></g></g><g stroke-linecap="round"><g><path fill="none" stroke="#000" stroke-width="1" d="M0 0 C-0.1 17.96, -0.2 35.92, -0.25 45.61 M0 0 C-0.07 12.97, -0.14 25.94, -0.25 45.61" transform="translate(190.2000402074666 69.36519359725361) rotate(0 -0.1274280260361138 22.803855408621956)"/></g><g><path fill="none" stroke="#000" stroke-width="1" d="M-7.93 24.14 C-4.91 32.59, -1.89 41.05, -0.25 45.61 M-7.93 24.14 C-5.75 30.24, -3.57 36.35, -0.25 45.61" transform="translate(190.2000402074666 69.36519359725361) rotate(0 -0.1274280260361138 22.803855408621956)"/></g><g><path fill="none" stroke="#000" stroke-width="1" d="M7.66 24.22 C4.55 32.65, 1.43 41.07, -0.25 45.61 M7.66 24.22 C5.41 30.3, 3.16 36.39, -0.25 45.61" transform="translate(190.2000402074666 69.36519359725361) rotate(0 -0.1274280260361138 22.803855408621956)"/></g></g><g stroke-linecap="round"><path fill="none" stroke="#000" stroke-width="2" d="M0 0 C59.65 0, 119.29 0, 234.07 0 M0 0 C55.46 0, 110.93 0, 234.07 0 M234.07 0 C234.07 17.63, 234.07 35.26, 234.07 50.56 M234.07 0 C234.07 19.1, 234.07 38.19, 234.07 50.56 M234.07 50.56 C180.73 50.56, 127.39 50.56, 0 50.56 M234.07 50.56 C172.33 50.56, 110.59 50.56, 0 50.56 M0 50.56 C0 32.63, 0 14.69, 0 0 M0 50.56 C0 31.83, 0 13.1, 0 0" transform="translate(10 181.12895836345825) rotate(0 117.03628842713624 25.279838300261446)"/></g><g stroke-linecap="round"><g><path fill="none" stroke="#000" stroke-width="1" d="M0 0 C0.44 9.23, 0.88 18.46, 1.26 26.51 M0 0 C0.47 9.86, 0.94 19.72, 1.26 26.51" transform="translate(127.78874164696481 153.61854445253948) rotate(0 0.6288761811476888 13.255206955459386)"/></g><g><path fill="none" stroke="#000" stroke-width="1" d="M-3.87 14.27 C-2.08 18.53, -0.3 22.79, 1.26 26.51 M-3.87 14.27 C-1.96 18.82, -0.06 23.37, 1.26 26.51" transform="translate(127.78874164696481 153.61854445253948) rotate(0 0.6288761811476888 13.255206955459386)"/></g><g><path fill="none" stroke="#000" stroke-width="1" d="M5.2 13.84 C3.83 18.25, 2.45 22.66, 1.26 26.51 M5.2 13.84 C3.73 18.55, 2.27 23.26, 1.26 26.51" transform="translate(127.78874164696481 153.61854445253948) rotate(0 0.6288761811476888 13.255206955459386)"/></g></g><g><text x="16.389" y="0" fill="#000" direction="ltr" dominant-baseline="text-before-edge" font-family="Virgil, Segoe UI Emoji" font-size="16" text-anchor="middle" style="white-space:pre" transform="translate(109.72225882397697 124.76299293347165) rotate(0 16.38888931274414 10)">BUS</text></g><g stroke-linecap="round"><g><path fill="none" stroke="#000" stroke-width="1" d="M0 0 C30.17 -0.21, 60.33 -0.41, 131.89 -0.9 M0 0 C46.29 -0.31, 92.59 -0.63, 131.89 -0.9" transform="translate(60.615063825642665 145.39874552463328) rotate(0 65.94468762827739 -0.4486033171991437)"/></g></g><g stroke-linecap="round"><g><path fill="none" stroke="#000" stroke-width="1" d="M0 0 C30.17 -0.21, 60.33 -0.41, 131.89 -0.9 M0 0 C46.29 -0.31, 92.59 -0.63, 131.89 -0.9" transform="translate(59.26925387404526 124.31438961627248) rotate(0 65.94468762827739 -0.4486033171991437)"/></g></g><g><text x="61.481" y="0" fill="#000" direction="ltr" dominant-baseline="text-before-edge" font-family="Virgil, Segoe UI Emoji" font-size="16" text-anchor="middle" style="white-space:pre" transform="translate(57.452015416759195 198.3339369541348) rotate(0 61.48147964477539 10)">Shared Storage</text></g></svg>