<svg xmlns="http://www.w3.org/2000/svg" width="313.54" height="226.248" filter="invert(93%) hue-rotate(180deg)" version="1.1" viewBox="0 0 313.54 226.248"><defs><style class="style-fonts">@font-face{font-family:&quot;Virgil&quot;;src:url(https://excalidraw.com/Virgil.woff2)}@font-face{font-family:&quot;Cascadia&quot;;src:url(https://excalidraw.com/Cascadia.woff2)}</style></defs><rect width="313.54" height="226.248" x="0" y="0" fill="#fff"/><g stroke-linecap="round"><g><path fill="none" stroke="#000" stroke-width="4" d="M0.55 1.09 C-34.45 54.62, -71.16 109.9, -94.72 140.01 M-0.76 0.35 C-19.94 29.44, -39.07 60.49, -93.14 140.73 M-91.75 141.63 C-34.29 139.08, 22.15 140.19, 96.67 140.18 M-92.11 139.87 C-24.75 137.03, 42.47 137.26, 97.75 137.99 M98.68 139.52 C76.11 106.34, 54.1 73.56, -1.92 -0.35 M97.6 138.3 C65.27 90.67, 33.01 43.89, -0.71 -0.59" transform="translate(147.83926470693518 38.54474976011761) rotate(0 1.9787783650932624 70.5213099280165)"/></g></g><g><text x="31.87" y="0" fill="#000" direction="ltr" dominant-baseline="text-before-edge" font-family="Virgil, Segoe UI Emoji" font-size="17.44" text-anchor="middle" style="white-space:pre" transform="translate(10 194.44859427688854) rotate(0 31.870370864868164 10.899762113969459)">Passion</text></g><g><text x="35.463" y="0" fill="#000" direction="ltr" dominant-baseline="text-before-edge" font-family="Virgil, Segoe UI Emoji" font-size="17.44" text-anchor="middle" style="white-space:pre" transform="translate(111.07915604658456 10) rotate(0 35.46296310424805 10.899762113969444)">Intimacy</text></g><g><text x="47.611" y="0" fill="#000" direction="ltr" dominant-baseline="text-before-edge" font-family="Virgil, Segoe UI Emoji" font-size="17.44" text-anchor="middle" style="white-space:pre" transform="translate(208.31770036602575 189.5839599920194) rotate(0 47.61111068725586 10.899762113969459)">Commitment</text></g></svg>