<svg version="1.1" xmlns="http://www.w3.org/2000/svg" viewBox="0 0 747.4486534658008 400.1706548876118" width="747.4486534658008" height="400.1706548876118" filter="invert(93%) hue-rotate(180deg)">
  <!-- svg-source:excalidraw -->
  
  <defs>
    <style class="style-fonts">
      @font-face {
        font-family: "Virgil";
        src: url("https://excalidraw.com/Virgil.woff2");
      }
      @font-face {
        font-family: "Cascadia";
        src: url("https://excalidraw.com/Cascadia.woff2");
      }
    </style>
  </defs>
  <g stroke-linecap="round" transform="translate(185.16005380655452 272.16183850547804) rotate(0 43 15)"><path d="M7.5 0 M7.5 0 C26.81 0, 46.12 0, 78.5 0 M7.5 0 C23.9 0, 40.31 0, 78.5 0 M78.5 0 C83.5 0, 86 2.5, 86 7.5 M78.5 0 C83.5 0, 86 2.5, 86 7.5 M86 7.5 C86 10.62, 86 13.74, 86 22.5 M86 7.5 C86 11.31, 86 15.12, 86 22.5 M86 22.5 C86 27.5, 83.5 30, 78.5 30 M86 22.5 C86 27.5, 83.5 30, 78.5 30 M78.5 30 C50.39 30, 22.29 30, 7.5 30 M78.5 30 C60.44 30, 42.38 30, 7.5 30 M7.5 30 C2.5 30, 0 27.5, 0 22.5 M7.5 30 C2.5 30, 0 27.5, 0 22.5 M0 22.5 C0 16.76, 0 11.02, 0 7.5 M0 22.5 C0 17.34, 0 12.18, 0 7.5 M0 7.5 C0 2.5, 2.5 0, 7.5 0 M0 7.5 C0 2.5, 2.5 0, 7.5 0" stroke="#ff2000" stroke-width="1" fill="none"></path></g><g transform="translate(197.6785722544305 277.16183850547804) rotate(0 30.481481552124023 10)"><text x="30.481481552124023" y="0" font-family="Virgil, Segoe UI Emoji" font-size="16px" fill="#ff2000" text-anchor="middle" style="white-space: pre;" direction="ltr" dominant-baseline="text-before-edge">threats</text></g><g stroke-linecap="round" transform="translate(427.8536444123149 268.85286763547015) rotate(0 46.5 30)"><path d="M15 0 M15 0 C34.82 0, 54.64 0, 78 0 M15 0 C32.19 0, 49.38 0, 78 0 M78 0 C88 0, 93 5, 93 15 M78 0 C88 0, 93 5, 93 15 M93 15 C93 21.44, 93 27.88, 93 45 M93 15 C93 25.59, 93 36.19, 93 45 M93 45 C93 55, 88 60, 78 60 M93 45 C93 55, 88 60, 78 60 M78 60 C54.78 60, 31.56 60, 15 60 M78 60 C59.93 60, 41.86 60, 15 60 M15 60 C5 60, 0 55, 0 45 M15 60 C5 60, 0 55, 0 45 M0 45 C0 34.2, 0 23.39, 0 15 M0 45 C0 37.86, 0 30.72, 0 15 M0 15 C0 5, 5 0, 15 0 M0 15 C0 5, 5 0, 15 0" stroke="#e67790" stroke-width="1" fill="none"></path></g><g transform="translate(450.83512596443893 281.35286763547015) rotate(0 23.518518447875977 17.5)"><text x="23.518518447875977" y="0" font-family="Virgil, Segoe UI Emoji" font-size="28px" fill="#e67790" text-anchor="middle" style="white-space: pre;" direction="ltr" dominant-baseline="text-before-edge">risk</text></g><g stroke-linecap="round" transform="translate(285.7977295171893 209.43458117972705) rotate(0 55.5 20)"><path d="M10 0 M10 0 C36.58 0, 63.15 0, 101 0 M10 0 C43.25 0, 76.49 0, 101 0 M101 0 C107.67 0, 111 3.33, 111 10 M101 0 C107.67 0, 111 3.33, 111 10 M111 10 C111 14.78, 111 19.56, 111 30 M111 10 C111 16.1, 111 22.2, 111 30 M111 30 C111 36.67, 107.67 40, 101 40 M111 30 C111 36.67, 107.67 40, 101 40 M101 40 C66.54 40, 32.08 40, 10 40 M101 40 C77.34 40, 53.67 40, 10 40 M10 40 C3.33 40, 0 36.67, 0 30 M10 40 C3.33 40, 0 36.67, 0 30 M0 30 C0 24.54, 0 19.09, 0 10 M0 30 C0 24.21, 0 18.41, 0 10 M0 10 C0 3.33, 3.33 0, 10 0 M0 10 C0 3.33, 3.33 0, 10 0" stroke="#ff2000" stroke-width="1" fill="none"></path></g><g transform="translate(295.6125450384295 219.43458117972705) rotate(0 45.685184478759766 10)"><text x="45.685184478759766" y="0" font-family="Virgil, Segoe UI Emoji" font-size="16px" fill="#ff2000" text-anchor="middle" style="white-space: pre;" direction="ltr" dominant-baseline="text-before-edge">vulnerability</text></g><g stroke-linecap="round"><g transform="translate(127.64506122787247 318.191737352204) rotate(0 23.94900069780863 -17.059062215103722)"><path d="M0 0 C-0.03 -4.4, -8.82 -20.72, -0.18 -26.41 C8.47 -32.09, 43.2 -32.83, 51.88 -34.12 M0 0 C-0.03 -4.4, -8.82 -20.72, -0.18 -26.41 C8.47 -32.09, 43.2 -32.83, 51.88 -34.12" stroke="#000000" stroke-width="1" fill="none"></path></g><g transform="translate(127.64506122787247 318.191737352204) rotate(0 23.94900069780863 -17.059062215103722)"><path d="M28.02 -23.03 C34.49 -26.04, 40.97 -29.05, 51.88 -34.12 M28.02 -23.03 C34.82 -26.19, 41.62 -29.35, 51.88 -34.12" stroke="#000000" stroke-width="1" fill="none"></path></g><g transform="translate(127.64506122787247 318.191737352204) rotate(0 23.94900069780863 -17.059062215103722)"><path d="M26.47 -40.96 C33.37 -39.1, 40.26 -37.25, 51.88 -34.12 M26.47 -40.96 C33.72 -39.01, 40.96 -37.06, 51.88 -34.12" stroke="#000000" stroke-width="1" fill="none"></path></g></g><mask></mask><g stroke-linecap="round" transform="translate(64.91823267626751 318.3702350671367) rotate(0 76.27532316148313 14.165417158561127)"><path d="M9.16 0.7 L149.37 1.53 L148.32 6.42 L149.79 28.22 L145.31 31.13 L3.51 29.78 L-2.77 24.45 L3.9 6.76 L0.13 -1.09 L10.97 -1.71" stroke="none" stroke-width="0" fill="#ced4da"></path><path d="M7.08 0 M7.08 0 C63.63 0.94, 113.74 -0.81, 145.47 0 M7.08 0 C51.46 -2.97, 95.11 -3.41, 145.47 0 M145.47 0 C149.98 3.64, 149.52 1.94, 152.55 7.08 M145.47 0 C146 4.28, 148.03 4.61, 152.55 7.08 M152.55 7.08 C151.03 11.24, 150.82 15.36, 152.55 21.25 M152.55 7.08 C151.71 12.27, 153.73 16.97, 152.55 21.25 M152.55 21.25 C150.51 29.69, 146.22 27.92, 145.47 28.33 M152.55 21.25 C150.99 23.67, 154.01 32.86, 145.47 28.33 M145.47 28.33 C111.75 26.89, 85.55 22.44, 7.08 28.33 M145.47 28.33 C111.96 28.28, 79.71 28.29, 7.08 28.33 M7.08 28.33 C4.56 24.55, 1.16 22.9, 0 21.25 M7.08 28.33 C-0.57 27.81, -3.43 29.6, 0 21.25 M0 21.25 C-1.92 20.48, 1.56 13.63, 0 7.08 M0 21.25 C-1.34 16.58, 0.39 10.73, 0 7.08 M0 7.08 C-2.86 5.2, 5.48 -2.37, 7.08 0 M0 7.08 C0.8 6.65, -0.83 -3.08, 7.08 0" stroke="#e67700" stroke-width="4" fill="none"></path></g><g transform="translate(71.53331641688783 323.20445432299107) rotate(0 66.51851654052734 10)"><text x="0" y="0" font-family="Virgil, Segoe UI Emoji" font-size="16px" fill="#000000" text-anchor="start" style="white-space: pre;" direction="ltr" dominant-baseline="text-before-edge">⚡ threat agent</text></g><g stroke-linecap="round"><g transform="translate(226.75886261804567 267.68588436365894) rotate(0 28.29035730183523 -22.58287985235029)"><path d="M0 0 C2.5 -5.02, 5.57 -22.57, 15 -30.09 C24.43 -37.62, 49.65 -42.65, 56.58 -45.17 M0 0 C2.5 -5.02, 5.57 -22.57, 15 -30.09 C24.43 -37.62, 49.65 -42.65, 56.58 -45.17" stroke="#000000" stroke-width="1" fill="none"></path></g><g transform="translate(226.75886261804567 267.68588436365894) rotate(0 28.29035730183523 -22.58287985235029)"><path d="M38.69 -32.17 C43.75 -35.84, 48.81 -39.52, 56.58 -45.17 M38.69 -32.17 C44.47 -36.37, 50.26 -40.57, 56.58 -45.17" stroke="#000000" stroke-width="1" fill="none"></path></g><g transform="translate(226.75886261804567 267.68588436365894) rotate(0 28.29035730183523 -22.58287985235029)"><path d="M34.52 -46.71 C40.76 -46.27, 47 -45.84, 56.58 -45.17 M34.52 -46.71 C41.65 -46.21, 48.78 -45.71, 56.58 -45.17" stroke="#000000" stroke-width="1" fill="none"></path></g></g><mask></mask><g stroke-linecap="round"><g transform="translate(271.73332319126075 287.42424681304897) rotate(0 75.73049942461535 4.358589894941815)"><path d="M0 0 C25.24 1.45, 126.22 7.26, 151.46 8.72 M0 0 C25.24 1.45, 126.22 7.26, 151.46 8.72" stroke="#000000" stroke-width="1" fill="none"></path></g><g transform="translate(271.73332319126075 287.42424681304897) rotate(0 75.73049942461535 4.358589894941815)"><path d="M122.73 17.34 C130.33 15.06, 137.94 12.78, 151.46 8.72 M122.73 17.34 C128.49 15.61, 134.24 13.88, 151.46 8.72" stroke="#000000" stroke-width="1" fill="none"></path></g><g transform="translate(271.73332319126075 287.42424681304897) rotate(0 75.73049942461535 4.358589894941815)"><path d="M123.91 -3.15 C131.2 -0.01, 138.49 3.13, 151.46 8.72 M123.91 -3.15 C129.43 -0.77, 134.95 1.61, 151.46 8.72" stroke="#000000" stroke-width="1" fill="none"></path></g></g><mask></mask><g stroke-linecap="round"><g transform="translate(402.4910200395177 229.84842244643096) rotate(0 30.753015557556296 16.256966235351)"><path d="M0 0 C10.25 5.42, 51.26 27.09, 61.51 32.51 M0 0 C10.25 5.42, 51.26 27.09, 61.51 32.51" stroke="#000000" stroke-width="1" fill="none"></path></g><g transform="translate(402.4910200395177 229.84842244643096) rotate(0 30.753015557556296 16.256966235351)"><path d="M31.79 28.41 C43.14 29.98, 54.49 31.55, 61.51 32.51 M31.79 28.41 C42.22 29.85, 52.64 31.29, 61.51 32.51" stroke="#000000" stroke-width="1" fill="none"></path></g><g transform="translate(402.4910200395177 229.84842244643096) rotate(0 30.753015557556296 16.256966235351)"><path d="M41.38 10.27 C49.07 18.77, 56.76 27.27, 61.51 32.51 M41.38 10.27 C48.44 18.07, 55.5 25.88, 61.51 32.51" stroke="#000000" stroke-width="1" fill="none"></path></g></g><mask></mask><g transform="translate(406.85222329549765 216.4940330861441) rotate(19.61702168387778 25.88888931274414 7.256120945173279)"><text x="0" y="0" font-family="Virgil, Segoe UI Emoji" font-size="11.609793512277323px" fill="#000000" text-anchor="start" style="white-space: pre;" direction="ltr" dominant-baseline="text-before-edge">increases</text></g><g transform="translate(304.64037230685926 300.87142786884965) rotate(0 24.38888931274414 7.256120945173279)"><text x="0" y="0" font-family="Virgil, Segoe UI Emoji" font-size="11.609793512277323px" fill="#000000" text-anchor="start" style="white-space: pre;" direction="ltr" dominant-baseline="text-before-edge">leads to</text></g><g transform="translate(103.05589425700941 285.9676195699635) rotate(0 15.996207287694688 7.45937120033625)"><text x="0" y="0" font-family="Virgil, Segoe UI Emoji" font-size="11.934993920538034px" fill="#000000" text-anchor="start" style="white-space: pre;" direction="ltr" dominant-baseline="text-before-edge">poses</text></g><g stroke-linecap="round" transform="translate(570.7325899842735 250.81209169553767) rotate(0 83.35803174076364 51.21343126556724)"><path d="M25.61 0 M25.61 0 C53.9 -1.12, 78.8 -0.64, 141.11 0 M25.61 0 C66.88 -0.33, 109.32 -0.36, 141.11 0 M141.11 0 C159.2 1.52, 168.55 9.98, 166.72 25.61 M141.11 0 C159.74 2.02, 166.98 9.78, 166.72 25.61 M166.72 25.61 C166.95 46.78, 167.94 64.83, 166.72 76.82 M166.72 25.61 C166.8 36.52, 167.97 46.88, 166.72 76.82 M166.72 76.82 C167.04 93.82, 159.74 101.91, 141.11 102.43 M166.72 76.82 C165.02 94.44, 158.26 100.81, 141.11 102.43 M141.11 102.43 C109.95 104.39, 81.62 102.34, 25.61 102.43 M141.11 102.43 C104.1 103.04, 65.1 102.76, 25.61 102.43 M25.61 102.43 C9.67 100.73, 0.73 93.11, 0 76.82 M25.61 102.43 C10.64 102.05, 2.26 93.73, 0 76.82 M0 76.82 C-1 59.89, -1.39 43.21, 0 25.61 M0 76.82 C-0.32 63.8, 1.09 52.23, 0 25.61 M0 25.61 C-0.25 9.76, 7.77 0.94, 25.61 0 M0 25.61 C0.24 10.58, 10.18 0, 25.61 0" stroke="#1864ab" stroke-width="1" fill="none"></path></g><g transform="translate(587.2758100184942 282.0255229611048) rotate(0 66.81481170654297 20)"><text x="66.81481170654297" y="0" font-family="Virgil, Segoe UI Emoji" font-size="16px" fill="#1864ab" text-anchor="middle" style="white-space: pre;" direction="ltr" dominant-baseline="text-before-edge">IT RESOURCES </text><text x="66.81481170654297" y="20" font-family="Virgil, Segoe UI Emoji" font-size="16px" fill="#1864ab" text-anchor="middle" style="white-space: pre;" direction="ltr" dominant-baseline="text-before-edge">AND ASSETS</text></g><g stroke-linecap="round"><g transform="translate(523.8777486136482 296.79521508717585) rotate(0 23.89958850157518 0.12151576747805848)"><path d="M1.11 0.24 C9.18 0.45, 39.94 1.1, 47.57 1 M0.23 -0.69 C8.18 -0.77, 38.25 -0.84, 46.42 -0.6" stroke="#e67790" stroke-width="1" fill="none"></path></g><g transform="translate(523.8777486136482 296.79521508717585) rotate(0 23.89958850157518 0.12151576747805848)"><path d="M24.19 6.71 C30.69 3.54, 33.64 3.66, 45.66 0.46 M23.15 6.64 C32.42 5.26, 40.51 1.77, 45.95 -0.59" stroke="#e67790" stroke-width="1" fill="none"></path></g><g transform="translate(523.8777486136482 296.79521508717585) rotate(0 23.89958850157518 0.12151576747805848)"><path d="M24.38 -9.69 C30.8 -9.07, 33.7 -5.18, 45.66 0.46 M23.34 -9.75 C32.41 -5.43, 40.43 -3.22, 45.95 -0.59" stroke="#e67790" stroke-width="1" fill="none"></path></g></g><mask></mask><g stroke-linecap="round"><g transform="translate(159.49963339650685 352.3672362476848) rotate(0 221.3332509339076 19.205714245448235)"><path d="M-1 1.08 C19.84 7.43, 50.54 37.62, 124.65 37.8 C198.76 37.99, 390.57 7.89, 443.66 2.2 M0.68 0.61 C21.42 6.64, 50.21 35.68, 123.92 36.08 C197.64 36.47, 389.77 8.14, 442.99 2.96" stroke="#e67700" stroke-width="1" fill="none"></path></g><g transform="translate(159.49963339650685 352.3672362476848) rotate(0 221.3332509339076 19.205714245448235)"><path d="M418.05 17.25 C424.77 13.38, 428.98 8.9, 443.66 3.79 M417.17 17.12 C424.67 11.59, 433.93 8.39, 442.84 3.57" stroke="#e67700" stroke-width="1" fill="none"></path></g><g transform="translate(159.49963339650685 352.3672362476848) rotate(0 221.3332509339076 19.205714245448235)"><path d="M415.58 -3.12 C422.92 -1.46, 427.79 -0.43, 443.66 3.79 M414.7 -3.25 C422.87 -1.98, 432.95 1.61, 442.84 3.57" stroke="#e67700" stroke-width="1" fill="none"></path></g></g><mask></mask><g stroke-linecap="round" transform="translate(52.49625147568349 10) rotate(0 60 29.5)"><path d="M14.11 -0.88 L106.27 1.09 L113.66 1.96 L117.93 7.63 L121.55 10.79 L121.89 43.16 L118 52.6 L113.43 57.67 L106.97 58.11 L12.97 57.14 L5.64 57.59 L1.07 53.38 L1.69 47.88 L-0.47 9.3 L2.81 3.72 L6.97 2.19 L14.03 0.9" stroke="none" stroke-width="0" fill="#ced4da"></path><path d="M14.75 0 M14.75 0 C36.33 2.38, 55.92 2.33, 105.25 0 M14.75 0 C40.19 0.68, 63.97 0.59, 105.25 0 M105.25 0 C113.37 -1.78, 119.8 6.46, 120 14.75 M105.25 0 C115.43 0.75, 122.1 4.08, 120 14.75 M120 14.75 C119.99 23.76, 118.32 34.4, 120 44.25 M120 14.75 C120.49 22.6, 120.53 30.76, 120 44.25 M120 44.25 C118.18 53.72, 114.5 60.17, 105.25 59 M120 44.25 C121.3 52.46, 113.43 58.61, 105.25 59 M105.25 59 C85.3 59.03, 69.35 61.49, 14.75 59 M105.25 59 C81.09 58.59, 55.27 59.95, 14.75 59 M14.75 59 C3.56 58.24, 1.7 53.17, 0 44.25 M14.75 59 C3.15 60.07, 2.15 54.16, 0 44.25 M0 44.25 C-1.15 34.85, -1.35 23, 0 14.75 M0 44.25 C-0.3 36.64, 1.08 29.76, 0 14.75 M0 14.75 C-1.32 3.35, 3.16 -0.65, 14.75 0 M0 14.75 C2.26 5.94, 6.07 1.61, 14.75 0" stroke="#0b7285" stroke-width="1" fill="none"></path></g><g transform="translate(67.5703252671874 19.5) rotate(0 44.925926208496094 20)"><text x="44.925926208496094" y="0" font-family="Virgil, Segoe UI Emoji" font-size="16px" fill="#0b7285" text-anchor="middle" style="white-space: pre;" direction="ltr" dominant-baseline="text-before-edge">☁ service </text><text x="44.925926208496094" y="20" font-family="Virgil, Segoe UI Emoji" font-size="16px" fill="#0b7285" text-anchor="middle" style="white-space: pre;" direction="ltr" dominant-baseline="text-before-edge">provider</text></g><g mask="url(#mask-bpGO8BxK4pfWuNZPve2qm)" stroke-linecap="round"><g transform="translate(176.71606348152727 42.907353706811364) rotate(0 240.39733384385795 98.04671062576699)"><path d="M-0.33 1.16 C66.39 4.6, 319.23 -13.15, 399.47 19.52 C479.71 52.19, 467.5 167.55, 481.12 197.18 M1.7 0.72 C68.3 3.95, 318.47 -14.95, 398.29 17.92 C478.12 50.78, 466.75 167.91, 480.66 197.9" stroke="#0b7285" stroke-width="1" fill="none"></path></g><g transform="translate(176.71606348152727 42.907353706811364) rotate(0 240.39733384385795 98.04671062576699)"><path d="M467.19 171.44 C470.2 179.07, 470.17 185.07, 478.91 196.1 M465.09 172.31 C469.27 177.33, 472.57 185.04, 479.85 197.64" stroke="#0b7285" stroke-width="1" fill="none"></path></g><g transform="translate(176.71606348152727 42.907353706811364) rotate(0 240.39733384385795 98.04671062576699)"><path d="M487.34 167.55 C485.69 176.03, 481.05 182.91, 478.91 196.1 M485.24 168.43 C484.69 174.49, 483.24 183.12, 479.85 197.64" stroke="#0b7285" stroke-width="1" fill="none"></path></g></g><mask id="mask-bpGO8BxK4pfWuNZPve2qm"><rect x="0" y="0" fill="#fff" width="757.2505993988707" height="341.22319392666714"></rect><rect x="507.6166863424455" y="51.43136076031419" fill="#000" width="138" height="20" opacity="1"></rect></mask><g transform="translate(507.6166863424455 51.43136076031419) rotate(0 -90.5032890170603 89.52270357226416)"><text x="69" y="0" font-family="Virgil, Segoe UI Emoji" font-size="16px" fill="#0b7285" text-anchor="middle" style="white-space: pre;" direction="ltr" dominant-baseline="text-before-edge">wants to protect</text></g><g transform="translate(10 175.844345502539) rotate(0 86.61111450195312 10)"><text x="0" y="0" font-family="Virgil, Segoe UI Emoji" font-size="16px" fill="#0b7285" text-anchor="start" style="white-space: pre;" direction="ltr" dominant-baseline="text-before-edge">Policies and Measures</text></g><g mask="url(#mask-9RqGmcgfJcVjuawzGKUVT)" stroke-linecap="round"><g transform="translate(114.60615747860538 64.04651469727992) rotate(0 -9.16374612685945 52.30307873930269)"><path d="M0 0 C-3.05 17.43, -15.27 87.17, -18.33 104.61 M0 0 C-3.05 17.43, -15.27 87.17, -18.33 104.61" stroke="#0b7285" stroke-width="1" fill="none"></path></g><g transform="translate(114.60615747860538 64.04651469727992) rotate(0 -9.16374612685945 52.30307873930269)"><path d="M-23.57 75.07 C-22.4 81.65, -21.23 88.23, -18.33 104.61 M-23.57 75.07 C-22.46 81.33, -21.35 87.59, -18.33 104.61" stroke="#0b7285" stroke-width="1" fill="none"></path></g><g transform="translate(114.60615747860538 64.04651469727992) rotate(0 -9.16374612685945 52.30307873930269)"><path d="M-3.36 78.61 C-6.69 84.4, -10.03 90.19, -18.33 104.61 M-3.36 78.61 C-6.53 84.12, -9.7 89.63, -18.33 104.61" stroke="#0b7285" stroke-width="1" fill="none"></path></g></g><mask id="mask-9RqGmcgfJcVjuawzGKUVT"><rect x="0" y="0" fill="#fff" width="232.93364973232428" height="268.6526721758853"></rect><rect x="78.44241135174593" y="106.34959343658261" fill="#000" width="54" height="20" opacity="1"></rect></mask><g transform="translate(78.44241135174593 106.34959343658261) rotate(0 27 10)"><text x="27" y="0" font-family="Virgil, Segoe UI Emoji" font-size="16px" fill="#0b7285" text-anchor="middle" style="white-space: pre;" direction="ltr" dominant-baseline="text-before-edge">makes </text></g></svg>