<svg version="1.1" xmlns="http://www.w3.org/2000/svg" viewBox="0 0 485.9398140923215 615.711798977021" width="485.9398140923215" height="615.711798977021" filter="invert(93%) hue-rotate(180deg)">
  <!-- svg-source:excalidraw -->
  
  <defs>
    <style class="style-fonts">
      @font-face {
        font-family: "Virgil";
        src: url("https://excalidraw.com/Virgil.woff2");
      }
      @font-face {
        font-family: "Cascadia";
        src: url("https://excalidraw.com/Cascadia.woff2");
      }
    </style>
  </defs>
  <g stroke-linecap="round"><g transform="translate(167.25760794329813 515.3827302930526) rotate(0 3.470875606813024 -0.048243533169852526)"><path d="M0.61 -0.55 C1.64 -0.02, 3.92 -0.43, 6.8 0.46 M0.15 0.12 C2.34 -0.09, 4.69 -0.19, 6.49 0.14" stroke="#000000" stroke-width="4" fill="none"></path></g></g><mask></mask><g stroke-linecap="round"><g transform="translate(222.22032937340305 514.9129634432228) rotate(0 3.346959652755686 0.21562256263365498)"><path d="M-0.09 -0.02 C2.4 -0.38, 4.09 0.51, 6.79 0.59 M0.16 -0.13 C1.83 -0.26, 2.93 0.12, 6.76 0.07" stroke="#000000" stroke-width="4" fill="none"></path></g></g><mask></mask><g stroke-linecap="round"><g transform="translate(194.03431838360825 514.9129634432231) rotate(0 3.4880623302128697 0.0024601767630088034)"><path d="M0.46 -0.43 C1.64 0.46, 3.05 0.59, 6.11 0.29 M0.32 -0.24 C2.14 0.17, 4.62 0.1, 6.65 0.09" stroke="#000000" stroke-width="4" fill="none"></path></g></g><mask></mask><g stroke-linecap="round"><g transform="translate(248.99703981371 514.4431965933927) rotate(0 3.3767597211076463 0.2857915394589554)"><path d="M0.22 0.46 C2.16 0.63, 3.43 0.33, 6.82 0.32 M-0.08 0.14 C1.89 0.12, 3.49 0.14, 6.84 0.06" stroke="#000000" stroke-width="4" fill="none"></path></g></g><mask></mask><g stroke-linecap="round"><g transform="translate(180.88084658836647 515.3827302930528) rotate(0 3.4569046561275627 0.3013642152542957)"><path d="M0.21 0.59 C1.07 0.25, 3.33 0.28, 6.31 0.65 M0.18 0.07 C1.57 0.06, 3.26 0.03, 6.74 -0.04" stroke="#000000" stroke-width="4" fill="none"></path></g></g><mask></mask><g stroke-linecap="round"><g transform="translate(235.84356801847048 514.9129634432227) rotate(0 3.03303541412879 0.08364597556209219)"><path d="M-0.47 0.29 C2.68 0.26, 4.59 0.59, 6.1 -0.17 M0.08 0.09 C2.52 0.05, 4.68 -0.06, 6.53 0.32" stroke="#000000" stroke-width="4" fill="none"></path></g></g><mask></mask><g stroke-linecap="round"><g transform="translate(207.65755702867295 514.9129634432229) rotate(0 3.5727825805785187 0.0759864332763982)"><path d="M0.25 0.32 C2.3 0.62, 4.65 -0.2, 6.86 0.36 M0.26 0.06 C2.27 -0.06, 4.19 0.3, 6.9 -0.24" stroke="#000000" stroke-width="4" fill="none"></path></g></g><mask></mask><g stroke-linecap="round"><g transform="translate(262.62027845877697 514.4431965933932) rotate(0 3.2275423353041788 0.3013642152542957)"><path d="M-0.26 0.65 C1.79 -0.2, 4.81 0.33, 6.72 0.15 M0.16 -0.04 C2.11 0.31, 4.62 -0.25, 6.36 0.05" stroke="#000000" stroke-width="4" fill="none"></path></g></g><mask></mask><g stroke-linecap="round"><g transform="translate(275.7737502540165 514.9129634432226) rotate(0 3.1397271068804002 0.1767835445961623)"><path d="M-0.48 -0.17 C2.58 0.29, 4.73 0.09, 6.75 0.52 M-0.04 0.32 C2.41 -0.23, 3.97 0.06, 6.3 0.29" stroke="#000000" stroke-width="4" fill="none"></path></g></g><mask></mask><g stroke-linecap="round"><g transform="translate(174.30411069075126 522.4292330405017) rotate(0 3.492021989943737 0.07684466293648029)"><path d="M0.29 0.36 C2.76 0.17, 5.42 0.54, 6.7 0.32 M0.32 -0.24 C1.67 -0.01, 3.49 0.22, 6.34 0.04" stroke="#000000" stroke-width="4" fill="none"></path></g></g><mask></mask><g stroke-linecap="round"><g transform="translate(162.55993944499983 522.4292330405015) rotate(0 3.2463171439588905 0.11783837342761672)"><path d="M0.14 0.15 C1.98 0.49, 3.73 0.28, 6.49 -0.09 M-0.21 0.05 C2.33 0.34, 4.98 0.09, 6.71 0.1" stroke="#000000" stroke-width="4" fill="none"></path></g></g><mask></mask><g stroke-linecap="round"><g transform="translate(229.26683212085504 521.9594661906722) rotate(0 3.4664240044098733 0.1650948660458198)"><path d="M0.18 0.52 C2.45 0.3, 4.57 -0.1, 7.21 0.64 M-0.28 0.29 C1.26 0.03, 3.13 0.09, 6.29 -0.31" stroke="#000000" stroke-width="4" fill="none"></path></g></g><mask></mask><g stroke-linecap="round"><g transform="translate(201.08082113105434 521.959466190672) rotate(0 3.0111467861109986 -0.055561071967758835)"><path d="M0.12 0.32 C2.03 -0.14, 4.88 0.59, 6.1 -0.43 M-0.24 0.04 C2.2 0.04, 3.85 -0.37, 6.26 -0.16" stroke="#000000" stroke-width="4" fill="none"></path></g></g><mask></mask><g stroke-linecap="round"><g transform="translate(256.0435425611606 521.4896993408424) rotate(0 3.3824651595050454 -0.2042336007629615)"><path d="M-0.09 -0.09 C3.13 0.61, 4.52 -0.46, 6.68 -0.56 M0.13 0.1 C2.26 -0.32, 4.78 -0.16, 6.85 -0.03" stroke="#000000" stroke-width="4" fill="none"></path></g></g><mask></mask><g stroke-linecap="round"><g transform="translate(187.92734933581846 522.4292330405017) rotate(0 3.431724706423097 0.07396170740730668)"><path d="M0.63 0.64 C1.82 -0.42, 4.68 -0.55, 7.15 -0.48 M-0.29 -0.31 C1.74 -0.18, 4.38 -0.05, 6.38 -0.07" stroke="#000000" stroke-width="4" fill="none"></path></g></g><mask></mask><g stroke-linecap="round"><g transform="translate(242.89007076592384 521.9594661906724) rotate(0 3.090100869614389 -0.128613753999673)"><path d="M-0.47 -0.43 C1.99 -0.62, 4.35 -0.54, 6.65 0.26 M-0.31 -0.16 C2.45 0.04, 4.15 -0.01, 6.52 -0.16" stroke="#000000" stroke-width="4" fill="none"></path></g></g><mask></mask><g stroke-linecap="round"><g transform="translate(214.70405977612313 521.959466190672) rotate(0 3.4510694230594936 -0.18549894012949153)"><path d="M0.1 -0.56 C3.19 -0.44, 5.31 0.3, 6.78 -0.58 M0.28 -0.03 C1.15 -0.04, 2.64 -0.13, 6.8 0.21" stroke="#000000" stroke-width="4" fill="none"></path></g></g><mask></mask><g stroke-linecap="round"><g transform="translate(269.6667812062276 521.4896993408422) rotate(0 3.1791161028479564 -0.31639688000160504)"><path d="M0.58 -0.48 C1.62 0.32, 3.29 -0.52, 5.95 -0.63 M-0.2 -0.07 C1.61 -0.16, 3.55 0.21, 6.56 -0.21" stroke="#000000" stroke-width="4" fill="none"></path></g></g><mask></mask><g stroke-linecap="round"><g transform="translate(282.820253001468 521.9594661906725) rotate(0 3.283573439982547 0.11894398820817287)"><path d="M0.08 0.26 C1.62 -0.53, 2.21 -0.58, 6.27 0.56 M-0.05 -0.16 C2.15 0.22, 3.82 -0.2, 6.62 0.3" stroke="#000000" stroke-width="4" fill="none"></path></g></g><mask></mask><g stroke-linecap="round"><g transform="translate(181.35061343819893 529.4757357879512) rotate(0 3.466179722212928 -0.14645668708880066)"><path d="M0.2 -0.58 C0.87 -0.66, 2.68 0.53, 6.52 -0.4 M0.23 0.21 C1.81 -0.18, 3.71 0.33, 6.73 0.29" stroke="#000000" stroke-width="4" fill="none"></path></g></g><mask></mask><g stroke-linecap="round"><g transform="translate(169.6064421924516 529.4757357879516) rotate(0 2.9559949597420427 -0.23885056443475605)"><path d="M-0.63 -0.63 C1.92 0.61, 4.41 -0.34, 6.44 -0.11 M-0.02 -0.21 C1.69 0.25, 3.44 0.24, 6.54 -0.09" stroke="#000000" stroke-width="4" fill="none"></path></g></g><mask></mask><g stroke-linecap="round"><g transform="translate(263.0900453086085 528.5362020882917) rotate(0 2.995574648814909 0.2681535073425607)"><path d="M-0.31 0.56 C1.34 -0.34, 2.65 -0.05, 6.25 0.45 M0.04 0.3 C2.54 0.33, 4.73 -0.05, 6.3 0.06" stroke="#000000" stroke-width="4" fill="none"></path></g></g><mask></mask><g stroke-linecap="round"><g transform="translate(201.5002028530455 530.1308616123475) rotate(0 24.9076754491025 -0.28663532244729595)"><path d="M-0.16 -1.21 C9.53 -0.95, 18.92 0.55, 49.98 -1.13 M0.47 0.87 C11.38 -0.94, 22.17 -0.73, 48.75 -1.44" stroke="#000000" stroke-width="4" fill="none"></path></g></g><mask></mask><g stroke-linecap="round"><g transform="translate(276.71328395367914 528.5362020882911) rotate(0 3.093110077195661 -0.02024253624682615)"><path d="M-0.14 -0.11 C2.2 0.49, 5.47 0, 6.16 0.09 M-0.04 -0.09 C2.29 0.01, 5.14 -0.2, 6.33 -0.24" stroke="#000000" stroke-width="4" fill="none"></path></g></g><mask></mask><g stroke-linecap="round"><g transform="translate(146.78689697405457 535.365184606239) rotate(0 81.43235274774156 -13.202893892577777)"><path d="M-1 1.38 C40.04 0.15, 76.29 0.54, 163.87 0.93 M-0.84 0.19 C62.75 0, 124.67 -0.29, 161.72 -0.85 M163.06 -0.74 C154.89 -7.98, 149.42 -15.83, 145.21 -26.98 M161.4 -0.1 C158.45 -5.74, 153.83 -11.18, 143.15 -26.18 M144.74 -27.02 C112.24 -26.84, 77.4 -28.93, 15.43 -26.88 M144.34 -25.78 C95.47 -24.81, 49.32 -24.77, 15.07 -26.92 M14.52 -26.03 C10.79 -14.24, 3.1 -5.64, 1.52 -0.16 M15.57 -25.48 C11.69 -21.04, 8.37 -15.49, -0.63 -0.95" stroke="#000000" stroke-width="1" fill="none"></path></g></g><mask></mask><g stroke-linecap="round" transform="translate(145.88321627603796 534.1734042862502) rotate(0 81.03478159566521 1.6441839744047684)"><path d="M1.26 -0.12 C44.68 -0.85, 93.71 -0.19, 163.81 -0.24 M0.03 -0.43 C43.56 -1.03, 88.29 -1.16, 162.43 0.9 M161.94 0.1 C162.06 1.11, 162.33 1.54, 161.77 3.41 M162.12 -0.05 C161.97 0.73, 161.95 1.47, 162 3.22 M163.68 3.26 C129.26 0.01, 97.29 1.14, 1.33 2.85 M161.08 3.43 C105.08 3.06, 48.05 1.78, 0.93 4.03 M0.26 3.55 C-0.04 2.28, 0.25 1.26, -0.31 -0.06 M-0.01 3.25 C-0.08 2.46, -0.13 1.48, 0.14 0" stroke="#000000" stroke-width="1" fill="none"></path></g><g stroke-linecap="round" transform="translate(166.9052828059273 416.144483266477) rotate(0 57.42899739171071 32.76623777563856)"><path d="M-1.28 0.27 C44.18 1, 86.52 -0.17, 114.33 -1.67 M-0.76 -0.72 C36.28 -0.36, 73.62 1.39, 114.61 0.5 M114.73 1.24 C116.06 15.61, 112.79 35.16, 113.75 64.2 M114.39 -0.45 C114.46 18.16, 114.63 37.54, 113.88 66.03 M114.75 63.6 C90.52 64.71, 66.26 65.08, 1.05 66.71 M115.01 65.97 C85.38 64.84, 56.3 66.43, 0.05 65.4 M-0.27 65.49 C0.99 45.59, -2.44 25.58, -0.98 1.55 M-0.33 65.52 C-0.61 41.04, 0.89 18.47, 0.37 0.65" stroke="#000000" stroke-width="1" fill="none"></path></g><g stroke-linecap="round" transform="translate(160.56343033322378 407.68867996953804) rotate(0 63.77084986441491 40.51739079783272)"><path d="M1.8 0.93 C39.27 -0.41, 74.52 -1.85, 127.92 0.07 M-0.35 -0.85 C33.19 1.82, 65.42 1.41, 127.17 -0.4 M129 -1.61 C125.68 27.38, 126.38 51.99, 127.33 81.65 M126.94 -0.81 C126.73 21.32, 126.18 43.97, 126.72 81.84 M128.17 80.23 C90.77 79.36, 52.38 80.98, -0.82 79.06 M127.81 80.19 C88.44 82.33, 47.54 81.46, 0.02 81.84 M1.52 80.87 C-1.8 49.9, -0.87 21.07, 1.19 -0.06 M-0.63 80.09 C1.14 58.59, 0.64 36.75, -0.41 -0.24" stroke="#000000" stroke-width="1" fill="none"></path></g><g stroke-linecap="round"><g transform="translate(215.87847690069952 489.31067012749054) rotate(0 0.21909518768813996 4.858049609557781)"><path d="M0.86 -0.12 C-0.17 2.27, 0.28 6.22, -0.42 9.11 M0.18 0.44 C-0.16 2.49, -0.22 4.3, 0.14 9.83" stroke="#000000" stroke-width="2" fill="none"></path></g></g><mask></mask><g stroke-linecap="round"><g transform="translate(230.9110160952589 488.84090327766125) rotate(0 -0.20192677585180263 4.699987853543178)"><path d="M-0.26 -0.83 C0.27 3.45, -0.33 6.09, -0.71 9.52 M-0.12 0.24 C-0.15 1.92, 0.18 4.21, 0.31 10.23" stroke="#000000" stroke-width="2" fill="none"></path></g></g><mask></mask><g stroke-linecap="round"><g transform="translate(203.1679622032177 500.1059595162992) rotate(0 19.052469873799964 0.007356981344628366)"><path d="M0.38 0.07 C10.46 -1.16, 21.19 -0.31, 37.59 0.82 M-0.37 -0.4 C15.6 -0.22, 31.25 0.62, 38.48 -0.8" stroke="#000000" stroke-width="2" fill="none"></path></g></g><mask></mask><g stroke-linecap="round" transform="translate(10 104.06376148816435) rotate(0 38.33333333333337 78.24742268041246)"><path d="M1.84 -1.35 C23.84 -1.67, 45.7 -1.36, 76.93 1.25 M-0.36 -0.91 C18.1 1.35, 34.02 0.34, 76.2 0.87 M75.14 -1.64 C73.39 50.36, 74.62 95.77, 77.68 155.98 M77.46 0.48 C77.72 37.45, 76.89 76.72, 75.85 155.96 M76.73 154.81 C61.57 154.79, 44.75 156.95, 1.93 157.73 M77.25 156.35 C55.71 154.94, 34.49 155.83, -0.45 156.05 M0.24 157.01 C-0.84 105.09, -0.56 51.2, -1 -0.94 M-0.63 156.93 C1.58 118.05, 0.06 78.54, 0.09 0.6" stroke="#000000" stroke-width="1" fill="none"></path></g><g stroke-linecap="round" transform="translate(25.01718213058507 116.70980959813005) rotate(0 22.920962199312726 3.9518900343642827)"><path d="M0.67 -1.34 C15.12 -0.72, 31.79 1.56, 44.34 -0.41 M0.85 0.62 C8.88 0.02, 18.29 1.28, 45.95 -0.85 M45.07 0.67 C45.5 1.79, 46.18 4.6, 45.41 8.33 M45.93 -0.36 C45.66 2.21, 45.58 4.22, 45.52 7.79 M47.51 6.88 C37.79 8.66, 28.46 8.76, -0.47 7.88 M46.1 6.97 C36.03 7.79, 25.26 7.4, 0.32 7.81 M-0.39 8.13 C-0.29 4.76, -0.41 2.3, -0.41 -0.3 M0.39 8.07 C-0.16 4.97, 0.08 2.48, 0.29 0.06" stroke="#000000" stroke-width="1" fill="none"></path></g><g stroke-linecap="round" transform="translate(27.388316151201934 148.32492987304408) rotate(0 7.113402061855709 7.113402061855709)"><path d="M4.56 0.03 C5.75 -0.59, 7.84 -0.5, 9.2 0.33 C10.55 1.15, 11.77 3.62, 12.67 4.98 C13.57 6.35, 14.91 7.24, 14.6 8.49 C14.28 9.74, 11.99 11.52, 10.77 12.49 C9.56 13.46, 8.92 14.36, 7.33 14.31 C5.73 14.25, 2.55 13.4, 1.21 12.16 C-0.13 10.92, -0.59 8.26, -0.74 6.88 C-0.89 5.5, -0.71 5.11, 0.33 3.85 C1.38 2.6, 4.41 -0.01, 5.52 -0.67 C6.63 -1.33, 6.99 -0.42, 6.97 -0.09 M6.74 -1.34 C7.82 -1.7, 9.21 0.27, 10.21 1.23 C11.21 2.18, 12.37 2.99, 12.73 4.39 C13.09 5.79, 13.02 8.09, 12.37 9.62 C11.73 11.15, 10.23 12.63, 8.85 13.57 C7.47 14.51, 5.47 15.44, 4.09 15.25 C2.71 15.07, 1.1 13.67, 0.57 12.47 C0.03 11.26, 0.48 9.8, 0.88 8.02 C1.28 6.24, 2.04 3.33, 2.95 1.79 C3.87 0.26, 5.67 -0.87, 6.39 -1.17 C7.11 -1.48, 7.21 -0.13, 7.3 -0.04" stroke="#000000" stroke-width="1" fill="none"></path></g><g stroke-linecap="round"><g transform="translate(25.75976670793557 204.14049181164455) rotate(0 22.198020759761334 -0.36612362558952327)"><path d="M-0.62 0.16 C7.02 0.07, 37.57 -0.68, 45.01 -0.9 M1.26 -0.8 C8.87 -0.73, 37.48 0.1, 44.46 0.17" stroke="#000000" stroke-width="1" fill="none"></path></g></g><mask></mask><g stroke-linecap="round"><g transform="translate(26.53037387426116 216.86700645805286) rotate(0 21.851323752520557 0.04930465509187343)"><path d="M0.75 -0.9 C8.19 -1.12, 36.83 -1.11, 44.02 -1.14 M-0.31 1.24 C7 1.12, 35.74 0.06, 42.94 -0.21" stroke="#000000" stroke-width="1" fill="none"></path></g></g><mask></mask><g stroke-linecap="round"><g transform="translate(24.719633704128455 227.9824313114591) rotate(0 21.794210044085958 -0.18253729918899353)"><path d="M-0.25 -1.14 C6.93 -1.18, 36.25 -1.4, 43.83 -1.09 M1.83 0.87 C8.74 1.02, 35.46 0.22, 42.66 -0.12" stroke="#000000" stroke-width="1" fill="none"></path></g></g><mask></mask><g stroke-linecap="round" transform="translate(187.0254609043743 57.59458974508857) rotate(0 38.33333333333326 78.24742268041246)"><path d="M1.73 0.22 C17.47 0.44, 36.82 -1.28, 74.72 1.7 M-0.26 -0.55 C20.8 -0.59, 41.33 0.09, 76.89 -0.92 M75.6 -1.63 C76.09 35.59, 76.71 73.07, 78.33 155.47 M77.29 -0.23 C77.55 58.72, 78.14 118.9, 76.93 155.56 M75.79 157.14 C51.53 156.77, 27 156.66, -0.99 157.07 M76.19 155.98 C56 156.69, 35.46 156.54, 0.98 156.91 M1.19 157.98 C0.67 116.66, -0.23 80.14, 1.53 0.31 M-0.57 156.11 C0.94 105.95, 0.51 55.45, -0.19 -0.53" stroke="#000000" stroke-width="1" fill="none"></path></g><g stroke-linecap="round" transform="translate(202.0426430349596 70.24063785505427) rotate(0 22.920962199312726 3.9518900343642827)"><path d="M-1.7 0.08 C10.09 -1.69, 21.28 1.65, 45.13 -1.56 M0.53 -0.2 C16.88 0.73, 32.38 -0.67, 45.23 -0.01 M45.62 -0.71 C45.82 1.06, 46.46 3.04, 46.48 8.36 M45.84 -0.32 C46.12 3.08, 45.99 5.9, 45.94 7.89 M45.66 8.53 C34.39 8.56, 21.45 8.63, -0.71 6.57 M45.46 8.49 C33.76 8.1, 23.92 8.08, -0.53 7.65 M0.11 7.42 C-0.29 5.81, 0.56 3.15, 0.16 -0.73 M-0.2 7.76 C-0.33 5.07, -0.03 2.57, 0.28 -0.11" stroke="#000000" stroke-width="1" fill="none"></path></g><g stroke-linecap="round" transform="translate(204.41377705557647 101.85575812996854) rotate(0 7.113402061855709 7.113402061855709)"><path d="M3.92 -0.19 C5.46 -1.04, 8.21 -0.62, 9.64 0.04 C11.07 0.69, 11.77 2.28, 12.5 3.72 C13.22 5.17, 13.99 7.26, 13.98 8.72 C13.98 10.18, 13.71 11.68, 12.49 12.5 C11.26 13.31, 8.23 13.68, 6.63 13.6 C5.02 13.52, 4.03 12.95, 2.87 12.01 C1.71 11.07, 0.06 9.45, -0.34 7.96 C-0.74 6.46, -0.37 4.44, 0.47 3.04 C1.31 1.65, 3.79 0.11, 4.71 -0.41 C5.62 -0.93, 5.79 -0.42, 5.96 -0.08 M10.39 -0.4 C11.71 0.22, 13.91 2.81, 14.56 4.19 C15.21 5.56, 14.83 6.39, 14.29 7.86 C13.74 9.34, 12.77 12.11, 11.31 13.05 C9.84 13.99, 6.99 13.72, 5.5 13.5 C4.01 13.29, 3.18 12.76, 2.34 11.77 C1.5 10.79, 0.55 9.22, 0.47 7.59 C0.39 5.97, 0.94 3.36, 1.86 2.03 C2.79 0.71, 4.76 -0.04, 6.02 -0.36 C7.28 -0.69, 8.81 -0.03, 9.41 0.06 C10.01 0.14, 9.62 -0.22, 9.64 0.16" stroke="#000000" stroke-width="1" fill="none"></path></g><g stroke-linecap="round"><g transform="translate(202.7852276123101 157.67132006856878) rotate(0 22.14782028549905 -0.018874074765790283)"><path d="M-0.98 -1.17 C6.56 -1.08, 37.89 -0.72, 45.28 -0.43 M0.7 0.84 C8.17 1.17, 37.36 1.26, 44.87 0.89" stroke="#000000" stroke-width="1" fill="none"></path></g></g><mask></mask><g stroke-linecap="round"><g transform="translate(203.5558347786357 170.39783471497708) rotate(0 22.819965073164553 -0.5435027411633655)"><path d="M1.02 -0.43 C8.4 -0.13, 36.17 0.65, 43.33 0.61 M0.09 -1.7 C7.93 -1.65, 38.39 -1.53, 45.55 -1.19" stroke="#000000" stroke-width="1" fill="none"></path></g></g><mask></mask><g stroke-linecap="round"><g transform="translate(201.745094608503 181.51325956838332) rotate(0 21.50804841870081 -0.024334165826473964)"><path d="M-0.94 0.61 C6.22 0.57, 36.31 -0.52, 43.95 -0.66 M0.77 -0.12 C7.66 0.03, 35.56 0.36, 42.84 0.53" stroke="#000000" stroke-width="1" fill="none"></path></g></g><mask></mask><g stroke-linecap="round" transform="translate(364.05092180874885 105.69933455605951) rotate(0 38.33333333333326 78.24742268041246)"><path d="M-1.84 -1.22 C29.1 -1.81, 57.15 -1.8, 76.1 -1.79 M-0.51 0.8 C23.8 0.33, 47.07 -0.87, 76.65 -0.8 M74.8 0.51 C76.35 55.13, 75.56 112.7, 76.48 157.12 M76.95 -0.35 C76.4 48.35, 76.6 97.19, 76.29 157.08 M77.49 155.43 C57.96 157.42, 41.45 158.74, 0.28 155.28 M76.82 156.7 C55.13 157.33, 34.86 156.7, -0.51 156.13 M-1.06 157.91 C0.5 125.11, 2.48 93.56, -1.75 -1.77 M-0.16 156.09 C0.75 112.74, 0.55 69.41, -0.76 0.9" stroke="#000000" stroke-width="1" fill="none"></path></g><g stroke-linecap="round" transform="translate(379.0681039393337 118.34538266602522) rotate(0 22.920962199312726 3.9518900343642827)"><path d="M-0.02 -1.64 C13.7 -1.35, 28.97 -1.51, 45.9 -1.68 M0.57 0.96 C18.19 -0.6, 35.12 -1.17, 46.42 -0.14 M45.81 -0.35 C45.42 2.83, 45.7 5.4, 45.94 8.11 M45.58 -0.2 C45.68 1.78, 45.71 4.19, 45.59 8.07 M45.34 8.08 C28.77 9.15, 9.6 6.44, -0.62 8.78 M44.92 8.15 C28 7.61, 10.8 7.64, -0.94 7.23 M-0.22 8.25 C0.61 6.32, -0.65 2.77, -0.16 -0.31 M0.05 7.91 C-0.01 5.07, -0.29 2.24, -0.4 -0.35" stroke="#000000" stroke-width="1" fill="none"></path></g><g stroke-linecap="round" transform="translate(381.439237959951 149.96050294093948) rotate(0 7.113402061855595 7.113402061855709)"><path d="M4.33 -0.26 C5.81 -0.85, 8.4 -0.88, 9.99 -0.21 C11.58 0.46, 13 2.32, 13.86 3.78 C14.72 5.24, 15.49 7.14, 15.14 8.56 C14.79 9.98, 13.16 11.24, 11.76 12.28 C10.36 13.32, 8.23 14.66, 6.72 14.8 C5.21 14.93, 3.96 14.04, 2.72 13.08 C1.47 12.11, -0.41 10.61, -0.74 9.01 C-1.08 7.4, -0.12 4.85, 0.71 3.47 C1.55 2.09, 3.55 1.19, 4.28 0.74 C5.01 0.28, 4.96 0.62, 5.1 0.72 M4.38 -0.54 C5.57 -1.02, 8.06 -1, 9.51 -0.06 C10.95 0.87, 12.45 3.45, 13.03 5.08 C13.62 6.71, 13.09 8.28, 13.02 9.71 C12.94 11.13, 13.82 12.94, 12.58 13.62 C11.34 14.3, 7.33 13.92, 5.59 13.81 C3.85 13.7, 2.88 13.96, 2.14 12.96 C1.4 11.96, 1.42 9.58, 1.13 7.84 C0.85 6.09, -0.38 3.56, 0.44 2.48 C1.25 1.4, 5.16 1.67, 6.03 1.37 C6.9 1.06, 5.95 0.68, 5.64 0.66" stroke="#000000" stroke-width="1" fill="none"></path></g><g stroke-linecap="round"><g transform="translate(379.8106885166842 205.77606487953972) rotate(0 22.180423981813647 0.014772554207581834)"><path d="M-0.98 -0.34 C6.39 -0.23, 35.82 -0.19, 43.19 0.04 M0.71 -1.56 C8.52 -1.19, 37.85 1.47, 45.34 1.59" stroke="#000000" stroke-width="1" fill="none"></path></g></g><mask></mask><g stroke-linecap="round"><g transform="translate(380.58129568301024 218.50257952594802) rotate(0 22.180966360686398 0.00004069494497116466)"><path d="M-1.07 0.04 C6.3 0.26, 35.8 0.84, 43.25 1 M0.57 -0.99 C8.39 -1.06, 38.44 -0.62, 45.43 -0.6" stroke="#000000" stroke-width="1" fill="none"></path></g></g><mask></mask><g stroke-linecap="round"><g transform="translate(378.77055551287754 229.61800437935426) rotate(0 22.515109952060357 0.2011727886762742)"><path d="M-1.01 1 C6.44 1.15, 35.99 0.94, 43.65 0.96 M0.66 0.48 C8.61 0.31, 38.73 -0.48, 46.04 -0.65" stroke="#000000" stroke-width="1" fill="none"></path></g></g><mask></mask><g stroke-linecap="round"><g transform="translate(142.6186331628378 380.2141160652345) rotate(0 -29.084109075211245 -42.879282711092685)"><path d="M-0.92 -1.5 C-18.39 -27.08, -35.13 -51.18, -56.02 -84.31 M-0.34 -0.16 C-15.97 -23.2, -31.16 -45.22, -57.83 -85.6" stroke="#000000" stroke-width="4" fill="none"></path></g><g transform="translate(142.6186331628378 380.2141160652345) rotate(0 -29.084109075211245 -42.879282711092685)"><path d="M-34.59 -69.31 C-42.5 -74.78, -49.15 -78.77, -56.12 -85.25 M-34.01 -67.97 C-40.82 -72.95, -47.11 -77.23, -57.93 -86.54" stroke="#000000" stroke-width="4" fill="none"></path></g><g transform="translate(142.6186331628378 380.2141160652345) rotate(0 -29.084109075211245 -42.879282711092685)"><path d="M-51.67 -57.94 C-54.36 -66.83, -55.87 -74.23, -56.12 -85.25 M-51.1 -56.6 C-53.36 -64.42, -55.12 -71.72, -57.93 -86.54" stroke="#000000" stroke-width="4" fill="none"></path></g></g><mask></mask><g stroke-linecap="round"><g transform="translate(217.6620350679525 362.89640793328476) rotate(0 -1.9476621592934862 -48.75201321497042)"><path d="M-1.16 1.53 C-0.04 -28.7, -1.06 -53.97, -4.19 -99.04 M0.72 -0.04 C-1.5 -32.89, -3.58 -65.49, -4.62 -98.16" stroke="#000000" stroke-width="4" fill="none"></path></g><g transform="translate(217.6620350679525 362.89640793328476) rotate(0 -1.9476621592934862 -48.75201321497042)"><path d="M5.62 -68.87 C4.92 -79.85, 1.83 -85.83, -4.95 -99.07 M7.5 -70.45 C2.89 -80.02, -1.68 -89.36, -5.38 -98.19" stroke="#000000" stroke-width="4" fill="none"></path></g><g transform="translate(217.6620350679525 362.89640793328476) rotate(0 -1.9476621592934862 -48.75201321497042)"><path d="M-14.88 -68.04 C-9.96 -79.14, -7.43 -85.35, -4.95 -99.07 M-13.01 -69.62 C-10.84 -79.52, -8.64 -89.14, -5.38 -98.19" stroke="#000000" stroke-width="4" fill="none"></path></g></g><mask></mask><g stroke-linecap="round"><g transform="translate(291.3174066844847 371.0690195832792) rotate(0 36.62838046517368 -39.396622778736514)"><path d="M0.57 0.28 C17.02 -16.99, 34.1 -33.14, 71.88 -78.21 M0.85 0.1 C24.65 -26.09, 48.02 -53.36, 72.68 -79.08" stroke="#000000" stroke-width="4" fill="none"></path></g><g transform="translate(291.3174066844847 371.0690195832792) rotate(0 36.62838046517368 -39.396622778736514)"><path d="M61.54 -51.18 C64.35 -57.56, 68.22 -62.47, 71.99 -77.92 M61.81 -51.36 C65.58 -60.09, 68.76 -70.2, 72.79 -78.78" stroke="#000000" stroke-width="4" fill="none"></path></g><g transform="translate(291.3174066844847 371.0690195832792) rotate(0 36.62838046517368 -39.396622778736514)"><path d="M46.53 -65.17 C52.49 -68.43, 59.62 -70.31, 71.99 -77.92 M46.8 -65.35 C55.58 -69.52, 63.74 -74.98, 72.79 -78.78" stroke="#000000" stroke-width="4" fill="none"></path></g></g><mask></mask><g stroke-linecap="round"><g transform="translate(106.05902710649957 168.55323889696115) rotate(0 27.64152517551952 -17.963413225325667)"><path d="M-1.29 1.43 C12.92 -8.8, 23.75 -15.74, 54.08 -37.36 M0.36 -0.75 C17.19 -10.84, 35.04 -22.36, 56.57 -36.26" stroke="#000000" stroke-width="4" fill="none"></path></g></g><mask></mask><g stroke-linecap="round"><g transform="translate(288.8570573881891 124.29687367086785) rotate(0 28.226863135934764 21.726707251751918)"><path d="M1.38 1.63 C12.99 10.43, 25.23 19.89, 55.68 41.44 M0.77 0.88 C20.07 16.54, 41.03 30.98, 53.61 42.58" stroke="#000000" stroke-width="4" fill="none"></path></g></g><mask></mask><g transform="translate(29.22279861932543 23.469328547072337) rotate(0 59.51852035522461 25)"><text x="59.51852035522461" y="0" font-family="Virgil, Segoe UI Emoji" font-size="20px" fill="#000000" text-anchor="middle" style="white-space: pre;" direction="ltr" dominant-baseline="text-before-edge">independent </text><text x="59.51852035522461" y="25" font-family="Virgil, Segoe UI Emoji" font-size="20px" fill="#000000" text-anchor="middle" style="white-space: pre;" direction="ltr" dominant-baseline="text-before-edge">nodes</text></g><g transform="translate(311.96411585426836 387.14119931801383) rotate(0 78.51851654052734 50)"><text x="0" y="0" font-family="Virgil, Segoe UI Emoji" font-size="20px" fill="#000000" text-anchor="start" style="white-space: pre;" direction="ltr" dominant-baseline="text-before-edge">to the user, it </text><text x="0" y="25" font-family="Virgil, Segoe UI Emoji" font-size="20px" fill="#000000" text-anchor="start" style="white-space: pre;" direction="ltr" dominant-baseline="text-before-edge">seems like they</text><text x="0" y="50" font-family="Virgil, Segoe UI Emoji" font-size="20px" fill="#000000" text-anchor="start" style="white-space: pre;" direction="ltr" dominant-baseline="text-before-edge">are using just </text><text x="0" y="75" font-family="Virgil, Segoe UI Emoji" font-size="20px" fill="#000000" text-anchor="start" style="white-space: pre;" direction="ltr" dominant-baseline="text-before-edge">one computer</text></g><g transform="translate(279.56943750540745 10) rotate(0 98.18518829345703 37.5)"><text x="98.18518829345703" y="0" font-family="Virgil, Segoe UI Emoji" font-size="20px" fill="#000000" text-anchor="middle" style="white-space: pre;" direction="ltr" dominant-baseline="text-before-edge">nodes collaborate</text><text x="98.18518829345703" y="25" font-family="Virgil, Segoe UI Emoji" font-size="20px" fill="#000000" text-anchor="middle" style="white-space: pre;" direction="ltr" dominant-baseline="text-before-edge">between each other</text><text x="98.18518829345703" y="50" font-family="Virgil, Segoe UI Emoji" font-size="20px" fill="#000000" text-anchor="middle" style="white-space: pre;" direction="ltr" dominant-baseline="text-before-edge">via message passing</text></g><g transform="translate(88.04803303579001 570.711798977021) rotate(0 149.24073791503895 17.5)"><text x="149.24073791503906" y="0" font-family="Virgil, Segoe UI Emoji" font-size="28px" fill="#000000" text-anchor="middle" style="white-space: pre;" direction="ltr" dominant-baseline="text-before-edge">Distributed Computing</text></g></svg>