<svg xmlns="http://www.w3.org/2000/svg" width="498.173" height="467.309" filter="invert(93%) hue-rotate(180deg)" version="1.1" viewBox="0 0 498.173 467.309"><defs><style class="style-fonts">@font-face{font-family:&quot;Virgil&quot;;src:url(https://excalidraw.com/Virgil.woff2)}@font-face{font-family:&quot;Cascadia&quot;;src:url(https://excalidraw.com/Cascadia.woff2)}</style></defs><rect width="498.173" height="467.309" x="0" y="0" fill="#fff"/><g stroke-linecap="round"><path fill="none" stroke="#000" stroke-width="2" d="M0 0 C5.34 0, 10.68 0, 24.01 0 M0 0 C4.85 0, 9.69 0, 24.01 0 M24.01 0 C24.01 24.88, 24.01 49.77, 24.01 76.83 M24.01 0 C24.01 21.91, 24.01 43.82, 24.01 76.83 M24.01 76.83 C18.1 76.83, 12.18 76.83, 0 76.83 M24.01 76.83 C18.65 76.83, 13.29 76.83, 0 76.83 M0 76.83 C0 51.93, 0 27.03, 0 0 M0 76.83 C0 49.46, 0 22.09, 0 0" transform="translate(138.2107414079469 74.02460002847408) rotate(0 12.004479066050976 38.41433301136345)"/></g><g stroke-linecap="round"><path fill="none" stroke="#000" stroke-width="2" d="M0 0 C5.34 0, 10.68 0, 24.01 0 M0 0 C4.85 0, 9.69 0, 24.01 0 M24.01 0 C24.01 24.88, 24.01 49.77, 24.01 76.83 M24.01 0 C24.01 21.91, 24.01 43.82, 24.01 76.83 M24.01 76.83 C18.1 76.83, 12.18 76.83, 0 76.83 M24.01 76.83 C18.65 76.83, 13.29 76.83, 0 76.83 M0 76.83 C0 51.93, 0 27.03, 0 0 M0 76.83 C0 49.46, 0 22.09, 0 0" transform="translate(138.2107414079469 161.65729721064713) rotate(0 12.004479066050976 38.41433301136351)"/></g><g stroke-linecap="round"><path fill="none" stroke="#000" stroke-width="2" d="M0 0 C5.34 0, 10.68 0, 24.01 0 M0 0 C4.85 0, 9.69 0, 24.01 0 M24.01 0 C24.01 24.88, 24.01 49.77, 24.01 76.83 M24.01 0 C24.01 21.91, 24.01 43.82, 24.01 76.83 M24.01 76.83 C18.1 76.83, 12.18 76.83, 0 76.83 M24.01 76.83 C18.65 76.83, 13.29 76.83, 0 76.83 M0 76.83 C0 51.93, 0 27.03, 0 0 M0 76.83 C0 49.46, 0 22.09, 0 0" transform="translate(139.4111893145523 248.68977043951702) rotate(0 12.004479066050976 38.41433301136345)"/></g><g stroke-linecap="round"><path fill="none" stroke="#000" stroke-width="2" d="M0 0 C5.34 0, 10.68 0, 24.01 0 M0 0 C4.85 0, 9.69 0, 24.01 0 M24.01 0 C24.01 24.88, 24.01 49.77, 24.01 76.83 M24.01 0 C24.01 21.91, 24.01 43.82, 24.01 76.83 M24.01 76.83 C18.1 76.83, 12.18 76.83, 0 76.83 M24.01 76.83 C18.65 76.83, 13.29 76.83, 0 76.83 M0 76.83 C0 51.93, 0 27.03, 0 0 M0 76.83 C0 49.46, 0 22.09, 0 0" transform="translate(139.4111893145523 336.3224676216902) rotate(0 12.004479066050976 38.41433301136348)"/></g><g stroke-linecap="round"><path fill="none" stroke="#000" stroke-width="2" d="M0 0 C5.34 0, 10.68 0, 24.01 0 M0 0 C4.85 0, 9.69 0, 24.01 0 M24.01 0 C24.01 24.88, 24.01 49.77, 24.01 76.83 M24.01 0 C24.01 21.91, 24.01 43.82, 24.01 76.83 M24.01 76.83 C18.1 76.83, 12.18 76.83, 0 76.83 M24.01 76.83 C18.65 76.83, 13.29 76.83, 0 76.83 M0 76.83 C0 51.93, 0 27.03, 0 0 M0 76.83 C0 49.46, 0 22.09, 0 0" transform="translate(172.42350674619252 73.72448805182262) rotate(0 12.004479066050976 38.41433301136351)"/></g><g stroke-linecap="round"><path fill="none" stroke="#000" stroke-width="2" d="M0 0 C5.8 0, 11.6 0, 26.07 0 M0 0 C5.26 0, 10.53 0, 26.07 0 M26.07 0 C26.07 24.88, 26.07 49.77, 26.07 76.83 M26.07 0 C26.07 21.91, 26.07 43.82, 26.07 76.83 M26.07 76.83 C19.65 76.83, 13.23 76.83, 0 76.83 M26.07 76.83 C20.26 76.83, 14.44 76.83, 0 76.83 M0 76.83 C0 51.93, 0 27.03, 0 0 M0 76.83 C0 49.46, 0 22.09, 0 0" transform="translate(172.42350674619252 161.35718523399578) rotate(0 13.037036895751953 38.41433301136351)"/></g><g stroke-linecap="round"><path fill="none" stroke="#000" stroke-width="2" d="M0 0 C5.34 0, 10.68 0, 24.01 0 M0 0 C4.85 0, 9.69 0, 24.01 0 M24.01 0 C24.01 24.88, 24.01 49.77, 24.01 76.83 M24.01 0 C24.01 21.91, 24.01 43.82, 24.01 76.83 M24.01 76.83 C18.1 76.83, 12.18 76.83, 0 76.83 M24.01 76.83 C18.65 76.83, 13.29 76.83, 0 76.83 M0 76.83 C0 51.93, 0 27.03, 0 0 M0 76.83 C0 49.46, 0 22.09, 0 0" transform="translate(173.62395465279792 248.38965846286555) rotate(0 12.004479066050976 38.41433301136351)"/></g><g stroke-linecap="round"><path fill="none" stroke="#000" stroke-width="2" d="M0 0 C5.34 0, 10.68 0, 24.01 0 M0 0 C4.85 0, 9.69 0, 24.01 0 M24.01 0 C24.01 24.88, 24.01 49.77, 24.01 76.83 M24.01 0 C24.01 21.91, 24.01 43.82, 24.01 76.83 M24.01 76.83 C18.1 76.83, 12.18 76.83, 0 76.83 M24.01 76.83 C18.65 76.83, 13.29 76.83, 0 76.83 M0 76.83 C0 51.93, 0 27.03, 0 0 M0 76.83 C0 49.46, 0 22.09, 0 0" transform="translate(173.62395465279792 336.0223556450387) rotate(0 12.004479066050976 38.41433301136348)"/></g><g stroke-linecap="round"><path fill="none" stroke="#000" stroke-width="2" d="M0 0 C5.34 0, 10.68 0, 24.01 0 M0 0 C4.85 0, 9.69 0, 24.01 0 M24.01 0 C24.01 24.88, 24.01 49.77, 24.01 76.83 M24.01 0 C24.01 21.91, 24.01 43.82, 24.01 76.83 M24.01 76.83 C18.1 76.83, 12.18 76.83, 0 76.83 M24.01 76.83 C18.65 76.83, 13.29 76.83, 0 76.83 M0 76.83 C0 51.93, 0 27.03, 0 0 M0 76.83 C0 49.46, 0 22.09, 0 0" transform="translate(208.7218967726592 71.95382738958028) rotate(0 12.004479066050976 38.41433301136351)"/></g><g stroke-linecap="round"><path fill="none" stroke="#000" stroke-width="2" d="M0 0 C5.34 0, 10.68 0, 24.01 0 M0 0 C4.85 0, 9.69 0, 24.01 0 M24.01 0 C24.01 24.88, 24.01 49.77, 24.01 76.83 M24.01 0 C24.01 21.91, 24.01 43.82, 24.01 76.83 M24.01 76.83 C18.1 76.83, 12.18 76.83, 0 76.83 M24.01 76.83 C18.65 76.83, 13.29 76.83, 0 76.83 M0 76.83 C0 51.93, 0 27.03, 0 0 M0 76.83 C0 49.46, 0 22.09, 0 0" transform="translate(208.7218967726592 159.58652457175344) rotate(0 12.004479066050976 38.41433301136351)"/></g><g stroke-linecap="round"><path fill="none" stroke="#000" stroke-width="2" d="M0 0 C5.34 0, 10.68 0, 24.01 0 M0 0 C4.85 0, 9.69 0, 24.01 0 M24.01 0 C24.01 24.88, 24.01 49.77, 24.01 76.83 M24.01 0 C24.01 21.91, 24.01 43.82, 24.01 76.83 M24.01 76.83 C18.1 76.83, 12.18 76.83, 0 76.83 M24.01 76.83 C18.65 76.83, 13.29 76.83, 0 76.83 M0 76.83 C0 51.93, 0 27.03, 0 0 M0 76.83 C0 49.46, 0 22.09, 0 0" transform="translate(209.9223446792646 246.61899780062345) rotate(0 12.004479066050976 38.41433301136351)"/></g><g stroke-linecap="round"><path fill="none" stroke="#000" stroke-width="2" d="M0 0 C5.34 0, 10.68 0, 24.01 0 M0 0 C4.85 0, 9.69 0, 24.01 0 M24.01 0 C24.01 24.88, 24.01 49.77, 24.01 76.83 M24.01 0 C24.01 21.91, 24.01 43.82, 24.01 76.83 M24.01 76.83 C18.1 76.83, 12.18 76.83, 0 76.83 M24.01 76.83 C18.65 76.83, 13.29 76.83, 0 76.83 M0 76.83 C0 51.93, 0 27.03, 0 0 M0 76.83 C0 49.46, 0 22.09, 0 0" transform="translate(209.9223446792646 334.2516949827966) rotate(0 12.004479066050976 38.41433301136348)"/></g><g stroke-linecap="round"><path fill="none" stroke="#000" stroke-width="2" d="M0 0 C5.34 0, 10.68 0, 24.01 0 M0 0 C4.85 0, 9.69 0, 24.01 0 M24.01 0 C24.01 24.88, 24.01 49.77, 24.01 76.83 M24.01 0 C24.01 21.91, 24.01 43.82, 24.01 76.83 M24.01 76.83 C18.1 76.83, 12.18 76.83, 0 76.83 M24.01 76.83 C18.65 76.83, 13.29 76.83, 0 76.83 M0 76.83 C0 51.93, 0 27.03, 0 0 M0 76.83 C0 49.46, 0 22.09, 0 0" transform="translate(242.93466211090458 71.65371541292893) rotate(0 12.004479066050976 38.41433301136351)"/></g><g stroke-linecap="round"><path fill="none" stroke="#000" stroke-width="2" d="M0 0 C5.8 0, 11.6 0, 26.07 0 M0 0 C5.26 0, 10.53 0, 26.07 0 M26.07 0 C26.07 24.88, 26.07 49.77, 26.07 76.83 M26.07 0 C26.07 21.91, 26.07 43.82, 26.07 76.83 M26.07 76.83 C19.65 76.83, 13.23 76.83, 0 76.83 M26.07 76.83 C20.26 76.83, 14.44 76.83, 0 76.83 M0 76.83 C0 51.93, 0 27.03, 0 0 M0 76.83 C0 49.46, 0 22.09, 0 0" transform="translate(242.93466211090458 159.2864125951021) rotate(0 13.037036895751953 38.41433301136351)"/></g><g stroke-linecap="round"><path fill="none" stroke="#000" stroke-width="2" d="M0 0 C5.34 0, 10.68 0, 24.01 0 M0 0 C4.85 0, 9.69 0, 24.01 0 M24.01 0 C24.01 24.88, 24.01 49.77, 24.01 76.83 M24.01 0 C24.01 21.91, 24.01 43.82, 24.01 76.83 M24.01 76.83 C18.1 76.83, 12.18 76.83, 0 76.83 M24.01 76.83 C18.65 76.83, 13.29 76.83, 0 76.83 M0 76.83 C0 51.93, 0 27.03, 0 0 M0 76.83 C0 49.46, 0 22.09, 0 0" transform="translate(244.13511001751 246.31888582397187) rotate(0 12.004479066050976 38.41433301136351)"/></g><g stroke-linecap="round"><path fill="none" stroke="#000" stroke-width="2" d="M0 0 C5.34 0, 10.68 0, 24.01 0 M0 0 C4.85 0, 9.69 0, 24.01 0 M24.01 0 C24.01 24.88, 24.01 49.77, 24.01 76.83 M24.01 0 C24.01 21.91, 24.01 43.82, 24.01 76.83 M24.01 76.83 C18.1 76.83, 12.18 76.83, 0 76.83 M24.01 76.83 C18.65 76.83, 13.29 76.83, 0 76.83 M0 76.83 C0 51.93, 0 27.03, 0 0 M0 76.83 C0 49.46, 0 22.09, 0 0" transform="translate(244.13511001751 333.95158300614503) rotate(0 12.004479066050976 38.41433301136348)"/></g><g stroke-linecap="round"><path fill="none" stroke="#000" stroke-width="2" d="M0 0 C5.34 0, 10.68 0, 24.01 0 M0 0 C4.85 0, 9.69 0, 24.01 0 M24.01 0 C24.01 24.88, 24.01 49.77, 24.01 76.83 M24.01 0 C24.01 21.91, 24.01 43.82, 24.01 76.83 M24.01 76.83 C18.1 76.83, 12.18 76.83, 0 76.83 M24.01 76.83 C18.65 76.83, 13.29 76.83, 0 76.83 M0 76.83 C0 51.93, 0 27.03, 0 0 M0 76.83 C0 49.46, 0 22.09, 0 0" transform="translate(305.8648960769449 74.04232738697692) rotate(0 12.004479066050976 38.41433301136351)"/></g><g stroke-linecap="round"><path fill="none" stroke="#000" stroke-width="2" d="M0 0 C5.8 0, 11.6 0, 26.07 0 M0 0 C5.26 0, 10.53 0, 26.07 0 M26.07 0 C26.07 24.88, 26.07 49.77, 26.07 76.83 M26.07 0 C26.07 21.91, 26.07 43.82, 26.07 76.83 M26.07 76.83 C19.65 76.83, 13.23 76.83, 0 76.83 M26.07 76.83 C20.26 76.83, 14.44 76.83, 0 76.83 M0 76.83 C0 51.93, 0 27.03, 0 0 M0 76.83 C0 49.46, 0 22.09, 0 0" transform="translate(305.8648960769449 161.67502456915008) rotate(0 13.037036895751953 38.41433301136351)"/></g><g stroke-linecap="round"><path fill="none" stroke="#000" stroke-width="2" d="M0 0 C5.34 0, 10.68 0, 24.01 0 M0 0 C4.85 0, 9.69 0, 24.01 0 M24.01 0 C24.01 24.88, 24.01 49.77, 24.01 76.83 M24.01 0 C24.01 21.91, 24.01 43.82, 24.01 76.83 M24.01 76.83 C18.1 76.83, 12.18 76.83, 0 76.83 M24.01 76.83 C18.65 76.83, 13.29 76.83, 0 76.83 M0 76.83 C0 51.93, 0 27.03, 0 0 M0 76.83 C0 49.46, 0 22.09, 0 0" transform="translate(307.0653439835503 248.70749779801986) rotate(0 12.004479066050976 38.41433301136351)"/></g><g stroke-linecap="round"><path fill="none" stroke="#000" stroke-width="2" d="M0 0 C5.34 0, 10.68 0, 24.01 0 M0 0 C4.85 0, 9.69 0, 24.01 0 M24.01 0 C24.01 24.88, 24.01 49.77, 24.01 76.83 M24.01 0 C24.01 21.91, 24.01 43.82, 24.01 76.83 M24.01 76.83 C18.1 76.83, 12.18 76.83, 0 76.83 M24.01 76.83 C18.65 76.83, 13.29 76.83, 0 76.83 M0 76.83 C0 51.93, 0 27.03, 0 0 M0 76.83 C0 49.46, 0 22.09, 0 0" transform="translate(307.0653439835503 336.340194980193) rotate(0 12.004479066050976 38.41433301136348)"/></g><g stroke-linecap="round"><path fill="none" stroke="#000" stroke-width="2" d="M0 0 C28.58 0, 57.16 0, 84.59 0 M0 0 C23.53 0, 47.06 0, 84.59 0 M84.59 0 C84.59 104.94, 84.59 209.89, 84.59 323.9 M84.59 0 C84.59 126.18, 84.59 252.35, 84.59 323.9 M84.59 323.9 C67.4 323.9, 50.2 323.9, 0 323.9 M84.59 323.9 C63.85 323.9, 43.12 323.9, 0 323.9 M0 323.9 C0 200.76, 0 77.62, 0 0 M0 323.9 C0 217.51, 0 111.12, 0 0" transform="translate(10.755261449811314 82.3695764453172) rotate(0 42.29464118941564 161.95228594844997)"/></g><g stroke-linecap="round"><g><path fill="none" stroke="#000" stroke-width="2" d="M0 0 C22.31 0.41, 44.62 0.81, 83.08 1.51 M0 0 C30.6 0.56, 61.2 1.11, 83.08 1.51" transform="translate(12.265784349433034 150.187133924338) rotate(0 41.5393797396049 0.7552614498109733)"/></g></g><g stroke-linecap="round"><g><path fill="none" stroke="#000" stroke-width="2" d="M0 0 C22.31 0.41, 44.62 0.81, 83.08 1.51 M0 0 C30.6 0.56, 61.2 1.11, 83.08 1.51" transform="translate(10 241.33980984551522) rotate(0 41.5393797396049 0.7552614498109733)"/></g></g><g stroke-linecap="round"><g><path fill="none" stroke="#000" stroke-width="2" d="M0 0 C22.31 0.41, 44.62 0.81, 83.08 1.51 M0 0 C30.6 0.56, 61.2 1.11, 83.08 1.51" transform="translate(14.531568698866067 330.4606609232127) rotate(0 41.5393797396049 0.7552614498109733)"/></g></g><g stroke-linecap="round"><g><path fill="none" stroke="#000" stroke-width="1" d="M0 0 C11.43 0, 22.86 0, 39.33 0 M0 0 C15.35 0, 30.71 0, 39.33 0" transform="translate(350.01378079823144 108.51855392782636) rotate(0 19.666556126483556 0)"/></g><g><path fill="none" stroke="#000" stroke-width="1" d="M20.85 6.73 C26.22 4.77, 31.59 2.82, 39.33 0 M20.85 6.73 C28.07 4.1, 35.28 1.48, 39.33 0" transform="translate(350.01378079823144 108.51855392782636) rotate(0 19.666556126483556 0)"/></g><g><path fill="none" stroke="#000" stroke-width="1" d="M20.85 -6.73 C26.22 -4.77, 31.59 -2.82, 39.33 0 M20.85 -6.73 C28.07 -4.1, 35.28 -1.48, 39.33 0" transform="translate(350.01378079823144 108.51855392782636) rotate(0 19.666556126483556 0)"/></g></g><g stroke-linecap="round"><g><path fill="none" stroke="#000" stroke-width="1" d="M0 0 C11.43 0, 22.86 0, 39.33 0 M0 0 C15.35 0, 30.71 0, 39.33 0" transform="translate(352.5775554925301 199.69407149388553) rotate(0 19.666556126483556 0)"/></g><g><path fill="none" stroke="#000" stroke-width="1" d="M20.85 6.73 C26.22 4.77, 31.59 2.82, 39.33 0 M20.85 6.73 C28.07 4.1, 35.28 1.48, 39.33 0" transform="translate(352.5775554925301 199.69407149388553) rotate(0 19.666556126483556 0)"/></g><g><path fill="none" stroke="#000" stroke-width="1" d="M20.85 -6.73 C26.22 -4.77, 31.59 -2.82, 39.33 0 M20.85 -6.73 C28.07 -4.1, 35.28 -1.48, 39.33 0" transform="translate(352.5775554925301 199.69407149388553) rotate(0 19.666556126483556 0)"/></g></g><g stroke-linecap="round"><g><path fill="none" stroke="#000" stroke-width="1" d="M0 0 C11.43 0, 22.86 0, 39.33 0 M0 0 C15.35 0, 30.71 0, 39.33 0" transform="translate(349.62880007318813 287.4490327735083) rotate(0 19.666556126483556 0)"/></g><g><path fill="none" stroke="#000" stroke-width="1" d="M20.85 6.73 C26.22 4.77, 31.59 2.82, 39.33 0 M20.85 6.73 C28.07 4.1, 35.28 1.48, 39.33 0" transform="translate(349.62880007318813 287.4490327735083) rotate(0 19.666556126483556 0)"/></g><g><path fill="none" stroke="#000" stroke-width="1" d="M20.85 -6.73 C26.22 -4.77, 31.59 -2.82, 39.33 0 M20.85 -6.73 C28.07 -4.1, 35.28 -1.48, 39.33 0" transform="translate(349.62880007318813 287.4490327735083) rotate(0 19.666556126483556 0)"/></g></g><g stroke-linecap="round"><g><path fill="none" stroke="#000" stroke-width="1" d="M0 0 C11.43 0, 22.86 0, 39.33 0 M0 0 C15.35 0, 30.71 0, 39.33 0" transform="translate(349.62880007318836 379.3322516402102) rotate(0 19.666556126483556 0)"/></g><g><path fill="none" stroke="#000" stroke-width="1" d="M20.85 6.73 C26.22 4.77, 31.59 2.82, 39.33 0 M20.85 6.73 C28.07 4.1, 35.28 1.48, 39.33 0" transform="translate(349.62880007318836 379.3322516402102) rotate(0 19.666556126483556 0)"/></g><g><path fill="none" stroke="#000" stroke-width="1" d="M20.85 -6.73 C26.22 -4.77, 31.59 -2.82, 39.33 0 M20.85 -6.73 C28.07 -4.1, 35.28 -1.48, 39.33 0" transform="translate(349.62880007318836 379.3322516402102) rotate(0 19.666556126483556 0)"/></g></g><g stroke-linecap="round"><path fill="none" stroke="#000" stroke-width="2" d="M0 0 C11.7 0, 23.41 0, 52.62 0 M0 0 C10.62 0, 21.24 0, 52.62 0 M52.62 0 C52.62 23.25, 52.62 46.5, 52.62 71.79 M52.62 0 C52.62 20.47, 52.62 40.95, 52.62 71.79 M52.62 71.79 C39.66 71.79, 26.7 71.79, 0 71.79 M52.62 71.79 C40.87 71.79, 29.13 71.79, 0 71.79 M0 71.79 C0 48.53, 0 25.26, 0 0 M0 71.79 C0 46.22, 0 20.64, 0 0" transform="translate(416.53241009335125 74.5830189887962) rotate(0 26.308092483169503 35.89521013731172)"/></g><g stroke-linecap="round"><path fill="none" stroke="#000" stroke-width="2" d="M0 0 C12.13 0, 24.26 0, 54.55 0 M0 0 C11.01 0, 22.02 0, 54.55 0 M54.55 0 C54.55 23.25, 54.55 46.5, 54.55 71.79 M54.55 0 C54.55 20.47, 54.55 40.95, 54.55 71.79 M54.55 71.79 C41.11 71.79, 27.68 71.79, 0 71.79 M54.55 71.79 C42.37 71.79, 30.2 71.79, 0 71.79 M0 71.79 C0 48.53, 0 25.26, 0 0 M0 71.79 C0 46.22, 0 20.64, 0 0" transform="translate(416.53241009335125 156.46896711453883) rotate(0 27.272937564953963 35.89521013731172)"/></g><g stroke-linecap="round"><path fill="none" stroke="#000" stroke-width="2" d="M0 0 C12.06 0, 24.11 0, 54.2 0 M0 0 C10.94 0, 21.89 0, 54.2 0 M54.2 0 C54.2 23.25, 54.2 46.5, 54.2 71.79 M54.2 0 C54.2 20.47, 54.2 40.95, 54.2 71.79 M54.2 71.79 C40.85 71.79, 27.5 71.79, 0 71.79 M54.2 71.79 C42.11 71.79, 30.01 71.79, 0 71.79 M0 71.79 C0 48.53, 0 25.26, 0 0 M0 71.79 C0 46.22, 0 20.64, 0 0" transform="translate(417.65413541014254 237.79405258188513) rotate(0 27.102347183972938 35.89521013731172)"/></g><g stroke-linecap="round"><path fill="none" stroke="#000" stroke-width="2" d="M0 0 C12.41 0, 24.82 0, 55.79 0 M0 0 C11.26 0, 22.53 0, 55.79 0 M55.79 0 C55.79 23.25, 55.79 46.5, 55.79 71.79 M55.79 0 C55.79 20.47, 55.79 40.95, 55.79 71.79 M55.79 71.79 C42.05 71.79, 28.31 71.79, 0 71.79 M55.79 71.79 C43.34 71.79, 30.89 71.79, 0 71.79 M0 71.79 C0 48.53, 0 25.26, 0 0 M0 71.79 C0 46.22, 0 20.64, 0 0" transform="translate(417.65413541014254 319.68000070762764) rotate(0 27.896601884775578 35.89521013731172)"/></g><g><text x="41.13" y="0" fill="#000" direction="ltr" dominant-baseline="text-before-edge" font-family="Virgil, Segoe UI Emoji" font-size="16" text-anchor="middle" style="white-space:pre" transform="translate(405.91341936429217 29.697516579918897) rotate(0 41.12963104248047 10)">processors</text></g><g><text x="28.759" y="0" fill="#000" direction="ltr" dominant-baseline="text-before-edge" font-family="Virgil, Segoe UI Emoji" font-size="16" text-anchor="middle" style="white-space:pre" transform="translate(17.97942102437537 30.6506222208817) rotate(0 28.759260177612305 10)">Problem</text></g><g stroke="none"><path fill="#000" d="M 1.57,-1.57 Q 1.57,-1.57 1.77,-1.27 1.98,-0.98 2.09,-0.64 2.20,-0.29 2.19,0.05 2.18,0.41 2.05,0.75 1.93,1.09 1.70,1.37 1.48,1.65 1.18,1.84 0.87,2.04 0.52,2.12 0.18,2.21 -0.17,2.18 -0.53,2.15 -0.86,2.01 -1.19,1.87 -1.46,1.63 -1.73,1.39 -1.90,1.07 -2.08,0.76 -2.15,0.41 -2.21,0.05 -2.17,-0.29 -2.12,-0.65 -1.96,-0.97 -1.80,-1.29 -1.54,-1.54 -1.29,-1.80 -0.97,-1.96 -0.65,-2.12 -0.29,-2.17 0.06,-2.21 0.41,-2.15 0.76,-2.08 1.07,-1.90 1.39,-1.73 1.63,-1.46 1.87,-1.19 2.01,-0.86 2.15,-0.53 2.18,-0.17 2.21,0.18 2.12,0.52 2.03,0.87 1.84,1.18 1.65,1.48 1.37,1.70 1.09,1.93 0.75,2.05 0.41,2.18 0.05,2.19 -0.30,2.20 -0.64,2.09 -0.98,1.98 -1.27,1.77 -1.57,1.56 -1.57,1.57 -1.57,1.57 -1.73,1.35 -1.90,1.14 -2.01,0.90 -2.12,0.66 -2.16,0.39 -2.21,0.13 -2.20,-0.13 -2.18,-0.40 -2.10,-0.65 -2.02,-0.91 -1.88,-1.14 -1.74,-1.36 -1.55,-1.55 -1.36,-1.74 -1.14,-1.88 -0.91,-2.02 -0.65,-2.10 -0.40,-2.18 -0.13,-2.20 0.13,-2.21 0.39,-2.16 0.66,-2.12 0.90,-2.01 1.14,-1.90 1.35,-1.73 1.57,-1.57 1.57,-1.57 L 1.57,-1.57 Z" transform="translate(339.02441109754454 10) rotate(0 0.00004999999998744897 0.00004999999998744897)"/></g><g><text x="45.167" y="0" fill="#000" direction="ltr" dominant-baseline="text-before-edge" font-family="Virgil, Segoe UI Emoji" font-size="16" text-anchor="middle" style="white-space:pre" transform="translate(160.4229534243841 27.47360341766921) rotate(0 45.16666793823242 10)">instructions</text></g><g><text x="6.685" y="0" fill="#000" direction="ltr" dominant-baseline="text-before-edge" font-family="Virgil, Segoe UI Emoji" font-size="16" text-anchor="middle" style="white-space:pre" transform="translate(325.9851885355224 432.5435008272732) rotate(0 6.685184955596924 10)">t1</text></g><g><text x="8.259" y="0" fill="#000" direction="ltr" dominant-baseline="text-before-edge" font-family="Virgil, Segoe UI Emoji" font-size="16" text-anchor="middle" style="white-space:pre" transform="translate(144.9095518856709 437.309029032092) rotate(0 8.259259223937988 10)">tn</text></g></svg>