<svg xmlns="http://www.w3.org/2000/svg" width="3773.536" height="3368.677" version="1.1" viewBox="0 0 1886.768 1684.339"><defs><style class="style-fonts">@font-face{font-family:&quot;Virgil&quot;;src:url(https://excalidraw.com/Virgil.woff2)}@font-face{font-family:&quot;Cascadia&quot;;src:url(https://excalidraw.com/Cascadia.woff2)}</style></defs><rect width="1886.768" height="1684.339" x="0" y="0" fill="#fff"/><g stroke-linecap="round"><path fill="none" stroke="#000" stroke-width="4" d="M23.03 0 M23.03 0 C66.41 -2.78, 109.85 -0.48, 170.18 0 M23.03 0 C79.56 1.46, 134.67 0.87, 170.18 0 M170.18 0 C186.22 1.48, 194.51 6.72, 193.21 23.03 M170.18 0 C186.38 -0.29, 194.36 8.26, 193.21 23.03 M193.21 23.03 C192.63 33.29, 192.87 46.49, 193.21 69.08 M193.21 23.03 C194.45 34.26, 194.38 44.52, 193.21 69.08 M193.21 69.08 C191.67 84.47, 184.9 92.66, 170.18 92.11 M193.21 69.08 C191.17 85.34, 186.1 90.86, 170.18 92.11 M170.18 92.11 C125.76 91.12, 79.08 92.24, 23.03 92.11 M170.18 92.11 C135.56 91.2, 98.72 92.79, 23.03 92.11 M23.03 92.11 C8.85 91.81, -1.32 84.1, 0 69.08 M23.03 92.11 C8.35 90.04, 1.94 83.09, 0 69.08 M0 69.08 C1.17 58.59, -1.5 48.2, 0 23.03 M0 69.08 C0.81 57.83, 0.75 44.34, 0 23.03 M0 23.03 C0.02 5.98, 5.72 1.82, 23.03 0 M0 23.03 C-1.31 5.81, 8.2 1.11, 23.03 0" transform="translate(679.243692992438 411.73236999771166) rotate(0 96.60578133364697 46.056244589296824)"/></g><g stroke-linecap="round"><path fill="none" stroke="#000" stroke-width="4" d="M41.51 0.74 C48.63 0.09, 58.15 2.3, 64.89 5.97 C71.62 9.65, 78.46 16.45, 81.92 22.78 C85.38 29.11, 86.9 37.3, 85.64 43.98 C84.37 50.66, 79.51 57.89, 74.3 62.85 C69.09 67.81, 61.42 71.8, 54.38 73.72 C47.35 75.65, 39.49 76.06, 32.09 74.4 C24.69 72.75, 15.15 68.8, 9.97 63.8 C4.79 58.79, 2.14 51.1, 1 44.38 C-0.14 37.66, 0.16 29.91, 3.11 23.48 C6.07 17.04, 11.45 9.72, 18.74 5.76 C26.02 1.8, 41.26 0.46, 46.81 -0.27 C52.35 -1.01, 52.09 0.56, 52 1.35 M50.52 1.15 C58.16 1.58, 67.14 4.5, 72.71 9.23 C78.28 13.96, 82.3 22.88, 83.96 29.53 C85.62 36.19, 85.09 42.95, 82.68 49.15 C80.26 55.35, 75.3 62.01, 69.46 66.76 C63.62 71.5, 55.46 76.55, 47.65 77.63 C39.84 78.72, 29.52 76.54, 22.59 73.29 C15.67 70.04, 9.92 64.02, 6.09 58.12 C2.26 52.22, -0.75 44.9, -0.38 37.89 C-0.02 30.87, 3.91 22.11, 8.26 16.05 C12.61 9.99, 18.64 3.96, 25.74 1.53 C32.84 -0.89, 46.76 1.77, 50.87 1.49 C54.98 1.22, 50.4 -0.73, 50.41 -0.09" transform="translate(730.9165527755514 249.97385241579116) rotate(0 42.686275473006845 38.192983317953434)"/></g><g stroke-linecap="round"><g><path fill="none" stroke="#000" stroke-width="4" d="M-1.09 0.59 C-0.72 14.58, 0.77 70.12, 1.4 83.93 M0.54 -0.15 C1.35 13.51, 3.4 68.65, 3.67 82.23" transform="translate(771.3561821710317 328.6064651292247) rotate(0 1.291431325523149 41.88962428837533)"/></g></g><g stroke-linecap="round"><g><path fill="none" stroke="#000" stroke-width="4" d="M0.12 0.4 C-12.03 -5.25, -61.13 -28.79, -72.94 -34.87 M-1.28 -0.44 C-13.07 -6.31, -59.17 -30.7, -70.78 -36.43" transform="translate(769.109536093505 364.5528023696515) rotate(0 -36.410725090145036 -18.01900946498148)"/></g></g><g stroke-linecap="round"><g><path fill="none" stroke="#000" stroke-width="4" d="M-0.35 -0.81 C9.83 -5.82, 51.57 -25.97, 61.81 -30.98 M1.66 1.38 C11.72 -3.92, 51.65 -27.15, 61.47 -32.85" transform="translate(778.0961204036117 369.04609452470487) rotate(0 30.729188247527986 -15.735310510761622)"/></g></g><g stroke-linecap="round"><path fill="none" stroke="#000" stroke-width="4" d="M13 0 M13 0 C49.74 -0.49, 89.27 0.05, 192 0 M13 0 C82.75 0.62, 153.77 2.47, 192 0 M192 0 C201.64 -0.23, 206.41 5.45, 205 13 M192 0 C200.3 -0.95, 206.25 4.18, 205 13 M205 13 C206.56 20.36, 203.07 24.41, 205 39 M205 13 C204.25 22.57, 205.16 33.51, 205 39 M205 39 C203.08 46.65, 200.86 50.46, 192 52 M205 39 C204.64 47.78, 201.21 51.43, 192 52 M192 52 C153.78 53.25, 115.52 53.45, 13 52 M192 52 C151.62 52.87, 111.28 52.02, 13 52 M13 52 C4.15 53.49, 0.27 48.19, 0 39 M13 52 C3.21 51.09, -1.46 48.53, 0 39 M0 39 C-1.84 31.76, 0.32 27.05, 0 13 M0 39 C-1.08 30.94, -0.21 24.06, 0 13 M0 13 C1.57 4.18, 3.31 -0.3, 13 0 M0 13 C-1.88 5.95, 5.75 1.85, 13 0" transform="translate(668.397566359731 182.58156589212433) rotate(0 102.5 26)"/></g><g><text x="75.55" y="0" fill="#000" direction="ltr" dominant-baseline="text-before-edge" font-family="Virgil, Segoe UI Emoji" font-size="20" text-anchor="middle" style="white-space:pre" transform="translate(695.3475633079731 196.08156589212433) rotate(0 75.55000305175781 12.5)">lemonade stand</text></g><g stroke-linecap="round"><g><path fill="none" stroke="#000" stroke-width="4" d="M0.03 0.84 C1.22 33.93, 6.7 165.96, 8.3 199.31 M-1.42 0.23 C-0.52 33.42, 5.39 167.41, 7.19 200.56" transform="translate(670.403226200136 234.22611132462134) rotate(0 3.4421717175065396 100.395474555931)"/></g></g><g stroke-linecap="round"><g><path fill="none" stroke="#000" stroke-width="4" d="M-0.05 0.37 C0.79 32.12, 3.26 159.28, 3.91 191.19 M-1.53 -0.48 C-0.75 31.32, 2.24 159.96, 3.01 192.19" transform="translate(867.3960119773753 234.22611132462134) rotate(0 1.1900416945108532 95.85361737417111)"/></g></g><g stroke-linecap="round"><path fill="none" stroke="#000" stroke-width="4" d="M39.31 0.46 C45.82 -0.19, 52.3 1.8, 58.05 6.04 C63.81 10.29, 70.95 18.53, 73.81 25.91 C76.68 33.3, 76.4 42.75, 75.24 50.36 C74.08 57.97, 71.43 65.87, 66.86 71.57 C62.29 77.27, 54.39 82.49, 47.8 84.59 C41.21 86.68, 33.72 86.48, 27.32 84.12 C20.92 81.76, 13.79 76.13, 9.42 70.41 C5.05 64.68, 2.17 57.2, 1.11 49.77 C0.04 42.34, 0.38 33.15, 3.03 25.84 C5.68 18.53, 10.44 10.34, 16.99 5.9 C23.54 1.46, 37.45 -0.04, 42.31 -0.79 C47.18 -1.53, 46.45 0.59, 46.18 1.41 M45.43 1.39 C51.96 1.74, 59.34 5.41, 64.33 10.51 C69.32 15.62, 73.52 24.05, 75.38 32.02 C77.24 39.99, 77.65 50.86, 75.5 58.33 C73.36 65.81, 68.12 72.4, 62.52 76.87 C56.91 81.34, 48.92 84.38, 41.89 85.13 C34.87 85.88, 26.55 84.52, 20.36 81.36 C14.16 78.19, 8.01 72.59, 4.71 66.13 C1.41 59.67, 0.42 50.54, 0.57 42.58 C0.72 34.62, 1.55 24.8, 5.6 18.36 C9.65 11.91, 18.24 6.66, 24.86 3.91 C31.47 1.16, 41.78 2.18, 45.31 1.85 C48.84 1.52, 46.4 1.5, 46.04 1.92" transform="translate(491.27312577276325 235.396180957634) rotate(0 38.16637186643305 43.10554940208908)"/></g><g stroke-linecap="round"><g><path fill="none" stroke="#000" stroke-width="4" d="M-0.1 0.16 C-1.37 23.34, -6.25 115.43, -7.56 138.47 M-1.61 -0.8 C-3 22.57, -7.05 116.28, -8.24 139.63" transform="translate(527.1944169411707 325.19940887865295) rotate(0 -4.169750537658217 69.41081983209313)"/></g></g><g stroke-linecap="round"><g><path fill="none" stroke="#000" stroke-width="4" d="M-0.98 0.91 C-6.64 -7.05, -28.71 -40.07, -34.15 -48.36 M0.71 0.35 C-4.57 -7.87, -26.04 -41.4, -31.92 -49.94" transform="translate(521.8062232659097 382.6734747481051) rotate(0 -16.718149388125624 -24.513703832319663)"/></g></g><g stroke-linecap="round"><g><path fill="none" stroke="#000" stroke-width="4" d="M0.9 0.61 C8.13 -8.2, 36.68 -43.79, 44.03 -52.76 M-0.09 -0.12 C6.94 -8.79, 35.62 -42.84, 43.09 -51.57" transform="translate(526.2963846619607 381.7754424688949) rotate(0 21.97028924768847 -26.073602456609507)"/></g></g><g stroke-linecap="round"><g><path fill="none" stroke="#000" stroke-width="4" d="M0.46 0.5 C-5.98 6.46, -33.07 29.57, -39.79 35.17 M-0.76 -0.28 C-7.19 5.94, -33.81 30.92, -40.41 36.78" transform="translate(518.2140941490688 464.39441215623236) rotate(0 -19.973127210466686 18.249946244345523)"/></g></g><g stroke-linecap="round"><g><path fill="none" stroke="#000" stroke-width="4" d="M0.52 0.91 C4 7.43, 18.57 32.54, 21.8 38.86 M-0.67 0.34 C2.68 6.59, 17.61 31.21, 21.45 37.34" transform="translate(520.0101587074893 462.598347597812) rotate(0 10.56626292278085 19.600501235551747)"/></g></g><g stroke-linecap="round"><path fill="none" stroke="#000" stroke-width="4" d="M39.31 0.46 C45.82 -0.19, 52.3 1.8, 58.05 6.04 C63.81 10.29, 70.95 18.53, 73.81 25.91 C76.68 33.3, 76.4 42.75, 75.24 50.36 C74.08 57.97, 71.43 65.87, 66.86 71.57 C62.29 77.27, 54.39 82.49, 47.8 84.59 C41.21 86.68, 33.72 86.48, 27.32 84.12 C20.92 81.76, 13.79 76.13, 9.42 70.41 C5.05 64.68, 2.17 57.2, 1.11 49.77 C0.04 42.34, 0.38 33.15, 3.03 25.84 C5.68 18.53, 10.44 10.34, 16.99 5.9 C23.54 1.46, 37.45 -0.04, 42.31 -0.79 C47.18 -1.53, 46.45 0.59, 46.18 1.41 M45.43 1.39 C51.96 1.74, 59.34 5.41, 64.33 10.51 C69.32 15.62, 73.52 24.05, 75.38 32.02 C77.24 39.99, 77.65 50.86, 75.5 58.33 C73.36 65.81, 68.12 72.4, 62.52 76.87 C56.91 81.34, 48.92 84.38, 41.89 85.13 C34.87 85.88, 26.55 84.52, 20.36 81.36 C14.16 78.19, 8.01 72.59, 4.71 66.13 C1.41 59.67, 0.42 50.54, 0.57 42.58 C0.72 34.62, 1.55 24.8, 5.6 18.36 C9.65 11.91, 18.24 6.66, 24.86 3.91 C31.47 1.16, 41.78 2.18, 45.31 1.85 C48.84 1.52, 46.4 1.5, 46.04 1.92" transform="translate(367.98054595277233 229.60094010653256) rotate(0 38.16637186643305 43.10554940208908)"/></g><g stroke-linecap="round"><g><path fill="none" stroke="#000" stroke-width="4" d="M-0.1 0.16 C-1.37 23.34, -6.25 115.43, -7.56 138.47 M-1.61 -0.8 C-3 22.57, -7.05 116.28, -8.24 139.63" transform="translate(403.9018371211798 319.40416802755146) rotate(0 -4.169750537658217 69.41081983209313)"/></g></g><g stroke-linecap="round"><g><path fill="none" stroke="#000" stroke-width="4" d="M-0.98 0.91 C-6.64 -7.05, -28.71 -40.07, -34.15 -48.36 M0.71 0.35 C-4.57 -7.87, -26.04 -41.4, -31.92 -49.94" transform="translate(398.51364344591866 376.8782338970036) rotate(0 -16.718149388125624 -24.513703832319663)"/></g></g><g stroke-linecap="round"><g><path fill="none" stroke="#000" stroke-width="4" d="M0.9 0.61 C8.13 -8.2, 36.68 -43.79, 44.03 -52.76 M-0.09 -0.12 C6.94 -8.79, 35.62 -42.84, 43.09 -51.57" transform="translate(403.00380484196967 375.98020161779345) rotate(0 21.9702892476885 -26.073602456609507)"/></g></g><g stroke-linecap="round"><g><path fill="none" stroke="#000" stroke-width="4" d="M0.46 0.5 C-5.98 6.46, -33.07 29.57, -39.79 35.17 M-0.76 -0.28 C-7.19 5.94, -33.81 30.92, -40.41 36.78" transform="translate(394.9215143290779 458.5991713051309) rotate(0 -19.973127210466686 18.249946244345523)"/></g></g><g stroke-linecap="round"><g><path fill="none" stroke="#000" stroke-width="4" d="M0.52 0.91 C4 7.43, 18.57 32.54, 21.8 38.86 M-0.67 0.34 C2.68 6.59, 17.61 31.21, 21.45 37.34" transform="translate(396.71757888749835 456.80310674671045) rotate(0 10.56626292278085 19.600501235551747)"/></g></g><g stroke-linecap="round"><path fill="none" stroke="#000" stroke-width="4" d="M39.31 0.46 C45.82 -0.19, 52.3 1.8, 58.05 6.04 C63.81 10.29, 70.95 18.53, 73.81 25.91 C76.68 33.3, 76.4 42.75, 75.24 50.36 C74.08 57.97, 71.43 65.87, 66.86 71.57 C62.29 77.27, 54.39 82.49, 47.8 84.59 C41.21 86.68, 33.72 86.48, 27.32 84.12 C20.92 81.76, 13.79 76.13, 9.42 70.41 C5.05 64.68, 2.17 57.2, 1.11 49.77 C0.04 42.34, 0.38 33.15, 3.03 25.84 C5.68 18.53, 10.44 10.34, 16.99 5.9 C23.54 1.46, 37.45 -0.04, 42.31 -0.79 C47.18 -1.53, 46.45 0.59, 46.18 1.41 M45.43 1.39 C51.96 1.74, 59.34 5.41, 64.33 10.51 C69.32 15.62, 73.52 24.05, 75.38 32.02 C77.24 39.99, 77.65 50.86, 75.5 58.33 C73.36 65.81, 68.12 72.4, 62.52 76.87 C56.91 81.34, 48.92 84.38, 41.89 85.13 C34.87 85.88, 26.55 84.52, 20.36 81.36 C14.16 78.19, 8.01 72.59, 4.71 66.13 C1.41 59.67, 0.42 50.54, 0.57 42.58 C0.72 34.62, 1.55 24.8, 5.6 18.36 C9.65 11.91, 18.24 6.66, 24.86 3.91 C31.47 1.16, 41.78 2.18, 45.31 1.85 C48.84 1.52, 46.4 1.5, 46.04 1.92" transform="translate(236.30493051311157 228.06982829909475) rotate(0 38.16637186643305 43.10554940208908)"/></g><g stroke-linecap="round"><g><path fill="none" stroke="#000" stroke-width="4" d="M-0.1 0.16 C-1.37 23.34, -6.25 115.43, -7.56 138.47 M-1.61 -0.8 C-3 22.57, -7.05 116.28, -8.24 139.63" transform="translate(272.22622168151884 317.87305622011365) rotate(0 -4.169750537658231 69.41081983209313)"/></g></g><g stroke-linecap="round"><g><path fill="none" stroke="#000" stroke-width="4" d="M-0.98 0.91 C-6.64 -7.05, -28.71 -40.07, -34.15 -48.36 M0.71 0.35 C-4.57 -7.87, -26.04 -41.4, -31.92 -49.94" transform="translate(266.8380280062577 375.3471220895658) rotate(0 -16.718149388125624 -24.513703832319663)"/></g></g><g stroke-linecap="round"><g><path fill="none" stroke="#000" stroke-width="4" d="M0.9 0.61 C8.13 -8.2, 36.68 -43.79, 44.03 -52.76 M-0.09 -0.12 C6.94 -8.79, 35.62 -42.84, 43.09 -51.57" transform="translate(271.3281894023087 374.44908981035564) rotate(0 21.9702892476885 -26.073602456609507)"/></g></g><g stroke-linecap="round"><g><path fill="none" stroke="#000" stroke-width="4" d="M0.46 0.5 C-5.98 6.46, -33.07 29.57, -39.79 35.17 M-0.76 -0.28 C-7.19 5.94, -33.81 30.92, -40.41 36.78" transform="translate(263.24589888941694 457.06805949769307) rotate(0 -19.973127210466686 18.249946244345523)"/></g></g><g stroke-linecap="round"><g><path fill="none" stroke="#000" stroke-width="4" d="M0.52 0.91 C4 7.43, 18.57 32.54, 21.8 38.86 M-0.67 0.34 C2.68 6.59, 17.61 31.21, 21.45 37.34" transform="translate(265.04196344783736 455.2719949392727) rotate(0 10.56626292278085 19.600501235551747)"/></g></g><g><text x="123.833" y="0" fill="#000" direction="ltr" dominant-baseline="text-before-edge" font-family="Virgil, Segoe UI Emoji" font-size="30.083" text-anchor="middle" style="white-space:pre" transform="translate(360.5203814872647 568.3992340449639) rotate(0 123.83333587646484 112.81078894046182)">Serial computing</text><text x="123.833" y="37.604" fill="#000" direction="ltr" dominant-baseline="text-before-edge" font-family="Virgil, Segoe UI Emoji" font-size="30.083" text-anchor="middle" style="white-space:pre" transform="translate(360.5203814872647 568.3992340449639) rotate(0 123.83333587646484 112.81078894046182)">one processor</text><text x="123.833" y="75.207" fill="#000" direction="ltr" dominant-baseline="text-before-edge" font-family="Virgil, Segoe UI Emoji" font-size="30.083" text-anchor="middle" style="white-space:pre" transform="translate(360.5203814872647 568.3992340449639) rotate(0 123.83333587646484 112.81078894046182)">slow</text><text x="123.833" y="112.811" fill="#000" direction="ltr" dominant-baseline="text-before-edge" font-family="Virgil, Segoe UI Emoji" font-size="30.083" text-anchor="middle" style="white-space:pre" transform="translate(360.5203814872647 568.3992340449639) rotate(0 123.83333587646484 112.81078894046182)">old</text></g><g><text x="110.867" y="0" fill="#000" direction="ltr" dominant-baseline="text-before-edge" font-family="Virgil, Segoe UI Emoji" font-size="20" text-anchor="middle" style="white-space:pre" transform="translate(657.3735067845555 137.56007363771255) rotate(0 110.86666870117188 12.5)">(avg wait time - 15min)</text></g><g stroke-linecap="round"><g><path fill="none" stroke="#000" stroke-width="4" d="M-1.09 0.87 C37.06 0.69, 191.66 -1.78, 230.04 -2.21 M0.53 0.29 C38.53 0.38, 191.67 -0.77, 229.67 -0.88" transform="translate(358.62632246727946 604.2752325620911) rotate(0 114.47190001027917 -0.6679871177227028)"/></g></g><g stroke-linecap="round"><path fill="none" stroke="#000" stroke-width="4" d="M23.03 0 M23.03 0 C66.41 -2.78, 109.85 -0.48, 170.18 0 M23.03 0 C79.56 1.46, 134.67 0.87, 170.18 0 M170.18 0 C186.22 1.48, 194.51 6.72, 193.21 23.03 M170.18 0 C186.38 -0.29, 194.36 8.26, 193.21 23.03 M193.21 23.03 C192.63 33.29, 192.87 46.49, 193.21 69.08 M193.21 23.03 C194.45 34.26, 194.38 44.52, 193.21 69.08 M193.21 69.08 C191.67 84.47, 184.9 92.66, 170.18 92.11 M193.21 69.08 C191.17 85.34, 186.1 90.86, 170.18 92.11 M170.18 92.11 C125.76 91.12, 79.08 92.24, 23.03 92.11 M170.18 92.11 C135.56 91.2, 98.72 92.79, 23.03 92.11 M23.03 92.11 C8.85 91.81, -1.32 84.1, 0 69.08 M23.03 92.11 C8.35 90.04, 1.94 83.09, 0 69.08 M0 69.08 C1.17 58.59, -1.5 48.2, 0 23.03 M0 69.08 C0.81 57.83, 0.75 44.34, 0 23.03 M0 23.03 C0.02 5.98, 5.72 1.82, 23.03 0 M0 23.03 C-1.31 5.81, 8.2 1.11, 23.03 0" transform="translate(1625.1634725308727 455.5555932369358) rotate(0 96.60578133364697 46.056244589296824)"/></g><g stroke-linecap="round"><path fill="none" stroke="#000" stroke-width="4" d="M41.51 0.74 C48.63 0.09, 58.15 2.3, 64.89 5.97 C71.62 9.65, 78.46 16.45, 81.92 22.78 C85.38 29.11, 86.9 37.3, 85.64 43.98 C84.37 50.66, 79.51 57.89, 74.3 62.85 C69.09 67.81, 61.42 71.8, 54.38 73.72 C47.35 75.65, 39.49 76.06, 32.09 74.4 C24.69 72.75, 15.15 68.8, 9.97 63.8 C4.79 58.79, 2.14 51.1, 1 44.38 C-0.14 37.66, 0.16 29.91, 3.11 23.48 C6.07 17.04, 11.45 9.72, 18.74 5.76 C26.02 1.8, 41.26 0.46, 46.81 -0.27 C52.35 -1.01, 52.09 0.56, 52 1.35 M50.52 1.15 C58.16 1.58, 67.14 4.5, 72.71 9.23 C78.28 13.96, 82.3 22.88, 83.96 29.53 C85.62 36.19, 85.09 42.95, 82.68 49.15 C80.26 55.35, 75.3 62.01, 69.46 66.76 C63.62 71.5, 55.46 76.55, 47.65 77.63 C39.84 78.72, 29.52 76.54, 22.59 73.29 C15.67 70.04, 9.92 64.02, 6.09 58.12 C2.26 52.22, -0.75 44.9, -0.38 37.89 C-0.02 30.87, 3.91 22.11, 8.26 16.05 C12.61 9.99, 18.64 3.96, 25.74 1.53 C32.84 -0.89, 46.76 1.77, 50.87 1.49 C54.98 1.22, 50.4 -0.73, 50.41 -0.09" transform="translate(1676.836332313986 293.7970756550154) rotate(0 42.686275473006845 38.192983317953434)"/></g><g><text x="55.2" y="0" fill="#000" direction="ltr" dominant-baseline="text-before-edge" font-family="Virgil, Segoe UI Emoji" font-size="80.621" text-anchor="middle" style="white-space:pre" transform="translate(1660.3494593442329 257.7956534740439) rotate(0 55.20000076293945 50.38798928280002)">🎓</text></g><g stroke-linecap="round"><g><path fill="none" stroke="#000" stroke-width="4" d="M-1.09 0.59 C-0.72 14.58, 0.77 70.12, 1.4 83.93 M0.54 -0.15 C1.35 13.51, 3.4 68.65, 3.67 82.23" transform="translate(1717.2759617094662 372.42968836844886) rotate(0 1.291431325523149 41.88962428837533)"/></g></g><g stroke-linecap="round"><g><path fill="none" stroke="#000" stroke-width="4" d="M0.12 0.4 C-12.03 -5.25, -61.13 -28.79, -72.94 -34.87 M-1.28 -0.44 C-13.07 -6.31, -59.17 -30.7, -70.78 -36.43" transform="translate(1715.0293156319394 408.3760256088757) rotate(0 -36.41072509014509 -18.01900946498148)"/></g></g><g stroke-linecap="round"><g><path fill="none" stroke="#000" stroke-width="4" d="M-0.35 -0.81 C9.83 -5.82, 51.57 -25.97, 61.81 -30.98 M1.66 1.38 C11.72 -3.92, 51.65 -27.15, 61.47 -32.85" transform="translate(1724.0158999420464 412.86931776392896) rotate(0 30.729188247527986 -15.735310510761622)"/></g></g><g stroke-linecap="round"><g><path fill="none" stroke="#000" stroke-width="4" d="M0.03 0.84 C1.22 33.93, 6.7 165.96, 8.3 199.31 M-1.42 0.23 C-0.52 33.42, 5.39 167.41, 7.19 200.56" transform="translate(1616.3230057385704 278.0493345638455) rotate(0 3.4421717175065396 100.395474555931)"/></g></g><g stroke-linecap="round"><g><path fill="none" stroke="#000" stroke-width="4" d="M-0.05 0.37 C0.79 32.12, 3.26 159.28, 3.91 191.19 M-1.53 -0.48 C-0.75 31.32, 2.24 159.96, 3.01 192.19" transform="translate(1813.31579151581 278.0493345638455) rotate(0 1.19004169451091 95.85361737417111)"/></g></g><g stroke-linecap="round"><path fill="none" stroke="#000" stroke-width="4" d="M39.31 0.46 C45.82 -0.19, 52.3 1.8, 58.05 6.04 C63.81 10.29, 70.95 18.53, 73.81 25.91 C76.68 33.3, 76.4 42.75, 75.24 50.36 C74.08 57.97, 71.43 65.87, 66.86 71.57 C62.29 77.27, 54.39 82.49, 47.8 84.59 C41.21 86.68, 33.72 86.48, 27.32 84.12 C20.92 81.76, 13.79 76.13, 9.42 70.41 C5.05 64.68, 2.17 57.2, 1.11 49.77 C0.04 42.34, 0.38 33.15, 3.03 25.84 C5.68 18.53, 10.44 10.34, 16.99 5.9 C23.54 1.46, 37.45 -0.04, 42.31 -0.79 C47.18 -1.53, 46.45 0.59, 46.18 1.41 M45.43 1.39 C51.96 1.74, 59.34 5.41, 64.33 10.51 C69.32 15.62, 73.52 24.05, 75.38 32.02 C77.24 39.99, 77.65 50.86, 75.5 58.33 C73.36 65.81, 68.12 72.4, 62.52 76.87 C56.91 81.34, 48.92 84.38, 41.89 85.13 C34.87 85.88, 26.55 84.52, 20.36 81.36 C14.16 78.19, 8.01 72.59, 4.71 66.13 C1.41 59.67, 0.42 50.54, 0.57 42.58 C0.72 34.62, 1.55 24.8, 5.6 18.36 C9.65 11.91, 18.24 6.66, 24.86 3.91 C31.47 1.16, 41.78 2.18, 45.31 1.85 C48.84 1.52, 46.4 1.5, 46.04 1.92" transform="translate(1437.1929053111976 279.21940419685814) rotate(0 38.16637186643311 43.10554940208908)"/></g><g stroke-linecap="round"><g><path fill="none" stroke="#000" stroke-width="4" d="M-0.1 0.16 C-1.37 23.34, -6.25 115.43, -7.56 138.47 M-1.61 -0.8 C-3 22.57, -7.05 116.28, -8.24 139.63" transform="translate(1473.1141964796052 369.02263211787715) rotate(0 -4.169750537658274 69.41081983209313)"/></g></g><g stroke-linecap="round"><g><path fill="none" stroke="#000" stroke-width="4" d="M-0.98 0.91 C-6.64 -7.05, -28.71 -40.07, -34.15 -48.36 M0.71 0.35 C-4.57 -7.87, -26.04 -41.4, -31.92 -49.94" transform="translate(1467.7260028043443 426.4966979873292) rotate(0 -16.71814938812554 -24.513703832319663)"/></g></g><g stroke-linecap="round"><g><path fill="none" stroke="#000" stroke-width="4" d="M0.9 0.61 C8.13 -8.2, 36.68 -43.79, 44.03 -52.76 M-0.09 -0.12 C6.94 -8.79, 35.62 -42.84, 43.09 -51.57" transform="translate(1472.2161642003953 425.59866570811903) rotate(0 21.97028924768847 -26.073602456609507)"/></g></g><g stroke-linecap="round"><g><path fill="none" stroke="#000" stroke-width="4" d="M0.46 0.5 C-5.98 6.46, -33.07 29.57, -39.79 35.17 M-0.76 -0.28 C-7.19 5.94, -33.81 30.92, -40.41 36.78" transform="translate(1464.1338736875032 508.21763539545657) rotate(0 -19.973127210466714 18.249946244345523)"/></g></g><g stroke-linecap="round"><g><path fill="none" stroke="#000" stroke-width="4" d="M0.52 0.91 C4 7.43, 18.57 32.54, 21.8 38.86 M-0.67 0.34 C2.68 6.59, 17.61 31.21, 21.45 37.34" transform="translate(1465.929938245924 506.42157083703614) rotate(0 10.56626292278088 19.600501235551747)"/></g></g><g stroke-linecap="round"><path fill="none" stroke="#000" stroke-width="4" d="M39.31 0.46 C45.82 -0.19, 52.3 1.8, 58.05 6.04 C63.81 10.29, 70.95 18.53, 73.81 25.91 C76.68 33.3, 76.4 42.75, 75.24 50.36 C74.08 57.97, 71.43 65.87, 66.86 71.57 C62.29 77.27, 54.39 82.49, 47.8 84.59 C41.21 86.68, 33.72 86.48, 27.32 84.12 C20.92 81.76, 13.79 76.13, 9.42 70.41 C5.05 64.68, 2.17 57.2, 1.11 49.77 C0.04 42.34, 0.38 33.15, 3.03 25.84 C5.68 18.53, 10.44 10.34, 16.99 5.9 C23.54 1.46, 37.45 -0.04, 42.31 -0.79 C47.18 -1.53, 46.45 0.59, 46.18 1.41 M45.43 1.39 C51.96 1.74, 59.34 5.41, 64.33 10.51 C69.32 15.62, 73.52 24.05, 75.38 32.02 C77.24 39.99, 77.65 50.86, 75.5 58.33 C73.36 65.81, 68.12 72.4, 62.52 76.87 C56.91 81.34, 48.92 84.38, 41.89 85.13 C34.87 85.88, 26.55 84.52, 20.36 81.36 C14.16 78.19, 8.01 72.59, 4.71 66.13 C1.41 59.67, 0.42 50.54, 0.57 42.58 C0.72 34.62, 1.55 24.8, 5.6 18.36 C9.65 11.91, 18.24 6.66, 24.86 3.91 C31.47 1.16, 41.78 2.18, 45.31 1.85 C48.84 1.52, 46.4 1.5, 46.04 1.92" transform="translate(1313.9003254912068 273.4241633457567) rotate(0 38.16637186643311 43.10554940208908)"/></g><g stroke-linecap="round"><g><path fill="none" stroke="#000" stroke-width="4" d="M-0.1 0.16 C-1.37 23.34, -6.25 115.43, -7.56 138.47 M-1.61 -0.8 C-3 22.57, -7.05 116.28, -8.24 139.63" transform="translate(1349.8216166596144 363.2273912667757) rotate(0 -4.169750537658274 69.41081983209313)"/></g></g><g stroke-linecap="round"><g><path fill="none" stroke="#000" stroke-width="4" d="M-0.98 0.91 C-6.64 -7.05, -28.71 -40.07, -34.15 -48.36 M0.71 0.35 C-4.57 -7.87, -26.04 -41.4, -31.92 -49.94" transform="translate(1344.433422984353 420.70145713622776) rotate(0 -16.71814938812554 -24.513703832319663)"/></g></g><g stroke-linecap="round"><g><path fill="none" stroke="#000" stroke-width="4" d="M0.9 0.61 C8.13 -8.2, 36.68 -43.79, 44.03 -52.76 M-0.09 -0.12 C6.94 -8.79, 35.62 -42.84, 43.09 -51.57" transform="translate(1348.923584380404 419.8034248570176) rotate(0 21.97028924768847 -26.073602456609507)"/></g></g><g stroke-linecap="round"><g><path fill="none" stroke="#000" stroke-width="4" d="M0.46 0.5 C-5.98 6.46, -33.07 29.57, -39.79 35.17 M-0.76 -0.28 C-7.19 5.94, -33.81 30.92, -40.41 36.78" transform="translate(1340.8412938675124 502.42239454435503) rotate(0 -19.973127210466714 18.249946244345523)"/></g></g><g stroke-linecap="round"><g><path fill="none" stroke="#000" stroke-width="4" d="M0.52 0.91 C4 7.43, 18.57 32.54, 21.8 38.86 M-0.67 0.34 C2.68 6.59, 17.61 31.21, 21.45 37.34" transform="translate(1342.6373584259327 500.6263299859346) rotate(0 10.56626292278088 19.600501235551747)"/></g></g><g stroke-linecap="round"><path fill="none" stroke="#000" stroke-width="4" d="M39.31 0.46 C45.82 -0.19, 52.3 1.8, 58.05 6.04 C63.81 10.29, 70.95 18.53, 73.81 25.91 C76.68 33.3, 76.4 42.75, 75.24 50.36 C74.08 57.97, 71.43 65.87, 66.86 71.57 C62.29 77.27, 54.39 82.49, 47.8 84.59 C41.21 86.68, 33.72 86.48, 27.32 84.12 C20.92 81.76, 13.79 76.13, 9.42 70.41 C5.05 64.68, 2.17 57.2, 1.11 49.77 C0.04 42.34, 0.38 33.15, 3.03 25.84 C5.68 18.53, 10.44 10.34, 16.99 5.9 C23.54 1.46, 37.45 -0.04, 42.31 -0.79 C47.18 -1.53, 46.45 0.59, 46.18 1.41 M45.43 1.39 C51.96 1.74, 59.34 5.41, 64.33 10.51 C69.32 15.62, 73.52 24.05, 75.38 32.02 C77.24 39.99, 77.65 50.86, 75.5 58.33 C73.36 65.81, 68.12 72.4, 62.52 76.87 C56.91 81.34, 48.92 84.38, 41.89 85.13 C34.87 85.88, 26.55 84.52, 20.36 81.36 C14.16 78.19, 8.01 72.59, 4.71 66.13 C1.41 59.67, 0.42 50.54, 0.57 42.58 C0.72 34.62, 1.55 24.8, 5.6 18.36 C9.65 11.91, 18.24 6.66, 24.86 3.91 C31.47 1.16, 41.78 2.18, 45.31 1.85 C48.84 1.52, 46.4 1.5, 46.04 1.92" transform="translate(1182.224710051546 271.8930515383189) rotate(0 38.16637186643311 43.10554940208908)"/></g><g stroke-linecap="round"><g><path fill="none" stroke="#000" stroke-width="4" d="M-0.1 0.16 C-1.37 23.34, -6.25 115.43, -7.56 138.47 M-1.61 -0.8 C-3 22.57, -7.05 116.28, -8.24 139.63" transform="translate(1218.1460012199532 361.6962794593379) rotate(0 -4.169750537658274 69.41081983209313)"/></g></g><g stroke-linecap="round"><g><path fill="none" stroke="#000" stroke-width="4" d="M-0.98 0.91 C-6.64 -7.05, -28.71 -40.07, -34.15 -48.36 M0.71 0.35 C-4.57 -7.87, -26.04 -41.4, -31.92 -49.94" transform="translate(1212.7578075446922 419.17034532878995) rotate(0 -16.71814938812554 -24.513703832319663)"/></g></g><g stroke-linecap="round"><g><path fill="none" stroke="#000" stroke-width="4" d="M0.9 0.61 C8.13 -8.2, 36.68 -43.79, 44.03 -52.76 M-0.09 -0.12 C6.94 -8.79, 35.62 -42.84, 43.09 -51.57" transform="translate(1217.2479689407432 418.2723130495798) rotate(0 21.97028924768847 -26.073602456609507)"/></g></g><g stroke-linecap="round"><g><path fill="none" stroke="#000" stroke-width="4" d="M0.46 0.5 C-5.98 6.46, -33.07 29.57, -39.79 35.17 M-0.76 -0.28 C-7.19 5.94, -33.81 30.92, -40.41 36.78" transform="translate(1209.1656784278516 500.8912827369172) rotate(0 -19.973127210466714 18.249946244345523)"/></g></g><g stroke-linecap="round"><g><path fill="none" stroke="#000" stroke-width="4" d="M0.52 0.91 C4 7.43, 18.57 32.54, 21.8 38.86 M-0.67 0.34 C2.68 6.59, 17.61 31.21, 21.45 37.34" transform="translate(1210.961742986272 499.0952181784968) rotate(0 10.56626292278088 19.600501235551747)"/></g></g><g><text x="174.75" y="0" fill="#000" direction="ltr" dominant-baseline="text-before-edge" font-family="Virgil, Segoe UI Emoji" font-size="17.08" text-anchor="middle" style="white-space:pre" transform="translate(1168.8280499916364 602.2737998105963) rotate(0 174.75 32.02554744525537)">To combat low speed, we used to get</text><text x="174.75" y="21.35" fill="#000" direction="ltr" dominant-baseline="text-before-edge" font-family="Virgil, Segoe UI Emoji" font-size="17.08" text-anchor="middle" style="white-space:pre" transform="translate(1168.8280499916364 602.2737998105963) rotate(0 174.75 32.02554744525537)">better and better lemonade stand people</text></g><g><text x="108.15" y="0" fill="#000" direction="ltr" dominant-baseline="text-before-edge" font-family="Virgil, Segoe UI Emoji" font-size="20" text-anchor="middle" style="white-space:pre" transform="translate(1606.0099534982828 181.3832968769367) rotate(0 108.1500015258789 12.5)">(avg wait time - 5min)</text></g><g><text x="151.05" y="0" fill="#000" direction="ltr" dominant-baseline="text-before-edge" font-family="Virgil, Segoe UI Emoji" font-size="18.059" text-anchor="middle" style="white-space:pre" transform="translate(768.641685622623 876.6480571586849) rotate(0 151.05000305175776 11.286661513228992)">but , people can only be so skilled</text></g><g><text x="79.85" y="0" fill="#000" direction="ltr" dominant-baseline="text-before-edge" font-family="Virgil, Segoe UI Emoji" font-size="23.153" text-anchor="middle" style="white-space:pre" transform="translate(836.9727433713065 910.5214267347695) rotate(0 79.8499984741211 14.470487045874663)">so here comes</text></g><g><text x="261.917" y="0" fill="#000" direction="ltr" dominant-baseline="text-before-edge" font-family="Virgil, Segoe UI Emoji" font-size="43.954" text-anchor="middle" style="white-space:pre" transform="translate(683.5659215335204 980.962124385506) rotate(0 261.9166564941406 27.47130821144411)">PARALLEL COMPUTING</text></g><g stroke-linecap="round"><g><path fill="none" stroke="#000" stroke-width="4" d="M-0.38 -0.72 C-17.91 -7.62, -87.16 -34.46, -104.32 -41.19 M1.62 1.52 C-15.63 -5.28, -84.56 -33.21, -102.2 -40.16" transform="translate(659.9498795567723 984.070626413221) rotate(0 -51.35270118732376 -19.832479850589394)"/></g></g><g stroke-linecap="round"><g><path fill="none" stroke="#000" stroke-width="4" d="M1.17 -0.46 C-21.87 -0.26, -115.15 1.66, -138.23 2.08 M0.33 -1.75 C-22.33 -1.96, -112.88 0.06, -135.95 0.37" transform="translate(656.8927525277804 1008.8527776690171) rotate(0 -68.52937222428733 0.16177209702520656)"/></g></g><g stroke-linecap="round"><g><path fill="none" stroke="#000" stroke-width="4" d="M0.89 -0.75 C-14.56 6.42, -76.95 36.37, -92.54 43.89 M-0.1 1.48 C-15.75 8.69, -78.06 37.65, -93.65 45" transform="translate(660.73452934533 1036.8408290390298) rotate(0 -46.3782524354105 22.124888655370256)"/></g></g><g stroke-linecap="round"><g><path fill="none" stroke="#000" stroke-width="4" d="M-0.38 -0.72 C-18.88 -6.97, -92.01 -31.23, -110.14 -37.31 M1.62 1.52 C-16.6 -4.64, -89.41 -29.98, -108.01 -36.28" transform="translate(1329.0661531289322 1088.3015266144744) rotate(185.6306827576353 -54.25913762849859 -17.894855556472834)"/></g></g><g stroke-linecap="round"><g><path fill="none" stroke="#000" stroke-width="4" d="M1.17 -0.46 C-19.93 -1.87, -105.46 -6.41, -126.61 -7.6 M0.33 -1.75 C-20.39 -3.57, -103.2 -8.02, -124.32 -9.31" transform="translate(1347.6146016765174 1025.4816505804515) rotate(185.6306827576353 -62.71649934193772 -4.887038150052945)"/></g></g><g stroke-linecap="round"><g><path fill="none" stroke="#000" stroke-width="4" d="M0.89 -0.75 C-14.56 6.42, -76.95 36.37, -92.54 43.89 M-0.1 1.48 C-15.75 8.69, -78.06 37.65, -93.65 45" transform="translate(1327.9278720559566 949.7703947791739) rotate(185.6306827576353 -46.37825243541056 22.124888655370256)"/></g></g><g><text x="278.583" y="0" fill="#000" direction="ltr" dominant-baseline="text-before-edge" font-family="Virgil, Segoe UI Emoji" font-size="18.059" text-anchor="middle" style="white-space:pre" transform="translate(682.67884530666 1070.9259670462097) rotate(0 278.58334350585943 22.573323026457984)">We realized that instead of having a super trained lemonade</text><text x="278.583" y="22.573" fill="#000" direction="ltr" dominant-baseline="text-before-edge" font-family="Virgil, Segoe UI Emoji" font-size="18.059" text-anchor="middle" style="white-space:pre" transform="translate(682.67884530666 1070.9259670462097) rotate(0 278.58334350585943 22.573323026457984)">stand person, we could just have more people!</text></g><g stroke-linecap="round"><path fill="none" stroke="#000" stroke-width="4" d="M23.03 0 M23.03 0 C66.41 -2.78, 109.85 -0.48, 170.18 0 M23.03 0 C79.56 1.46, 134.67 0.87, 170.18 0 M170.18 0 C186.22 1.48, 194.51 6.72, 193.21 23.03 M170.18 0 C186.38 -0.29, 194.36 8.26, 193.21 23.03 M193.21 23.03 C192.63 33.29, 192.87 46.49, 193.21 69.08 M193.21 23.03 C194.45 34.26, 194.38 44.52, 193.21 69.08 M193.21 69.08 C191.67 84.47, 184.9 92.66, 170.18 92.11 M193.21 69.08 C191.17 85.34, 186.1 90.86, 170.18 92.11 M170.18 92.11 C125.76 91.12, 79.08 92.24, 23.03 92.11 M170.18 92.11 C135.56 91.2, 98.72 92.79, 23.03 92.11 M23.03 92.11 C8.85 91.81, -1.32 84.1, 0 69.08 M23.03 92.11 C8.35 90.04, 1.94 83.09, 0 69.08 M0 69.08 C1.17 58.59, -1.5 48.2, 0 23.03 M0 69.08 C0.81 57.83, 0.75 44.34, 0 23.03 M0 23.03 C0.02 5.98, 5.72 1.82, 23.03 0 M0 23.03 C-1.31 5.81, 8.2 1.11, 23.03 0" transform="translate(871.1302065163434 1414.840521764807) rotate(0 96.60578133364697 46.05624458929685)"/></g><g stroke-linecap="round"><path fill="none" stroke="#000" stroke-width="4" d="M30.41 0.73 C36.62 0.27, 45.5 2.68, 50.92 6.52 C56.35 10.36, 61.54 17.76, 62.96 23.79 C64.39 29.82, 63.06 37.61, 59.49 42.72 C55.93 47.83, 48.12 52.62, 41.57 54.45 C35.03 56.29, 26.26 55.8, 20.21 53.71 C14.17 51.62, 8.76 46.92, 5.32 41.94 C1.89 36.96, -1.42 29.64, -0.4 23.83 C0.61 18.02, 5.48 10.89, 11.41 7.08 C17.34 3.27, 30.46 1.96, 35.17 0.97 C39.88 -0.03, 39.72 0.83, 39.65 1.1 M28.56 0.72 C34.78 -0.1, 42.13 1.56, 47.66 4.89 C53.2 8.22, 59.52 15.12, 61.77 20.69 C64.02 26.26, 63.88 32.75, 61.14 38.3 C58.41 43.86, 51.6 51.36, 45.34 54.03 C39.09 56.7, 30.12 56.04, 23.6 54.31 C17.07 52.57, 10.05 48.04, 6.21 43.63 C2.37 39.22, 0.29 33.5, 0.54 27.85 C0.79 22.2, 3.15 14.26, 7.74 9.73 C12.32 5.2, 24.75 1.99, 28.06 0.68 C31.36 -0.63, 27.43 1.53, 27.56 1.87" transform="translate(891.6593471466495 1290.178693449734) rotate(0 31.44135711471546 28.13174057632432)"/></g><g stroke-linecap="round"><g><path fill="none" stroke="#000" stroke-width="4" d="M-1.09 0.59 C-0.82 10.93, 0.28 51.87, 0.81 62.03 M0.54 -0.15 C1.25 9.86, 2.91 50.4, 3.08 60.33" transform="translate(921.4458959921694 1348.0969828715783) rotate(0 0.9955124213576028 30.94062483424949)"/></g></g><g stroke-linecap="round"><g><path fill="none" stroke="#000" stroke-width="4" d="M0.12 0.4 C-8.88 -3.67, -45.34 -20.9, -54 -25.41 M-1.28 -0.44 C-9.91 -4.73, -43.38 -22.81, -51.84 -26.97" transform="translate(919.791087722974 1374.573915178707) rotate(0 -26.94132015684704 -13.284306998332454)"/></g></g><g stroke-linecap="round"><g><path fill="none" stroke="#000" stroke-width="4" d="M-0.35 -0.81 C7.16 -4.44, 38.25 -19.07, 45.83 -22.69 M1.66 1.38 C9.06 -2.54, 38.34 -20.24, 45.49 -24.56" transform="translate(926.4103207997562 1377.883531717098) rotate(0 22.739377835057837 -11.592445852443745)"/></g></g><g stroke-linecap="round"><path fill="none" stroke="#000" stroke-width="4" d="M13 0 M13 0 C49.74 -0.49, 89.27 0.05, 192 0 M13 0 C82.75 0.62, 153.77 2.47, 192 0 M192 0 C201.64 -0.23, 206.41 5.45, 205 13 M192 0 C200.3 -0.95, 206.25 4.18, 205 13 M205 13 C206.56 20.36, 203.07 24.41, 205 39 M205 13 C204.25 22.57, 205.16 33.51, 205 39 M205 39 C203.08 46.65, 200.86 50.46, 192 52 M205 39 C204.64 47.78, 201.21 51.43, 192 52 M192 52 C153.78 53.25, 115.52 53.45, 13 52 M192 52 C151.62 52.87, 111.28 52.02, 13 52 M13 52 C4.15 53.49, 0.27 48.19, 0 39 M13 52 C3.21 51.09, -1.46 48.53, 0 39 M0 39 C-1.84 31.76, 0.32 27.05, 0 13 M0 39 C-1.08 30.94, -0.21 24.06, 0 13 M0 13 C1.57 4.18, 3.31 -0.3, 13 0 M0 13 C-1.88 5.95, 5.75 1.85, 13 0" transform="translate(860.2840798836364 1181.1197402594005) rotate(0 102.5 26)"/></g><g><text x="75.55" y="0" fill="#000" direction="ltr" dominant-baseline="text-before-edge" font-family="Virgil, Segoe UI Emoji" font-size="20" text-anchor="middle" style="white-space:pre" transform="translate(887.2340768318786 1194.6197402594005) rotate(0 75.55000305175781 12.5)">lemonade stand</text></g><g stroke-linecap="round"><g><path fill="none" stroke="#000" stroke-width="4" d="M0.03 0.84 C1.22 33.93, 6.7 165.96, 8.3 199.31 M-1.42 0.23 C-0.52 33.42, 5.39 167.41, 7.19 200.56" transform="translate(862.2897397240413 1232.7642856918974) rotate(0 3.4421717175065396 100.39547455593103)"/></g></g><g stroke-linecap="round"><g><path fill="none" stroke="#000" stroke-width="4" d="M-0.05 0.37 C0.79 32.12, 3.26 159.28, 3.91 191.19 M-1.53 -0.48 C-0.75 31.32, 2.24 159.96, 3.01 192.19" transform="translate(1059.2825255012808 1232.7642856918974) rotate(0 1.19004169451091 95.85361737417111)"/></g></g><g stroke-linecap="round"><path fill="none" stroke="#000" stroke-width="4" d="M39.31 0.46 C45.82 -0.19, 52.3 1.8, 58.05 6.04 C63.81 10.29, 70.95 18.53, 73.81 25.91 C76.68 33.3, 76.4 42.75, 75.24 50.36 C74.08 57.97, 71.43 65.87, 66.86 71.57 C62.29 77.27, 54.39 82.49, 47.8 84.59 C41.21 86.68, 33.72 86.48, 27.32 84.12 C20.92 81.76, 13.79 76.13, 9.42 70.41 C5.05 64.68, 2.17 57.2, 1.11 49.77 C0.04 42.34, 0.38 33.15, 3.03 25.84 C5.68 18.53, 10.44 10.34, 16.99 5.9 C23.54 1.46, 37.45 -0.04, 42.31 -0.79 C47.18 -1.53, 46.45 0.59, 46.18 1.41 M45.43 1.39 C51.96 1.74, 59.34 5.41, 64.33 10.51 C69.32 15.62, 73.52 24.05, 75.38 32.02 C77.24 39.99, 77.65 50.86, 75.5 58.33 C73.36 65.81, 68.12 72.4, 62.52 76.87 C56.91 81.34, 48.92 84.38, 41.89 85.13 C34.87 85.88, 26.55 84.52, 20.36 81.36 C14.16 78.19, 8.01 72.59, 4.71 66.13 C1.41 59.67, 0.42 50.54, 0.57 42.58 C0.72 34.62, 1.55 24.8, 5.6 18.36 C9.65 11.91, 18.24 6.66, 24.86 3.91 C31.47 1.16, 41.78 2.18, 45.31 1.85 C48.84 1.52, 46.4 1.5, 46.04 1.92" transform="translate(683.1596392966685 1233.93435532491) rotate(0 38.16637186643305 43.10554940208908)"/></g><g stroke-linecap="round"><g><path fill="none" stroke="#000" stroke-width="4" d="M-0.1 0.16 C-1.37 23.34, -6.25 115.43, -7.56 138.47 M-1.61 -0.8 C-3 22.57, -7.05 116.28, -8.24 139.63" transform="translate(719.0809304650761 1323.7375832459293) rotate(0 -4.169750537658217 69.41081983209313)"/></g></g><g stroke-linecap="round"><g><path fill="none" stroke="#000" stroke-width="4" d="M-0.98 0.91 C-6.64 -7.05, -28.71 -40.07, -34.15 -48.36 M0.71 0.35 C-4.57 -7.87, -26.04 -41.4, -31.92 -49.94" transform="translate(713.692736789815 1381.211649115381) rotate(0 -16.718149388125596 -24.513703832319663)"/></g></g><g stroke-linecap="round"><g><path fill="none" stroke="#000" stroke-width="4" d="M0.9 0.61 C8.13 -8.2, 36.68 -43.79, 44.03 -52.76 M-0.09 -0.12 C6.94 -8.79, 35.62 -42.84, 43.09 -51.57" transform="translate(718.182898185866 1380.3136168361711) rotate(0 21.97028924768847 -26.073602456609535)"/></g></g><g stroke-linecap="round"><g><path fill="none" stroke="#000" stroke-width="4" d="M0.46 0.5 C-5.98 6.46, -33.07 29.57, -39.79 35.17 M-0.76 -0.28 C-7.19 5.94, -33.81 30.92, -40.41 36.78" transform="translate(710.1006076729741 1462.9325865235087) rotate(0 -19.973127210466657 18.249946244345495)"/></g></g><g stroke-linecap="round"><g><path fill="none" stroke="#000" stroke-width="4" d="M0.52 0.91 C4 7.43, 18.57 32.54, 21.8 38.86 M-0.67 0.34 C2.68 6.59, 17.61 31.21, 21.45 37.34" transform="translate(711.8966722313946 1461.1365219650884) rotate(0 10.566262922780822 19.600501235551747)"/></g></g><g stroke-linecap="round"><path fill="none" stroke="#000" stroke-width="4" d="M39.31 0.46 C45.82 -0.19, 52.3 1.8, 58.05 6.04 C63.81 10.29, 70.95 18.53, 73.81 25.91 C76.68 33.3, 76.4 42.75, 75.24 50.36 C74.08 57.97, 71.43 65.87, 66.86 71.57 C62.29 77.27, 54.39 82.49, 47.8 84.59 C41.21 86.68, 33.72 86.48, 27.32 84.12 C20.92 81.76, 13.79 76.13, 9.42 70.41 C5.05 64.68, 2.17 57.2, 1.11 49.77 C0.04 42.34, 0.38 33.15, 3.03 25.84 C5.68 18.53, 10.44 10.34, 16.99 5.9 C23.54 1.46, 37.45 -0.04, 42.31 -0.79 C47.18 -1.53, 46.45 0.59, 46.18 1.41 M45.43 1.39 C51.96 1.74, 59.34 5.41, 64.33 10.51 C69.32 15.62, 73.52 24.05, 75.38 32.02 C77.24 39.99, 77.65 50.86, 75.5 58.33 C73.36 65.81, 68.12 72.4, 62.52 76.87 C56.91 81.34, 48.92 84.38, 41.89 85.13 C34.87 85.88, 26.55 84.52, 20.36 81.36 C14.16 78.19, 8.01 72.59, 4.71 66.13 C1.41 59.67, 0.42 50.54, 0.57 42.58 C0.72 34.62, 1.55 24.8, 5.6 18.36 C9.65 11.91, 18.24 6.66, 24.86 3.91 C31.47 1.16, 41.78 2.18, 45.31 1.85 C48.84 1.52, 46.4 1.5, 46.04 1.92" transform="translate(559.8670594766777 1228.1391144738086) rotate(0 38.16637186643305 43.10554940208908)"/></g><g stroke-linecap="round"><g><path fill="none" stroke="#000" stroke-width="4" d="M-0.1 0.16 C-1.37 23.34, -6.25 115.43, -7.56 138.47 M-1.61 -0.8 C-3 22.57, -7.05 116.28, -8.24 139.63" transform="translate(595.7883506450853 1317.9423423948276) rotate(0 -4.169750537658217 69.41081983209307)"/></g></g><g stroke-linecap="round"><g><path fill="none" stroke="#000" stroke-width="4" d="M-0.98 0.91 C-6.64 -7.05, -28.71 -40.07, -34.15 -48.36 M0.71 0.35 C-4.57 -7.87, -26.04 -41.4, -31.92 -49.94" transform="translate(590.4001569698239 1375.4164082642797) rotate(0 -16.718149388125596 -24.513703832319663)"/></g></g><g stroke-linecap="round"><g><path fill="none" stroke="#000" stroke-width="4" d="M0.9 0.61 C8.13 -8.2, 36.68 -43.79, 44.03 -52.76 M-0.09 -0.12 C6.94 -8.79, 35.62 -42.84, 43.09 -51.57" transform="translate(594.8903183658749 1374.5183759850697) rotate(0 21.97028924768847 -26.073602456609535)"/></g></g><g stroke-linecap="round"><g><path fill="none" stroke="#000" stroke-width="4" d="M0.46 0.5 C-5.98 6.46, -33.07 29.57, -39.79 35.17 M-0.76 -0.28 C-7.19 5.94, -33.81 30.92, -40.41 36.78" transform="translate(586.8080278529833 1457.1373456724073) rotate(0 -19.973127210466657 18.249946244345495)"/></g></g><g stroke-linecap="round"><g><path fill="none" stroke="#000" stroke-width="4" d="M0.52 0.91 C4 7.43, 18.57 32.54, 21.8 38.86 M-0.67 0.34 C2.68 6.59, 17.61 31.21, 21.45 37.34" transform="translate(588.6040924114036 1455.3412811139865) rotate(0 10.566262922780822 19.600501235551747)"/></g></g><g stroke-linecap="round"><path fill="none" stroke="#000" stroke-width="4" d="M39.31 0.46 C45.82 -0.19, 52.3 1.8, 58.05 6.04 C63.81 10.29, 70.95 18.53, 73.81 25.91 C76.68 33.3, 76.4 42.75, 75.24 50.36 C74.08 57.97, 71.43 65.87, 66.86 71.57 C62.29 77.27, 54.39 82.49, 47.8 84.59 C41.21 86.68, 33.72 86.48, 27.32 84.12 C20.92 81.76, 13.79 76.13, 9.42 70.41 C5.05 64.68, 2.17 57.2, 1.11 49.77 C0.04 42.34, 0.38 33.15, 3.03 25.84 C5.68 18.53, 10.44 10.34, 16.99 5.9 C23.54 1.46, 37.45 -0.04, 42.31 -0.79 C47.18 -1.53, 46.45 0.59, 46.18 1.41 M45.43 1.39 C51.96 1.74, 59.34 5.41, 64.33 10.51 C69.32 15.62, 73.52 24.05, 75.38 32.02 C77.24 39.99, 77.65 50.86, 75.5 58.33 C73.36 65.81, 68.12 72.4, 62.52 76.87 C56.91 81.34, 48.92 84.38, 41.89 85.13 C34.87 85.88, 26.55 84.52, 20.36 81.36 C14.16 78.19, 8.01 72.59, 4.71 66.13 C1.41 59.67, 0.42 50.54, 0.57 42.58 C0.72 34.62, 1.55 24.8, 5.6 18.36 C9.65 11.91, 18.24 6.66, 24.86 3.91 C31.47 1.16, 41.78 2.18, 45.31 1.85 C48.84 1.52, 46.4 1.5, 46.04 1.92" transform="translate(1133.0818318953648 1235.0397058704182) rotate(0 38.16637186643311 43.10554940208908)"/></g><g stroke-linecap="round"><g><path fill="none" stroke="#000" stroke-width="4" d="M-0.1 0.16 C-1.37 23.34, -6.25 115.43, -7.56 138.47 M-1.61 -0.8 C-3 22.57, -7.05 116.28, -8.24 139.63" transform="translate(1169.003123063772 1324.8429337914372) rotate(0 -4.169750537658274 69.41081983209307)"/></g></g><g stroke-linecap="round"><g><path fill="none" stroke="#000" stroke-width="4" d="M-0.98 0.91 C-6.64 -7.05, -28.71 -40.07, -34.15 -48.36 M0.71 0.35 C-4.57 -7.87, -26.04 -41.4, -31.92 -49.94" transform="translate(1163.6149293885105 1382.3169996608892) rotate(0 -16.71814938812554 -24.513703832319663)"/></g></g><g stroke-linecap="round"><g><path fill="none" stroke="#000" stroke-width="4" d="M0.9 0.61 C8.13 -8.2, 36.68 -43.79, 44.03 -52.76 M-0.09 -0.12 C6.94 -8.79, 35.62 -42.84, 43.09 -51.57" transform="translate(1168.1050907845615 1381.4189673816788) rotate(0 21.97028924768847 -26.073602456609535)"/></g></g><g stroke-linecap="round"><g><path fill="none" stroke="#000" stroke-width="4" d="M0.46 0.5 C-5.98 6.46, -33.07 29.57, -39.79 35.17 M-0.76 -0.28 C-7.19 5.94, -33.81 30.92, -40.41 36.78" transform="translate(1160.02280027167 1464.0379370690166) rotate(0 -19.973127210466714 18.249946244345495)"/></g></g><g stroke-linecap="round"><g><path fill="none" stroke="#000" stroke-width="4" d="M0.52 0.91 C4 7.43, 18.57 32.54, 21.8 38.86 M-0.67 0.34 C2.68 6.59, 17.61 31.21, 21.45 37.34" transform="translate(1161.8188648300902 1462.2418725105963) rotate(0 10.56626292278088 19.600501235551747)"/></g></g><g><text x="109.083" y="0" fill="#000" direction="ltr" dominant-baseline="text-before-edge" font-family="Virgil, Segoe UI Emoji" font-size="20" text-anchor="middle" style="white-space:pre" transform="translate(851.0433531331678 1136.0982480049888) rotate(0 109.08333587646484 12.5)">(avg wait time - 2min)</text></g><g stroke-linecap="round"><path fill="none" stroke="#000" stroke-width="4" d="M30.41 0.73 C36.62 0.27, 45.5 2.68, 50.92 6.52 C56.35 10.36, 61.54 17.76, 62.96 23.79 C64.39 29.82, 63.06 37.61, 59.49 42.72 C55.93 47.83, 48.12 52.62, 41.57 54.45 C35.03 56.29, 26.26 55.8, 20.21 53.71 C14.17 51.62, 8.76 46.92, 5.32 41.94 C1.89 36.96, -1.42 29.64, -0.4 23.83 C0.61 18.02, 5.48 10.89, 11.41 7.08 C17.34 3.27, 30.46 1.96, 35.17 0.97 C39.88 -0.03, 39.72 0.83, 39.65 1.1 M28.56 0.72 C34.78 -0.1, 42.13 1.56, 47.66 4.89 C53.2 8.22, 59.52 15.12, 61.77 20.69 C64.02 26.26, 63.88 32.75, 61.14 38.3 C58.41 43.86, 51.6 51.36, 45.34 54.03 C39.09 56.7, 30.12 56.04, 23.6 54.31 C17.07 52.57, 10.05 48.04, 6.21 43.63 C2.37 39.22, 0.29 33.5, 0.54 27.85 C0.79 22.2, 3.15 14.26, 7.74 9.73 C12.32 5.2, 24.75 1.99, 28.06 0.68 C31.36 -0.63, 27.43 1.53, 27.56 1.87" transform="translate(988.3308300257845 1289.26883323545) rotate(0 31.44135711471546 28.13174057632432)"/></g><g stroke-linecap="round"><g><path fill="none" stroke="#000" stroke-width="4" d="M-1.09 0.59 C-0.82 10.93, 0.28 51.87, 0.81 62.03 M0.54 -0.15 C1.25 9.86, 2.91 50.4, 3.08 60.33" transform="translate(1018.1173788713045 1347.1871226572944) rotate(0 0.9955124213576028 30.94062483424949)"/></g></g><g stroke-linecap="round"><g><path fill="none" stroke="#000" stroke-width="4" d="M0.12 0.4 C-8.88 -3.67, -45.34 -20.9, -54 -25.41 M-1.28 -0.44 C-9.91 -4.73, -43.38 -22.81, -51.84 -26.97" transform="translate(1016.462570602109 1373.664054964423) rotate(0 -26.94132015684704 -13.284306998332454)"/></g></g><g stroke-linecap="round"><g><path fill="none" stroke="#000" stroke-width="4" d="M-0.35 -0.81 C7.16 -4.44, 38.25 -19.07, 45.83 -22.69 M1.66 1.38 C9.06 -2.54, 38.34 -20.24, 45.49 -24.56" transform="translate(1023.0818036788912 1376.9736715028139) rotate(0 22.73937783505778 -11.592445852443745)"/></g></g><g stroke-linecap="round"><path fill="none" stroke="#000" stroke-width="4" d="M39.31 0.46 C45.82 -0.19, 52.3 1.8, 58.05 6.04 C63.81 10.29, 70.95 18.53, 73.81 25.91 C76.68 33.3, 76.4 42.75, 75.24 50.36 C74.08 57.97, 71.43 65.87, 66.86 71.57 C62.29 77.27, 54.39 82.49, 47.8 84.59 C41.21 86.68, 33.72 86.48, 27.32 84.12 C20.92 81.76, 13.79 76.13, 9.42 70.41 C5.05 64.68, 2.17 57.2, 1.11 49.77 C0.04 42.34, 0.38 33.15, 3.03 25.84 C5.68 18.53, 10.44 10.34, 16.99 5.9 C23.54 1.46, 37.45 -0.04, 42.31 -0.79 C47.18 -1.53, 46.45 0.59, 46.18 1.41 M45.43 1.39 C51.96 1.74, 59.34 5.41, 64.33 10.51 C69.32 15.62, 73.52 24.05, 75.38 32.02 C77.24 39.99, 77.65 50.86, 75.5 58.33 C73.36 65.81, 68.12 72.4, 62.52 76.87 C56.91 81.34, 48.92 84.38, 41.89 85.13 C34.87 85.88, 26.55 84.52, 20.36 81.36 C14.16 78.19, 8.01 72.59, 4.71 66.13 C1.41 59.67, 0.42 50.54, 0.57 42.58 C0.72 34.62, 1.55 24.8, 5.6 18.36 C9.65 11.91, 18.24 6.66, 24.86 3.91 C31.47 1.16, 41.78 2.18, 45.31 1.85 C48.84 1.52, 46.4 1.5, 46.04 1.92" transform="translate(106.88027080524468 244.0513792685831) rotate(0 38.16637186643306 43.10554940208908)"/></g><g stroke-linecap="round"><g><path fill="none" stroke="#000" stroke-width="4" d="M-0.1 0.16 C-1.37 23.34, -6.25 115.43, -7.56 138.47 M-1.61 -0.8 C-3 22.57, -7.05 116.28, -8.24 139.63" transform="translate(142.80156197365193 333.85460718960206) rotate(0 -4.169750537658231 69.41081983209313)"/></g></g><g stroke-linecap="round"><g><path fill="none" stroke="#000" stroke-width="4" d="M-0.98 0.91 C-6.64 -7.05, -28.71 -40.07, -34.15 -48.36 M0.71 0.35 C-4.57 -7.87, -26.04 -41.4, -31.92 -49.94" transform="translate(137.41336829839076 391.3286730590542) rotate(0 -16.718149388125624 -24.513703832319663)"/></g></g><g stroke-linecap="round"><g><path fill="none" stroke="#000" stroke-width="4" d="M0.46 0.5 C-5.98 6.46, -33.07 29.57, -39.79 35.17 M-0.76 -0.28 C-7.19 5.94, -33.81 30.92, -40.41 36.78" transform="translate(133.82123918155003 473.0496104671815) rotate(0 -19.973127210466686 18.249946244345523)"/></g></g><g stroke-linecap="round"><g><path fill="none" stroke="#000" stroke-width="4" d="M0.52 0.91 C4 7.43, 18.57 32.54, 21.8 38.86 M-0.67 0.34 C2.68 6.59, 17.61 31.21, 21.45 37.34" transform="translate(135.61730373997045 471.25354590876105) rotate(0 10.56626292278085 19.600501235551747)"/></g></g><g stroke-linecap="round"><g><path fill="none" stroke="#000" stroke-width="4" d="M0.9 0.61 C8.13 -8.2, 36.68 -43.79, 44.03 -52.76 M-0.09 -0.12 C6.94 -8.79, 35.62 -42.84, 43.09 -51.57" transform="translate(142.81760758978896 390.40183494493294) rotate(0 21.970289247688484 -26.073602456609507)"/></g></g><g stroke-linecap="round"><path fill="none" stroke="#000" stroke-width="4" d="M39.31 0.46 C45.82 -0.19, 52.3 1.8, 58.05 6.04 C63.81 10.29, 70.95 18.53, 73.81 25.91 C76.68 33.3, 76.4 42.75, 75.24 50.36 C74.08 57.97, 71.43 65.87, 66.86 71.57 C62.29 77.27, 54.39 82.49, 47.8 84.59 C41.21 86.68, 33.72 86.48, 27.32 84.12 C20.92 81.76, 13.79 76.13, 9.42 70.41 C5.05 64.68, 2.17 57.2, 1.11 49.77 C0.04 42.34, 0.38 33.15, 3.03 25.84 C5.68 18.53, 10.44 10.34, 16.99 5.9 C23.54 1.46, 37.45 -0.04, 42.31 -0.79 C47.18 -1.53, 46.45 0.59, 46.18 1.41 M45.43 1.39 C51.96 1.74, 59.34 5.41, 64.33 10.51 C69.32 15.62, 73.52 24.05, 75.38 32.02 C77.24 39.99, 77.65 50.86, 75.5 58.33 C73.36 65.81, 68.12 72.4, 62.52 76.87 C56.91 81.34, 48.92 84.38, 41.89 85.13 C34.87 85.88, 26.55 84.52, 20.36 81.36 C14.16 78.19, 8.01 72.59, 4.71 66.13 C1.41 59.67, 0.42 50.54, 0.57 42.58 C0.72 34.62, 1.55 24.8, 5.6 18.36 C9.65 11.91, 18.24 6.66, 24.86 3.91 C31.47 1.16, 41.78 2.18, 45.31 1.85 C48.84 1.52, 46.4 1.5, 46.04 1.92" transform="translate(1065.0701405787224 269.1732459189327) rotate(0 38.16637186643311 43.10554940208908)"/></g><g stroke-linecap="round"><g><path fill="none" stroke="#000" stroke-width="4" d="M-0.1 0.16 C-1.37 23.34, -6.25 115.43, -7.56 138.47 M-1.61 -0.8 C-3 22.57, -7.05 116.28, -8.24 139.63" transform="translate(1100.9914317471298 358.9764738399517) rotate(0 -4.169750537658274 69.41081983209313)"/></g></g><g stroke-linecap="round"><g><path fill="none" stroke="#000" stroke-width="4" d="M-0.98 0.91 C-6.64 -7.05, -28.71 -40.07, -34.15 -48.36 M0.71 0.35 C-4.57 -7.87, -26.04 -41.4, -31.92 -49.94" transform="translate(1095.6032380718684 416.45053970940376) rotate(0 -16.71814938812554 -24.513703832319663)"/></g></g><g stroke-linecap="round"><g><path fill="none" stroke="#000" stroke-width="4" d="M0.9 0.61 C8.13 -8.2, 36.68 -43.79, 44.03 -52.76 M-0.09 -0.12 C6.94 -8.79, 35.62 -42.84, 43.09 -51.57" transform="translate(1100.0933994679194 415.5525074301936) rotate(0 21.97028924768847 -26.073602456609507)"/></g></g><g stroke-linecap="round"><g><path fill="none" stroke="#000" stroke-width="4" d="M0.46 0.5 C-5.98 6.46, -33.07 29.57, -39.79 35.17 M-0.76 -0.28 C-7.19 5.94, -33.81 30.92, -40.41 36.78" transform="translate(1092.011108955028 498.171477117531) rotate(0 -19.973127210466657 18.249946244345523)"/></g></g><g stroke-linecap="round"><g><path fill="none" stroke="#000" stroke-width="4" d="M0.52 0.91 C4 7.43, 18.57 32.54, 21.8 38.86 M-0.67 0.34 C2.68 6.59, 17.61 31.21, 21.45 37.34" transform="translate(1093.8071735134483 496.3754125591106) rotate(0 10.56626292278088 19.600501235551747)"/></g></g><g stroke-linecap="round"><path fill="none" stroke="#000" stroke-width="4" d="M39.31 0.46 C45.82 -0.19, 52.3 1.8, 58.05 6.04 C63.81 10.29, 70.95 18.53, 73.81 25.91 C76.68 33.3, 76.4 42.75, 75.24 50.36 C74.08 57.97, 71.43 65.87, 66.86 71.57 C62.29 77.27, 54.39 82.49, 47.8 84.59 C41.21 86.68, 33.72 86.48, 27.32 84.12 C20.92 81.76, 13.79 76.13, 9.42 70.41 C5.05 64.68, 2.17 57.2, 1.11 49.77 C0.04 42.34, 0.38 33.15, 3.03 25.84 C5.68 18.53, 10.44 10.34, 16.99 5.9 C23.54 1.46, 37.45 -0.04, 42.31 -0.79 C47.18 -1.53, 46.45 0.59, 46.18 1.41 M45.43 1.39 C51.96 1.74, 59.34 5.41, 64.33 10.51 C69.32 15.62, 73.52 24.05, 75.38 32.02 C77.24 39.99, 77.65 50.86, 75.5 58.33 C73.36 65.81, 68.12 72.4, 62.52 76.87 C56.91 81.34, 48.92 84.38, 41.89 85.13 C34.87 85.88, 26.55 84.52, 20.36 81.36 C14.16 78.19, 8.01 72.59, 4.71 66.13 C1.41 59.67, 0.42 50.54, 0.57 42.58 C0.72 34.62, 1.55 24.8, 5.6 18.36 C9.65 11.91, 18.24 6.66, 24.86 3.91 C31.47 1.16, 41.78 2.18, 45.31 1.85 C48.84 1.52, 46.4 1.5, 46.04 1.92" transform="translate(1243.6007559215643 1229.0380670725526) rotate(0 38.16637186643311 43.10554940208908)"/></g><g stroke-linecap="round"><g><path fill="none" stroke="#000" stroke-width="4" d="M-0.1 0.16 C-1.37 23.34, -6.25 115.43, -7.56 138.47 M-1.61 -0.8 C-3 22.57, -7.05 116.28, -8.24 139.63" transform="translate(1279.5220470899715 1318.8412949935716) rotate(0 -4.169750537658274 69.41081983209307)"/></g></g><g stroke-linecap="round"><g><path fill="none" stroke="#000" stroke-width="4" d="M-0.98 0.91 C-6.64 -7.05, -28.71 -40.07, -34.15 -48.36 M0.71 0.35 C-4.57 -7.87, -26.04 -41.4, -31.92 -49.94" transform="translate(1274.133853414711 1376.3153608630237) rotate(0 -16.71814938812554 -24.513703832319663)"/></g></g><g stroke-linecap="round"><g><path fill="none" stroke="#000" stroke-width="4" d="M0.9 0.61 C8.13 -8.2, 36.68 -43.79, 44.03 -52.76 M-0.09 -0.12 C6.94 -8.79, 35.62 -42.84, 43.09 -51.57" transform="translate(1278.624014810762 1375.4173285838135) rotate(0 21.97028924768847 -26.073602456609535)"/></g></g><g stroke-linecap="round"><g><path fill="none" stroke="#000" stroke-width="4" d="M0.46 0.5 C-5.98 6.46, -33.07 29.57, -39.79 35.17 M-0.76 -0.28 C-7.19 5.94, -33.81 30.92, -40.41 36.78" transform="translate(1270.5417242978704 1458.0362982711508) rotate(0 -19.973127210466714 18.249946244345495)"/></g></g><g stroke-linecap="round"><g><path fill="none" stroke="#000" stroke-width="4" d="M0.52 0.91 C4 7.43, 18.57 32.54, 21.8 38.86 M-0.67 0.34 C2.68 6.59, 17.61 31.21, 21.45 37.34" transform="translate(1272.3377888562902 1456.2402337127305) rotate(0 10.56626292278088 19.600501235551747)"/></g></g><g stroke-linecap="round"><path fill="none" stroke="#000" stroke-width="4" d="M0.64 -0.16 C269.74 -0.07, 540.06 0.15, 928.14 -0.58 M-0.09 0.18 C203.78 1.71, 407.7 1.13, 927.7 0.06 M928.11 0.64 C926.72 164.6, 925.23 327.78, 927.73 741.46 M927.85 -0.27 C928.74 235.97, 929.29 472.13, 928.28 741.56 M927.55 741.36 C625.69 739.73, 324.45 739.34, 0.28 741.49 M928.33 741.64 C574.55 741.57, 221.42 741.24, 0.21 741.72 M0.01 741.54 C0.53 519.99, 0.48 298.19, -0.51 -0.47 M0.33 741.81 C-1.74 544.91, -1.91 347.66, -0.21 -0.39" transform="translate(10 10) rotate(0 463.98305084745766 370.76271186440675)"/></g><g stroke-linecap="round"><path fill="none" stroke="#000" stroke-width="4" d="M0.64 -0.16 C250.01 -0.12, 500.59 0.11, 860.24 -0.58 M-0.09 0.18 C188.87 1.61, 377.89 1.02, 859.8 0.06 M860.21 0.64 C858.82 164.6, 857.33 327.78, 859.83 741.46 M859.95 -0.27 C860.84 235.97, 861.39 472.13, 860.37 741.56 M859.65 741.36 C579.86 739.87, 300.69 739.48, 0.28 741.49 M860.42 741.64 C532.5 741.58, 205.21 741.25, 0.21 741.72 M0.01 741.54 C0.53 519.99, 0.48 298.19, -0.51 -0.47 M0.33 741.81 C-1.74 544.91, -1.91 347.66, -0.21 -0.39" transform="translate(1016.7030759573124 12.118644067796595) rotate(0 430.0324335635071 370.76271186440675)"/></g><g stroke-linecap="round"><path fill="none" stroke="#000" stroke-width="4" d="M0.64 -0.16 C352.24 0.14, 705.06 0.36, 1212.04 -0.58 M-0.09 0.18 C266.09 2.17, 532.34 1.59, 1211.6 0.06 M1212.01 0.64 C1210.31 189.55, 1208.82 377.67, 1211.63 854.34 M1211.75 -0.27 C1212.78 271.93, 1213.33 544.05, 1212.17 854.44 M1211.45 854.24 C817.3 852.03, 423.77 851.63, 0.28 854.37 M1212.22 854.52 C750.39 854.42, 289.2 854.09, 0.21 854.6 M0.01 854.42 C0.68 599.07, 0.63 343.47, -0.51 -0.47 M0.33 854.69 C-1.98 627.84, -2.15 400.64, -0.21 -0.39" transform="translate(347.86788022977794 819.9340976554492) rotate(0 605.9322033898304 427.202298683349)"/></g><g stroke-linecap="round"><path fill="#fff" stroke="none" stroke-width="0" d="M0.48 1.13 L327.3 -0.14 L324.69 186.96 L0.48 186.67" transform="translate(1379.0842269731763 1115.9602186733423) rotate(0 163 92.5)"/><path fill="none" stroke="#000" stroke-width="4" d="M-0.53 -1.23 C76.7 0.13, 152.76 0.63, 326.04 -1.34 M-0.35 0.38 C85.74 0.95, 172.74 1.84, 325.64 0.67 M324.97 -1.95 C324.26 74.97, 323.3 146.81, 327.18 183.47 M326.39 0.47 C325.04 51.24, 324.69 102.67, 325.41 185.16 M325.34 184.25 C202.05 182.52, 80.55 183.28, -1.3 184.99 M326.65 184.79 C251.23 183.9, 175.86 183.3, -0.3 184.34 M-1.08 186.72 C-0.23 113.59, 0.34 39.26, 0.75 0.65 M-0.65 184.21 C0.38 138.63, 0.23 92.66, -1 -0.55" transform="translate(1379.0842269731763 1115.9602186733423) rotate(0 163 92.5)"/></g><g><text x="157.95" y="0" fill="#000" direction="ltr" dominant-baseline="text-before-edge" font-family="Virgil, Segoe UI Emoji" font-size="20" text-anchor="middle" style="white-space:pre" transform="translate(1384.1342300249341 1120.9602186733423) rotate(0 157.9499969482422 87.5)">no, Lemonade Stand™ does not</text><text x="157.95" y="25" fill="#000" direction="ltr" dominant-baseline="text-before-edge" font-family="Virgil, Segoe UI Emoji" font-size="20" text-anchor="middle" style="white-space:pre" transform="translate(1384.1342300249341 1120.9602186733423) rotate(0 157.9499969482422 87.5)">employ kids. no sir.</text><text x="157.95" y="75" fill="#000" direction="ltr" dominant-baseline="text-before-edge" font-family="Virgil, Segoe UI Emoji" font-size="20" text-anchor="middle" style="white-space:pre" transform="translate(1384.1342300249341 1120.9602186733423) rotate(0 157.9499969482422 87.5)">these are just tinier people</text><text x="157.95" y="100" fill="#000" direction="ltr" dominant-baseline="text-before-edge" font-family="Virgil, Segoe UI Emoji" font-size="20" text-anchor="middle" style="white-space:pre" transform="translate(1384.1342300249341 1120.9602186733423) rotate(0 157.9499969482422 87.5)">to represent how we have been</text><text x="157.95" y="125" fill="#000" direction="ltr" dominant-baseline="text-before-edge" font-family="Virgil, Segoe UI Emoji" font-size="20" text-anchor="middle" style="white-space:pre" transform="translate(1384.1342300249341 1120.9602186733423) rotate(0 157.9499969482422 87.5)">able to fit more computation</text><text x="157.95" y="150" fill="#000" direction="ltr" dominant-baseline="text-before-edge" font-family="Virgil, Segoe UI Emoji" font-size="20" text-anchor="middle" style="white-space:pre" transform="translate(1384.1342300249341 1120.9602186733423) rotate(0 157.9499969482422 87.5)">in the same space</text></g><g stroke-linecap="round"><path fill="#fff" stroke="none" stroke-width="0" d="M15.66 -1.2 L198.25 0.97 L200.47 0.5 L202.08 6.12 L207.12 41.26 L202.08 50.38 L192.68 48.93 L12.27 49.69 L1.24 51.68 L-0.4 43.85 L-1.76 15.94 L7.01 3.1 L12.53 2.08" transform="translate(1614.3173458981655 228.4047891313486) rotate(0 102.5 26)"/><path fill="none" stroke="#000" stroke-width="4" d="M13 0 M13 0 C80.22 -0.72, 145.65 -1.99, 192 0 M13 0 C81.41 0.72, 151.76 0.92, 192 0 M192 0 C202.98 -2.36, 207.7 5.05, 205 13 M192 0 C203.13 3.33, 205.82 6.45, 205 13 M205 13 C208.77 20.1, 205.07 34.55, 205 39 M205 13 C204.7 20.48, 206.02 29.18, 205 39 M205 39 C203.14 47.51, 197.65 52.84, 192 52 M205 39 C202.13 48.13, 204.6 49.61, 192 52 M192 52 C134.14 49.83, 73.27 44.79, 13 52 M192 52 C141.95 50.44, 90.27 50.34, 13 52 M13 52 C7.94 53.97, -1.35 45.35, 0 39 M13 52 C5.33 56.21, -3 44.53, 0 39 M0 39 C-0.66 29.26, 0.13 20.46, 0 13 M0 39 C0.15 29.79, -0.8 22, 0 13 M0 13 C3.15 7.61, 2.42 2.9, 13 0 M0 13 C2.11 3.74, 0.5 -3.87, 13 0" transform="translate(1614.3173458981655 228.4047891313486) rotate(0 102.5 26)"/></g><g><text x="75.55" y="0" fill="#000" direction="ltr" dominant-baseline="text-before-edge" font-family="Virgil, Segoe UI Emoji" font-size="20" text-anchor="middle" style="white-space:pre" transform="translate(1641.2673428464077 241.9047891313486) rotate(0 75.55000305175781 12.5)">lemonade stand</text></g></svg>