<?xml version="1.0" encoding="UTF-8"?>
<!DOCTYPE svg PUBLIC "-//W3C//DTD SVG 1.1//EN" "http://www.w3.org/Graphics/SVG/1.1/DTD/svg11.dtd">
<svg xmlns="http://www.w3.org/2000/svg" version="1.1" width="512px" height="512px" style="shape-rendering:geometricPrecision; text-rendering:geometricPrecision; image-rendering:optimizeQuality; fill-rule:evenodd; clip-rule:evenodd" xmlns:xlink="http://www.w3.org/1999/xlink">
<g><path style="opacity:1" fill="#dbc9e7" d="M 123.5,131.5 C 130.069,130.859 136.069,132.359 141.5,136C 144.919,143.407 148.252,150.907 151.5,158.5C 161.393,168.519 172.893,176.519 186,182.5C 190.74,180.905 195.24,181.405 199.5,184C 202.167,187.333 204.833,190.667 207.5,194C 211.607,195.915 215.774,196.415 220,195.5C 223.481,188.861 226.148,181.861 228,174.5C 232.592,163.922 238.758,154.422 246.5,146C 257.541,140.843 268.874,140.177 280.5,144C 291.074,149.201 301.241,155.035 311,161.5C 311.758,163.769 311.591,165.936 310.5,168C 303.116,168.143 296.116,169.809 289.5,173C 282.141,180.714 282.141,188.214 289.5,195.5C 293.739,194.018 298.073,192.852 302.5,192C 307.027,182.234 314.694,177.9 325.5,179C 327.996,177.92 330.33,176.586 332.5,175C 337.664,170.333 342.331,165.166 346.5,159.5C 347.651,158.269 348.817,158.269 350,159.5C 353.78,153.274 356.447,146.607 358,139.5C 364.93,131.977 373.43,129.477 383.5,132C 386.295,133.793 388.795,135.96 391,138.5C 398.974,134.066 407.474,132.566 416.5,134C 418.067,135.076 419.734,135.909 421.5,136.5C 435.756,134.297 450.09,133.463 464.5,134C 468.51,136.325 469.51,139.659 467.5,144C 477.214,144.192 486.88,144.692 496.5,145.5C 497.777,148.034 497.777,150.534 496.5,153C 484.946,157.943 473.279,162.61 461.5,167C 473.208,167.139 484.875,167.806 496.5,169C 499.167,172 499.167,175 496.5,178C 481.45,183.011 466.117,187.011 450.5,190C 464.982,189.975 479.316,191.309 493.5,194C 497.5,197 497.5,200 493.5,203C 482.966,206.3 472.3,208.967 461.5,211C 467.481,213.791 469.481,218.291 467.5,224.5C 461.409,226.03 455.409,227.864 449.5,230C 436.797,230.152 424.131,230.818 411.5,232C 408.315,235.694 404.482,236.86 400,235.5C 394.312,241.514 387.812,242.681 380.5,239C 376.333,236.167 372.167,233.333 368,230.5C 366.722,238.748 365.389,247.081 364,255.5C 363.535,256.931 362.701,258.097 361.5,259C 358.571,259.777 355.737,259.61 353,258.5C 353.291,263.144 353.291,267.811 353,272.5C 348.12,276.618 343.453,276.284 339,271.5C 337.6,272.116 336.1,272.449 334.5,272.5C 331.418,272.121 328.418,271.454 325.5,270.5C 326.107,276.551 323.441,279.885 317.5,280.5C 313.963,280.065 310.963,278.565 308.5,276C 303.688,276.177 299.855,274.344 297,270.5C 294.813,275.387 292.813,280.387 291,285.5C 290.595,291.193 290.928,296.859 292,302.5C 292.465,303.931 293.299,305.097 294.5,306C 309.825,314.915 323.992,325.415 337,337.5C 337.863,339.749 337.363,341.582 335.5,343C 332.041,343.277 328.707,342.943 325.5,342C 333.099,350.033 339.599,358.867 345,368.5C 346.316,371.688 346.816,375.022 346.5,378.5C 345.5,378.5 344.5,378.5 343.5,378.5C 345.958,389.552 342.291,392.385 332.5,387C 329.333,384.5 326.167,382 323,379.5C 324.894,383.128 326.728,386.962 328.5,391C 328.212,394.104 326.545,395.604 323.5,395.5C 316.561,394.403 311.394,390.736 308,384.5C 307.179,391.676 303.345,394.51 296.5,393C 288.342,388.833 281.176,383.333 275,376.5C 272.61,385.28 268.61,393.28 263,400.5C 262.091,404.54 261.091,408.54 260,412.5C 256.94,415.936 253.607,416.269 250,413.5C 248.152,408.447 246.152,403.447 244,398.5C 238.099,391.47 234.099,383.47 232,374.5C 226.143,382.677 218.643,388.843 209.5,393C 204.639,394.319 201.806,392.486 201,387.5C 196.412,394.217 190.246,396.551 182.5,394.5C 182.069,393.707 181.735,392.873 181.5,392C 183.095,387.978 185.095,384.144 187.5,380.5C 187.167,380.167 186.833,379.833 186.5,379.5C 181.612,384.439 175.946,388.106 169.5,390.5C 168.446,390.32 167.446,389.987 166.5,389.5C 165.243,386.156 165.243,382.823 166.5,379.5C 162.998,377.132 162.498,374.132 165,370.5C 171.51,359.664 179.344,349.831 188.5,341C 184.241,341.808 179.907,342.142 175.5,342C 173.145,340.135 172.978,337.969 175,335.5C 189.912,323.264 205.912,312.598 223,303.5C 223.667,297.833 223.667,292.167 223,286.5C 220.59,280.682 217.923,275.015 215,269.5C 210.896,273.205 206.396,276.372 201.5,279C 199.101,279.711 196.768,279.544 194.5,278.5C 190.685,281.29 186.685,281.79 182.5,280C 180.033,276.884 177.699,273.718 175.5,270.5C 172.557,271.244 169.557,271.744 166.5,272C 159.698,277.559 155.365,276.226 153.5,268C 153.725,265.472 154.058,262.972 154.5,260.5C 150.397,261.231 146.897,260.231 144,257.5C 142.837,250.897 142.17,244.23 142,237.5C 141.484,234.749 140.317,232.416 138.5,230.5C 133.975,234.192 129.308,237.692 124.5,241C 122.419,241.869 120.253,242.369 118,242.5C 113.036,240.952 107.869,240.118 102.5,240C 100.323,238.485 98.1561,236.985 96,235.5C 90.9223,237.39 86.4223,236.557 82.5,233C 72.1298,232.804 61.7965,232.138 51.5,231C 45.6074,227.591 39.2741,225.591 32.5,225C 29.9199,222.456 29.9199,219.956 32.5,217.5C 35.6159,215.45 38.9492,213.95 42.5,213C 35.1177,211.957 27.7844,210.624 20.5,209C 14.4431,207.651 8.94307,205.151 4,201.5C 2.73747,197.256 4.23747,194.756 8.5,194C 21.8046,192.861 35.138,192.194 48.5,192C 32.6944,188.132 17.0277,183.799 1.5,179C -0.013479,176.084 0.319854,173.418 2.5,171C 13.0977,168.783 23.7643,168.116 34.5,169C 23.059,165.359 12.2256,160.526 2,154.5C 0.737465,150.256 2.23747,147.756 6.5,147C 14.5,146.667 22.5,146.333 30.5,146C 29.3977,143.599 29.231,141.099 30,138.5C 31.1711,137.107 32.6711,136.273 34.5,136C 50.3863,135.631 66.2196,136.464 82,138.5C 86.4121,135.89 91.2454,134.224 96.5,133.5C 102.464,134.155 108.131,135.821 113.5,138.5C 116.344,135.3 119.677,132.967 123.5,131.5 Z"/></g>
<g><path style="opacity:1" fill="#000000" d="M 150.5,161.5 C 151.183,163.176 152.517,163.843 154.5,163.5C 155.228,165.735 156.561,167.568 158.5,169C 165.781,174.983 173.781,179.983 182.5,184C 186.194,184.278 189.861,184.278 193.5,184C 194.833,184.667 196.167,185.333 197.5,186C 200.167,189.333 202.833,192.667 205.5,196C 210.906,198.343 216.406,198.843 222,197.5C 225.481,190.861 228.148,183.861 230,176.5C 234.592,165.922 240.758,156.422 248.5,148C 258.197,142.923 268.197,142.256 278.5,146C 289.074,151.201 299.241,157.035 309,163.5C 309.617,164.449 309.451,165.282 308.5,166C 301.116,166.143 294.116,167.809 287.5,171C 280.416,179.096 279.916,187.596 286,196.5C 287.062,197.097 288.228,197.43 289.5,197.5C 294.479,196.271 299.479,195.104 304.5,194C 309.027,184.234 316.694,179.9 327.5,181C 335.124,176.243 341.79,170.409 347.5,163.5C 348.991,162.756 350.491,162.09 352,161.5C 355.78,155.274 358.447,148.607 360,141.5C 365.687,134.826 372.854,132.326 381.5,134C 384.432,136.614 387.599,138.781 391,140.5C 397.238,138.42 403.572,136.753 410,135.5C 413.995,136.093 417.829,137.093 421.5,138.5C 435.137,136.86 448.804,136.026 462.5,136C 466.874,137.784 467.541,140.451 464.5,144C 464.645,144.772 464.978,145.439 465.5,146C 474.833,146.333 484.167,146.667 493.5,147C 495.592,147.953 495.925,149.286 494.5,151C 481.107,156.624 467.774,162.124 454.5,167.5C 453.596,168.209 453.263,169.209 453.5,170.5C 456.385,170.806 459.052,170.473 461.5,169.5C 472.549,169.15 483.549,169.65 494.5,171C 496.007,171.837 496.507,173.004 496,174.5C 493.228,176.761 490.062,178.261 486.5,179C 471.537,182.824 456.537,186.491 441.5,190C 440.027,190.71 439.36,191.876 439.5,193.5C 455.895,191.88 472.228,192.38 488.5,195C 492.988,195.733 493.988,197.733 491.5,201C 481.345,204.289 471.011,206.789 460.5,208.5C 459.369,210.074 459.202,211.741 460,213.5C 464.331,215.265 466.165,218.265 465.5,222.5C 459.409,224.03 453.409,225.864 447.5,228C 434.797,228.152 422.131,228.818 409.5,230C 406.111,233.719 402.111,235.052 397.5,234C 394.605,236.199 391.439,237.699 388,238.5C 381.558,236.528 375.725,233.361 370.5,229C 368.833,228.333 367.167,228.333 365.5,229C 364.691,237.171 363.525,245.338 362,253.5C 360.259,257.479 357.425,258.479 353.5,256.5C 352.432,255.566 351.099,255.232 349.5,255.5C 349.216,257.415 349.549,259.081 350.5,260.5C 350.507,263.038 350.841,265.538 351.5,268C 350.94,271.571 348.94,273.238 345.5,273C 343.547,271.367 341.38,270.201 339,269.5C 336.138,270.764 333.305,270.764 330.5,269.5C 328.393,268.532 326.059,268.198 323.5,268.5C 323.5,269.5 323.5,270.5 323.5,271.5C 323.031,274.981 321.031,277.315 317.5,278.5C 315.032,277.197 312.699,275.697 310.5,274C 305.427,274.13 301.427,272.13 298.5,268C 297.5,267.333 296.5,267.333 295.5,268C 288.005,280.084 286.505,292.917 291,306.5C 306.818,316.329 321.652,327.496 335.5,340C 334.584,340.374 333.75,340.874 333,341.5C 328.996,339.665 324.83,338.332 320.5,337.5C 320.343,338.873 320.51,340.207 321,341.5C 330.209,350.706 337.875,361.039 344,372.5C 344.49,373.793 344.657,375.127 344.5,376.5C 343.178,376.33 342.011,376.663 341,377.5C 340.812,379.476 340.979,381.476 341.5,383.5C 341.658,385.319 340.991,386.652 339.5,387.5C 332.793,383.962 326.793,379.462 321.5,374C 319.866,373.506 318.199,373.34 316.5,373.5C 318.278,379.051 321.111,384.051 325,388.5C 325.884,390.641 325.384,392.307 323.5,393.5C 318.378,391.886 314.212,388.886 311,384.5C 308.29,380.247 305.457,376.08 302.5,372C 301.207,371.51 299.873,371.343 298.5,371.5C 299.933,376.372 301.933,381.038 304.5,385.5C 304.128,389.381 302.128,391.215 298.5,391C 290.083,386.785 282.75,381.119 276.5,374C 275.5,373.333 274.5,373.333 273.5,374C 270.812,382.875 266.646,391.042 261,398.5C 259.964,401.753 259.297,405.086 259,408.5C 257.741,412.223 255.408,413.223 252,411.5C 249.835,402.835 245.835,395.169 240,388.5C 237.867,383.268 236.034,377.934 234.5,372.5C 233.277,371.386 231.944,371.219 230.5,372C 224.314,380.506 216.481,387.006 207,391.5C 204.245,389.99 203.079,387.657 203.5,384.5C 202.127,384.343 200.793,384.51 199.5,385C 195.923,390.453 190.923,393.286 184.5,393.5C 184.343,392.127 184.51,390.793 185,389.5C 187.351,386.795 189.184,383.795 190.5,380.5C 189.378,376.403 187.044,375.57 183.5,378C 179.214,383.158 173.88,386.325 167.5,387.5C 167.572,384.807 167.905,382.14 168.5,379.5C 167.344,377.229 166.844,374.895 167,372.5C 174.487,360.338 183.487,349.338 194,339.5C 194.49,338.207 194.657,336.873 194.5,335.5C 188.904,337.365 183.237,339.032 177.5,340.5C 176.89,339.609 176.557,338.609 176.5,337.5C 191.7,325.484 207.867,314.818 225,305.5C 225.667,298.5 225.667,291.5 225,284.5C 223,279.833 221,275.167 219,270.5C 218.101,268.673 216.767,267.34 215,266.5C 209.957,270.8 204.457,274.467 198.5,277.5C 194.559,276.238 190.726,276.571 187,278.5C 184.849,278.357 183.182,277.357 182,275.5C 180.961,273.254 179.794,271.087 178.5,269C 174.777,269.075 171.11,268.908 167.5,268.5C 165.079,270.238 162.412,271.571 159.5,272.5C 156.013,271.531 154.68,269.198 155.5,265.5C 156.473,263.052 156.806,260.385 156.5,257.5C 155.209,257.263 154.209,257.596 153.5,258.5C 150.348,259.041 147.848,258.041 146,255.5C 144.837,248.897 144.17,242.23 144,235.5C 143.358,233.238 142.525,231.071 141.5,229C 139.5,228.333 137.5,228.333 135.5,229C 130.387,233.97 124.553,237.804 118,240.5C 113.74,238.832 109.24,237.999 104.5,238C 102.545,237.047 100.878,235.713 99.5,234C 96.4642,233.362 93.4642,233.528 90.5,234.5C 88.3939,233.57 86.3939,232.404 84.5,231C 74.1298,230.804 63.7965,230.138 53.5,229C 47.6074,225.591 41.2741,223.591 34.5,223C 33.269,221.817 33.269,220.651 34.5,219.5C 37.0684,217.283 40.0684,216.116 43.5,216C 44.3805,215.292 45.0472,214.458 45.5,213.5C 46.404,212.791 46.7373,211.791 46.5,210.5C 44.5,210.5 42.5,210.5 40.5,210.5C 29.0667,209.303 18.0667,206.136 7.5,201C 5.73966,200.035 5.40632,198.868 6.5,197.5C 10.876,196.139 15.2093,195.139 19.5,194.5C 30.8333,194.5 42.1667,194.5 53.5,194.5C 53.7373,193.209 53.404,192.209 52.5,191.5C 36.3351,186.537 20.0018,181.703 3.5,177C 2.27297,175.413 2.6063,174.079 4.5,173C 11.7625,171.574 19.0958,170.74 26.5,170.5C 30.97,171.486 35.6367,171.819 40.5,171.5C 40.7148,169.821 40.0481,168.821 38.5,168.5C 27.8074,164.328 17.1407,159.828 6.5,155C 2.58238,151.695 3.24904,149.528 8.5,148.5C 17.8333,148.5 27.1667,148.5 36.5,148.5C 36.5,147.5 36.5,146.5 36.5,145.5C 35.5,145.5 34.5,145.5 33.5,145.5C 30.4243,141.573 31.4243,139.073 36.5,138C 42.1667,137.333 47.8333,137.333 53.5,138C 63.7212,138.814 73.8878,139.981 84,141.5C 87.6835,138.576 91.8501,136.576 96.5,135.5C 102.243,136.97 107.909,138.637 113.5,140.5C 114.5,140.333 115.5,140.167 116.5,140C 123.793,131.88 131.626,131.38 140,138.5C 143.031,146.445 146.531,154.112 150.5,161.5 Z"/></g>
<g><path style="opacity:1" fill="#c3a5f0" d="M 33.5,145.5 C 34.5,145.5 35.5,145.5 36.5,145.5C 36.5,146.5 36.5,147.5 36.5,148.5C 27.1667,148.5 17.8333,148.5 8.5,148.5C 17.324,147.67 26.324,147.17 35.5,147C 34.5842,146.722 33.9175,146.222 33.5,145.5 Z"/></g>
<g><path style="opacity:1" fill="#b182f6" d="M 150.5,161.5 C 151.995,161.989 153.329,162.655 154.5,163.5C 152.517,163.843 151.183,163.176 150.5,161.5 Z"/></g>
<g><path style="opacity:1" fill="#bf9ef1" d="M 454.5,167.5 C 456.279,169.344 458.612,170.01 461.5,169.5C 459.052,170.473 456.385,170.806 453.5,170.5C 453.263,169.209 453.596,168.209 454.5,167.5 Z"/></g>
<g><path style="opacity:1" fill="#c0a0f1" d="M 38.5,168.5 C 40.0481,168.821 40.7148,169.821 40.5,171.5C 35.6367,171.819 30.97,171.486 26.5,170.5C 30.8461,170.666 35.1794,170.499 39.5,170C 38.944,169.617 38.6107,169.117 38.5,168.5 Z"/></g>
<g><path style="opacity:1" fill="#c3a6f0" d="M 52.5,191.5 C 53.404,192.209 53.7373,193.209 53.5,194.5C 42.1667,194.5 30.8333,194.5 19.5,194.5C 30.7046,194.159 41.7046,193.159 52.5,191.5 Z"/></g>
<g><path style="opacity:1" fill="#bf9df1" d="M 40.5,210.5 C 42.5,210.5 44.5,210.5 46.5,210.5C 46.7373,211.791 46.404,212.791 45.5,213.5C 44.1979,211.972 42.5313,210.972 40.5,210.5 Z"/></g>
<g><path style="opacity:1" fill="#be9bf2" d="M 353.5,256.5 C 352.5,256.5 351.5,256.5 350.5,256.5C 350.5,257.833 350.5,259.167 350.5,260.5C 349.549,259.081 349.216,257.415 349.5,255.5C 351.099,255.232 352.432,255.566 353.5,256.5 Z"/></g>
<g><path style="opacity:1" fill="#bf9ef1" d="M 153.5,258.5 C 154.209,257.596 155.209,257.263 156.5,257.5C 156.806,260.385 156.473,263.052 155.5,265.5C 156.01,262.612 155.344,260.279 153.5,258.5 Z"/></g>
<g><path style="opacity:1" fill="#bf9ef1" d="M 330.5,269.5 C 327.789,269.185 325.456,269.852 323.5,271.5C 323.5,270.5 323.5,269.5 323.5,268.5C 326.059,268.198 328.393,268.532 330.5,269.5 Z"/></g>
<g><path style="opacity:1" fill="#b68cf4" d="M 176.5,337.5 C 176.557,338.609 176.89,339.609 177.5,340.5C 175.448,339.947 175.115,338.947 176.5,337.5 Z"/></g>
</svg>
